<svg width="24" height="24" viewBox="0 0 24 24" fill="none" xmlns="http://www.w3.org/2000/svg">
<path d="M22.001 15C22.001 18.87 18.871 22 15.001 22L16.051 20.25" stroke="#0E1117" stroke-width="1.5" stroke-linecap="round" stroke-linejoin="round"/>
<path d="M2.00098 9C2.00098 5.13 5.13098 2 9.00098 2L7.95097 3.75" stroke="#0E1117" stroke-width="1.5" stroke-linecap="round" stroke-linejoin="round"/>
<path d="M13.7002 4.4502L17.6802 6.75018L21.6202 4.46021" stroke="#0E1117" stroke-width="1.5" stroke-linecap="round" stroke-linejoin="round"/>
<path d="M17.6807 10.8203V6.74023" stroke="#0E1117" stroke-width="1.5" stroke-linecap="round" stroke-linejoin="round"/>
<path d="M16.7406 2.21L14.3406 3.53996C13.8006 3.83996 13.3506 4.59995 13.3506 5.21995V7.75999C13.3506 8.37999 13.7906 9.13998 14.3406 9.43998L16.7406 10.77C17.2506 11.06 18.0906 11.06 18.6106 10.77L21.0106 9.43998C21.5506 9.13998 22.0006 8.37999 22.0006 7.75999V5.21995C22.0006 4.59995 21.5606 3.83996 21.0106 3.53996L18.6106 2.21C18.1006 1.93 17.2606 1.93 16.7406 2.21Z" stroke="#0E1117" stroke-width="1.5" stroke-linecap="round" stroke-linejoin="round"/>
<path d="M2.35059 15.4492L6.32059 17.7492L10.2706 15.4592" stroke="#0E1117" stroke-width="1.5" stroke-linecap="round" stroke-linejoin="round"/>
<path d="M6.32031 21.8193V17.7393" stroke="#0E1117" stroke-width="1.5" stroke-linecap="round" stroke-linejoin="round"/>
<path d="M10.651 16.2295C10.651 15.6095 10.211 14.8495 9.66098 14.5495L7.26097 13.2195C6.75097 12.9295 5.91098 12.9295 5.39098 13.2195L2.99098 14.5495C2.45098 14.8495 2.00098 15.6095 2.00098 16.2295V18.7695C2.00098 19.3895 2.44098 20.1495 2.99098 20.4495L5.39098 21.7795C5.90098 22.0695 6.74097 22.0695 7.26097 21.7795L9.66098 20.4495" stroke="#0E1117" stroke-width="1.5" stroke-linecap="round" stroke-linejoin="round"/>
</svg>
