<svg width="24" height="24" viewBox="0 0 24 24" fill="none" xmlns="http://www.w3.org/2000/svg">
<path opacity="0.4" d="M12.0015 22C17.5243 22 22.0015 17.5228 22.0015 12C22.0015 6.47715 17.5243 2 12.0015 2C6.47862 2 2.00146 6.47715 2.00146 12C2.00146 17.5228 6.47862 22 12.0015 22Z" fill="#0E1117"/>
<path d="M15.8113 7.21973H14.3214C13.2314 7.21973 12.3813 8.06973 12.3813 9.15973V10.6498C12.3813 11.7398 13.2314 12.5898 14.3214 12.5898H16.2313C16.1513 14.3998 15.7313 14.6698 14.5213 15.3798C14.1613 15.5898 14.0513 16.0497 14.2613 16.4097C14.4013 16.6497 14.6513 16.7798 14.9113 16.7798C15.0413 16.7798 15.1713 16.7497 15.2913 16.6797C17.0813 15.6197 17.7513 14.9297 17.7513 11.8497V9.17975C17.7513 8.08975 16.8813 7.21973 15.8113 7.21973Z" fill="#0E1117"/>
<path d="M9.68146 7.21973H8.19147C7.10147 7.21973 6.25146 8.06973 6.25146 9.15973V10.6498C6.25146 11.7398 7.10147 12.5898 8.19147 12.5898H10.1015C10.0215 14.3998 9.60146 14.6698 8.39146 15.3798C8.03146 15.5898 7.92147 16.0497 8.13147 16.4097C8.27147 16.6497 8.52146 16.7798 8.78146 16.7798C8.91146 16.7798 9.04147 16.7497 9.16147 16.6797C10.9515 15.6197 11.6215 14.9297 11.6215 11.8497V9.17975C11.6115 8.08975 10.7415 7.21973 9.68146 7.21973Z" fill="#0E1117"/>
</svg>
