<svg width="24" height="24" viewBox="0 0 24 24" fill="none" xmlns="http://www.w3.org/2000/svg">
<path d="M15.2405 9.25H2.00049C1.59049 9.25 1.25049 8.91 1.25049 8.5C1.25049 8.09 1.59049 7.75 2.00049 7.75H15.2405C15.6505 7.75 15.9905 8.09 15.9905 8.5C15.9905 8.91 15.6505 9.25 15.2405 9.25Z" fill="#0E1117"/>
<path d="M7.29049 17.25H6.00049C5.59049 17.25 5.25049 16.91 5.25049 16.5C5.25049 16.09 5.59049 15.75 6.00049 15.75H7.29049C7.70049 15.75 8.04049 16.09 8.04049 16.5C8.04049 16.91 7.71049 17.25 7.29049 17.25Z" fill="#0E1117"/>
<path d="M14.5005 17.25H11.0005C10.5905 17.25 10.2505 16.91 10.2505 16.5C10.2505 16.09 10.5905 15.75 11.0005 15.75H14.5005C14.9105 15.75 15.2505 16.09 15.2505 16.5C15.2505 16.91 14.9105 17.25 14.5005 17.25Z" fill="#0E1117"/>
<path d="M17.5605 21.2501H7.98047C7.57047 21.2501 7.23047 20.9101 7.23047 20.5001C7.23047 20.0901 7.57047 19.7501 7.98047 19.7501H17.5605C20.7005 19.7501 21.2505 19.2101 21.2505 16.1101V6.89014C21.2505 6.48014 21.5905 6.14014 22.0005 6.14014C22.4105 6.14014 22.7505 6.48014 22.7505 6.89014V16.1001C22.7505 20.0501 21.5405 21.2501 17.5605 21.2501Z" fill="#0E1117"/>
<path d="M3.71049 20.89C3.62049 20.89 3.52049 20.87 3.43049 20.84C1.62049 20.12 1.25049 18.43 1.25049 16.11V7.89C1.25049 3.95 2.46049 2.75 6.44049 2.75H17.5505C18.6905 2.75 19.5305 2.84 20.1905 3.04C20.5905 3.16 20.8105 3.57 20.7005 3.97C20.5805 4.37 20.1605 4.59 19.7705 4.48C19.2505 4.33 18.5505 4.26 17.5505 4.26H6.44049C3.30049 4.26 2.75049 4.8 2.75049 7.9V16.11C2.75049 18.5 3.18049 19.13 3.99049 19.45C4.38049 19.6 4.56049 20.04 4.41049 20.42C4.29049 20.71 4.01049 20.89 3.71049 20.89Z" fill="#0E1117"/>
<path d="M2.00043 22.7499C1.81043 22.7499 1.62043 22.6799 1.47043 22.5299C1.18043 22.2399 1.18043 21.7599 1.47043 21.4699L21.4704 1.46994C21.7604 1.17994 22.2404 1.17994 22.5304 1.46994C22.8204 1.75994 22.8204 2.23994 22.5304 2.52994L2.53043 22.5299C2.38043 22.6799 2.19043 22.7499 2.00043 22.7499Z" fill="#0E1117"/>
</svg>
