<svg width="24" height="24" viewBox="0 0 24 24" fill="none" xmlns="http://www.w3.org/2000/svg">
<path d="M15.222 6.5498H5.78195C5.50195 6.5498 5.24195 6.5598 5.00195 6.5698C2.63195 6.7098 2.00195 7.5798 2.00195 10.2798V10.8598C2.00195 11.4098 2.45195 11.8598 3.00195 11.8598H18.002C18.552 11.8598 19.002 11.4098 19.002 10.8598V10.2798C19.002 7.2998 18.242 6.5498 15.222 6.5498Z" fill="#0E1117"/>
<path d="M3.00195 13.3599C2.45195 13.3599 2.00195 13.8099 2.00195 14.3599V17.2699C2.00195 20.2499 2.76195 20.9999 5.78195 20.9999H15.222C18.192 20.9999 18.972 20.2799 19.002 17.4299V14.3599C19.002 13.8099 18.552 13.3599 18.002 13.3599H3.00195ZM6.96195 18.5599H5.25195C4.84195 18.5599 4.50195 18.2199 4.50195 17.8099C4.50195 17.3999 4.84195 17.0599 5.25195 17.0599H6.97195C7.38195 17.0599 7.72195 17.3999 7.72195 17.8099C7.72195 18.2199 7.38195 18.5599 6.96195 18.5599ZM12.552 18.5599H9.11195C8.70195 18.5599 8.36195 18.2199 8.36195 17.8099C8.36195 17.3999 8.70195 17.0599 9.11195 17.0599H12.552C12.962 17.0599 13.302 17.3999 13.302 17.8099C13.302 18.2199 12.972 18.5599 12.552 18.5599Z" fill="#0E1117"/>
<path d="M22.0021 13.3301V8.0901C22.0021 4.9601 20.2121 3.6001 17.5121 3.6001H8.58206C7.82206 3.6001 7.14206 3.7101 6.54206 3.9401C6.07206 4.1101 5.65206 4.3601 5.31206 4.6901C5.13206 4.8601 5.27206 5.1401 5.53206 5.1401H16.4021C18.6521 5.1401 20.4721 6.9601 20.4721 9.2101V16.3801C20.4721 16.6301 20.7421 16.7701 20.9221 16.5901C21.6121 15.8601 22.0021 14.7901 22.0021 13.3301Z" fill="#0E1117"/>
</svg>
