<svg width="24" height="24" viewBox="0 0 24 24" fill="none" xmlns="http://www.w3.org/2000/svg">
<path d="M12 2C9.38 2 7.25 4.13 7.25 6.75C7.25 9.32 9.26 11.4 11.88 11.49C11.96 11.48 12.04 11.48 12.1 11.49C12.12 11.49 12.13 11.49 12.15 11.49C12.16 11.49 12.16 11.49 12.17 11.49C14.73 11.4 16.74 9.32 16.75 6.75C16.75 4.13 14.62 2 12 2Z" fill="#0E1117"/>
<path opacity="0.4" d="M17.08 14.1499C14.29 12.2899 9.73996 12.2899 6.92996 14.1499C5.65996 14.9999 4.95996 16.1499 4.95996 17.3799C4.95996 18.6099 5.65996 19.7499 6.91996 20.5899C8.31996 21.5299 10.16 21.9999 12 21.9999C13.84 21.9999 15.68 21.5299 17.08 20.5899C18.34 19.7399 19.04 18.5999 19.04 17.3599C19.03 16.1299 18.34 14.9899 17.08 14.1499Z" fill="#0E1117"/>
<path d="M13.0603 17.3802L13.9403 16.5002C14.2303 16.2102 14.2303 15.7302 13.9403 15.4402C13.6503 15.1502 13.1703 15.1502 12.8803 15.4402L12.0003 16.3202L11.1203 15.4402C10.8303 15.1502 10.3503 15.1502 10.0603 15.4402C9.77027 15.7302 9.77027 16.2102 10.0603 16.5002L10.9403 17.3802L10.0603 18.2602C9.77027 18.5502 9.77027 19.0302 10.0603 19.3202C10.2103 19.4702 10.4003 19.5402 10.5903 19.5402C10.7803 19.5402 10.9703 19.4702 11.1203 19.3202L12.0003 18.4402L12.8803 19.3202C13.0303 19.4702 13.2203 19.5402 13.4103 19.5402C13.6003 19.5402 13.7903 19.4702 13.9403 19.3202C14.2303 19.0302 14.2303 18.5502 13.9403 18.2602L13.0603 17.3802Z" fill="#0E1117"/>
</svg>
