<svg width="24" height="24" viewBox="0 0 24 24" fill="none" xmlns="http://www.w3.org/2000/svg">
<path d="M12.3801 16.9201H10.0901C9.68013 16.9201 9.34013 16.5801 9.34013 16.1701C9.34013 15.7601 9.68013 15.4201 10.0901 15.4201H12.3801C12.8101 15.4201 13.1601 15.0701 13.1601 14.6401C13.1601 14.2101 12.8101 13.8601 12.3801 13.8601H10.0901C9.85013 13.8601 9.62013 13.7401 9.48013 13.5501C9.34013 13.3601 9.30013 13.1001 9.38013 12.8701L10.1401 10.5801C10.2401 10.2701 10.5301 10.0701 10.8501 10.0701H13.9101C14.3201 10.0701 14.6601 10.4101 14.6601 10.8201C14.6601 11.2301 14.3201 11.5701 13.9101 11.5701H11.3901L11.1301 12.3601H12.3801C13.6401 12.3601 14.6601 13.3801 14.6601 14.6401C14.6601 15.9001 13.6401 16.9201 12.3801 16.9201Z" fill="#0E1117"/>
<path d="M12.0001 3.47994C11.9201 3.47994 11.8401 3.48994 11.7601 3.48994L12.5801 2.46994C12.8401 2.14994 12.7901 1.66994 12.4601 1.41994C12.1301 1.16994 11.6701 1.20994 11.4101 1.53994L9.4401 3.99994C9.4301 4.00994 9.4301 4.01994 9.4201 4.03994C9.3901 4.07994 9.3701 4.12994 9.3501 4.16994C9.3301 4.21994 9.3101 4.25994 9.3001 4.29994C9.2901 4.34994 9.2901 4.38994 9.2901 4.43994C9.2901 4.48994 9.2901 4.53994 9.2901 4.58994C9.2901 4.60994 9.2901 4.61994 9.2901 4.63994C9.3001 4.66994 9.3201 4.68994 9.3301 4.71994C9.3501 4.76994 9.3701 4.80994 9.3901 4.85994C9.4201 4.89994 9.4501 4.93994 9.4901 4.96994C9.5101 4.99994 9.5201 5.02994 9.5501 5.04994C9.5701 5.05994 9.5801 5.06994 9.6001 5.07994C9.6301 5.09994 9.6501 5.10994 9.6801 5.11994C9.7301 5.14994 9.7901 5.16994 9.8501 5.17994C9.8801 5.19994 9.9101 5.19994 9.9401 5.19994C9.9701 5.19994 9.9901 5.20994 10.0201 5.20994C10.0501 5.20994 10.0701 5.19994 10.0901 5.18994C10.1201 5.18994 10.1501 5.19994 10.1801 5.18994C10.8201 5.03994 11.4201 4.96994 11.9901 4.96994C16.4801 4.96994 20.1301 8.61994 20.1301 13.1099C20.1301 17.5999 16.4801 21.2499 11.9901 21.2499C7.5001 21.2499 3.8501 17.5999 3.8501 13.1099C3.8501 11.3699 4.4201 9.68994 5.5001 8.24994C5.7501 7.91994 5.6801 7.44994 5.3501 7.19994C5.0201 6.94994 4.5501 7.01994 4.3001 7.34994C3.0201 9.04994 2.3501 11.0399 2.3501 13.1099C2.3501 18.4199 6.6701 22.7499 11.9901 22.7499C17.3101 22.7499 21.6301 18.4299 21.6301 13.1099C21.6301 7.78994 17.3101 3.47994 12.0001 3.47994Z" fill="#0E1117"/>
</svg>
