<svg width="24" height="24" viewBox="0 0 24 24" fill="none" xmlns="http://www.w3.org/2000/svg">
<path d="M21.6799 16.9599L18.5499 9.64988C17.4899 7.16988 15.5399 7.06988 14.2299 9.42988L12.3399 12.8399C11.3799 14.5699 9.58993 14.7199 8.34993 13.1699L8.12993 12.8899C6.83993 11.2699 5.01993 11.4699 4.08993 13.3199L2.36993 16.7699C1.15993 19.1699 2.90993 21.9999 5.58993 21.9999H18.3499C20.9499 21.9999 22.6999 19.3499 21.6799 16.9599Z" stroke="#0E1117" stroke-width="1.5" stroke-linecap="round" stroke-linejoin="round"/>
<path d="M6.97021 8C8.62707 8 9.97021 6.65685 9.97021 5C9.97021 3.34315 8.62707 2 6.97021 2C5.31336 2 3.97021 3.34315 3.97021 5C3.97021 6.65685 5.31336 8 6.97021 8Z" stroke="#0E1117" stroke-width="1.5" stroke-linecap="round" stroke-linejoin="round"/>
</svg>
