<svg width="24" height="24" viewBox="0 0 24 24" fill="none" xmlns="http://www.w3.org/2000/svg">
<path d="M1.70195 20.24C1.71195 20.23 1.71195 20.22 1.71195 20.22L7.21195 14.72C7.22195 14.71 7.23195 14.71 7.24195 14.7C6.61195 14.26 5.84195 14 5.00195 14C2.79195 14 1.00195 15.79 1.00195 18C1.00195 18.75 1.21195 19.46 1.58195 20.06C1.62195 20.12 1.66195 20.18 1.70195 20.24Z" fill="#0E1117"/>
<path d="M8.30195 15.75C8.29195 15.76 8.29195 15.77 8.28195 15.78L2.78195 21.28C2.77195 21.29 2.76195 21.29 2.75195 21.3C3.39195 21.74 4.16195 22 5.00195 22C6.46195 22 7.73195 21.22 8.42195 20.06C8.79195 19.46 9.00195 18.75 9.00195 18C9.00195 17.16 8.74195 16.39 8.30195 15.75Z" fill="#0E1117"/>
<path d="M17.002 4H7.00195C4.00195 4 2.00195 5.5 2.00195 9V12.56C2.00195 12.93 2.38195 13.16 2.71195 13.01C3.69195 12.56 4.82195 12.39 6.01195 12.6C8.64195 13.07 10.572 15.51 10.502 18.18C10.492 18.6 10.432 19.01 10.322 19.41C10.242 19.72 10.492 20.01 10.812 20.01H17.002C20.002 20.01 22.002 18.51 22.002 15.01V9C22.002 5.5 20.002 4 17.002 4ZM12.002 14.5C10.622 14.5 9.50195 13.38 9.50195 12C9.50195 10.62 10.622 9.5 12.002 9.5C13.382 9.5 14.502 10.62 14.502 12C14.502 13.38 13.382 14.5 12.002 14.5ZM19.252 14C19.252 14.41 18.912 14.75 18.502 14.75C18.092 14.75 17.752 14.41 17.752 14V10C17.752 9.59 18.092 9.25 18.502 9.25C18.912 9.25 19.252 9.59 19.252 10V14Z" fill="#0E1117"/>
</svg>
