<svg width="24" height="24" viewBox="0 0 24 24" fill="none" xmlns="http://www.w3.org/2000/svg">
<path opacity="0.4" d="M10.07 2.81984L3.14004 8.36983C2.36004 8.98983 1.86002 10.2999 2.03002 11.2799L3.36001 19.2398C3.60001 20.6598 4.96002 21.8098 6.40002 21.8098H17.6C19.03 21.8098 20.4 20.6498 20.64 19.2398L21.97 11.2799C22.13 10.2999 21.63 8.98983 20.86 8.36983L13.93 2.82985C12.86 1.96985 11.13 1.96984 10.07 2.81984Z" fill="#0E1117"/>
<path d="M14.1198 15.1296C13.9298 15.1296 13.7498 15.0596 13.5998 14.9196C12.6298 13.9896 11.3698 13.9896 10.3898 14.9196C10.0898 15.2096 9.61979 15.1997 9.32979 14.8997C9.03979 14.5997 9.04981 14.1297 9.34981 13.8397C10.8998 12.3497 13.0698 12.3497 14.6298 13.8397C14.9298 14.1297 14.9398 14.5997 14.6498 14.8997C14.5198 15.0497 14.3198 15.1296 14.1198 15.1296Z" fill="#0E1117"/>
<path d="M16.2399 13.0098C16.0499 13.0098 15.8599 12.9398 15.7199 12.7998C15.2499 12.3398 14.7199 11.9698 14.1599 11.6998C12.7599 11.0298 11.2299 11.0298 9.83988 11.6998C9.27988 11.9698 8.75988 12.3398 8.27988 12.7998C7.98988 13.0898 7.50988 13.0898 7.21988 12.7898C6.92988 12.4898 6.93989 12.0198 7.22989 11.7298C7.81989 11.1498 8.47989 10.6898 9.18989 10.3498C10.9999 9.47977 12.9999 9.47977 14.7999 10.3498C15.5099 10.6898 16.1699 11.1498 16.7599 11.7298C17.0599 12.0198 17.0599 12.4898 16.7699 12.7898C16.6299 12.9298 16.4399 13.0098 16.2399 13.0098Z" fill="#0E1117"/>
<path d="M11.9998 17.4998C11.7398 17.4998 11.4898 17.3999 11.2898 17.2099C10.8998 16.8199 10.8998 16.1898 11.2898 15.7998C11.6798 15.4098 12.3198 15.4098 12.7098 15.7998C13.0998 16.1898 13.0998 16.8199 12.7098 17.2099C12.5098 17.3999 12.2598 17.4998 11.9998 17.4998Z" fill="#0E1117"/>
</svg>
