<svg width="24" height="24" viewBox="0 0 24 24" fill="none" xmlns="http://www.w3.org/2000/svg">
<path d="M18.8813 3.75H9.62135C9.21135 3.75 8.88135 3.41 8.88135 3C8.88135 2.59 9.22135 2.25 9.63135 2.25H18.8813C19.2913 2.25 19.6313 2.59 19.6313 3C19.6313 3.41 19.2913 3.75 18.8813 3.75Z" fill="#0E1117"/>
<path d="M14.3816 21.75H5.12158C4.71158 21.75 4.37158 21.41 4.37158 21C4.37158 20.59 4.71158 20.25 5.12158 20.25H14.3716C14.7816 20.25 15.1216 20.59 15.1216 21C15.1216 21.41 14.7916 21.75 14.3816 21.75Z" fill="#0E1117"/>
<path d="M9.75156 21.7501C9.69156 21.7501 9.63156 21.7401 9.57156 21.7301C9.17156 21.6301 8.92156 21.2201 9.02156 20.8201L13.5216 2.8201C13.6216 2.4201 14.0216 2.1701 14.4316 2.2701C14.8316 2.3701 15.0816 2.7801 14.9816 3.1801L10.4816 21.1801C10.3916 21.5201 10.0916 21.7501 9.75156 21.7501Z" fill="#0E1117"/>
</svg>
