<svg width="24" height="24" viewBox="0 0 24 24" fill="none" xmlns="http://www.w3.org/2000/svg">
<path d="M6.36 7.77979H2V11.2498H6.36V7.77979Z" fill="#0E1117"/>
<path d="M6.3599 6.28988V2.12988C4.0799 2.54988 2.5899 4.01988 2.1499 6.27988H6.3299C6.3399 6.27988 6.3499 6.28988 6.3599 6.28988Z" fill="#0E1117"/>
<path d="M6.36 16.31V12.75H2V16.28H6.24C6.28 16.28 6.32 16.3 6.36 16.31Z" fill="#0E1117"/>
<path d="M21.8499 6.28018C21.4199 4.09018 20.0199 2.65018 17.8599 2.18018V6.28018H21.8499Z" fill="#0E1117"/>
<path d="M16.3599 11.25V2.01C16.3099 2 16.2499 2 16.1899 2H7.85986V11.25H16.3599Z" fill="#0E1117"/>
<path d="M21.9999 12.75H17.8599V16.28H21.9999V12.75Z" fill="#0E1117"/>
<path d="M17.8599 21.8198C19.9999 21.3498 21.3999 19.9298 21.8399 17.7798H17.8599V21.8198Z" fill="#0E1117"/>
<path d="M6.24016 17.7798H2.16016C2.62016 19.9998 4.10016 21.4498 6.36016 21.8698V17.7598C6.32016 17.7698 6.28016 17.7798 6.24016 17.7798Z" fill="#0E1117"/>
<path d="M21.9999 7.77979H17.8599V11.2498H21.9999V7.77979Z" fill="#0E1117"/>
<path d="M7.85986 12.75V22H16.1899C16.2499 22 16.3099 22 16.3599 21.99V12.75H7.85986Z" fill="#0E1117"/>
</svg>
