<svg width="24" height="24" viewBox="0 0 24 24" fill="none" xmlns="http://www.w3.org/2000/svg">
<path d="M19.43 7.75984C20.19 7.34984 20.19 6.17984 19.43 5.76984L12.92 2.25984C12.34 1.94984 11.66 1.94984 11.08 2.25984L4.57 5.76984C3.81 6.17984 3.81 7.34984 4.57 7.75984L11.08 11.2698C11.66 11.5798 12.34 11.5798 12.92 11.2698L15.26 10.0098" stroke="#0E1117" stroke-width="1.5" stroke-linecap="round" stroke-linejoin="round"/>
<path d="M2 11.1202C2 10.2902 2.87 9.76017 3.61 10.1302L9.66 13.1602C10.41 13.5402 10.89 14.3102 10.89 15.1502V20.8702C10.89 21.7002 10.02 22.2302 9.28 21.8602L3.23 18.8302C2.48 18.4502 2 17.6802 2 16.8402V14.9602" stroke="#0E1117" stroke-width="1.5" stroke-linecap="round" stroke-linejoin="round"/>
<path d="M20.3901 10.1302L14.3401 13.1602C13.5901 13.5402 13.1101 14.3102 13.1101 15.1502V20.8702C13.1101 21.7002 13.9801 22.2302 14.7201 21.8602L20.7701 18.8302C21.5201 18.4502 22.0001 17.6802 22.0001 16.8402V11.1202C22.0001 10.2902 21.1301 9.76017 20.3901 10.1302Z" stroke="#0E1117" stroke-width="1.5" stroke-linecap="round" stroke-linejoin="round"/>
</svg>
