<svg width="24" height="24" viewBox="0 0 24 24" fill="none" xmlns="http://www.w3.org/2000/svg">
<path d="M9.00146 22H15.0015C20.0015 22 22.0015 20 22.0015 15V9C22.0015 4 20.0015 2 15.0015 2H9.00146C4.00146 2 2.00146 4 2.00146 9V15C2.00146 20 4.00146 22 9.00146 22Z" stroke="#0E1117" stroke-width="1.5" stroke-linecap="round" stroke-linejoin="round"/>
<path d="M6.99141 15.0798L8.93139 17.0198C9.57139 17.6598 10.6314 17.6598 11.2714 17.0198L17.0214 11.2698C17.6614 10.6298 17.6614 9.56975 17.0214 8.92975L15.0814 6.98977C14.4414 6.34977 13.3814 6.34977 12.7414 6.98977L6.99141 12.7398C6.34141 13.3798 6.34141 14.4298 6.99141 15.0798Z" stroke="#0E1117" stroke-width="1.5" stroke-linecap="round" stroke-linejoin="round"/>
<path d="M9.31152 10.4199L13.5815 14.6899" stroke="#0E1117" stroke-width="1.5" stroke-linecap="round" stroke-linejoin="round"/>
</svg>
