<svg width="24" height="24" viewBox="0 0 24 24" fill="none" xmlns="http://www.w3.org/2000/svg">
<path d="M7.80145 21.4698H4.58148C2.75148 21.4698 1.25146 19.9798 1.25146 18.1398V12.3398C1.25146 11.9298 1.59146 11.5898 2.00146 11.5898H7.80145C9.70145 11.5898 11.1315 13.0198 11.1315 14.9198V18.1398C11.1215 20.0398 9.69145 21.4698 7.80145 21.4698ZM2.75146 13.0998V18.1498C2.75146 19.1598 3.57148 19.9798 4.58148 19.9798H7.80145C8.86145 19.9798 9.63147 19.2098 9.63147 18.1498V14.9298C9.63147 13.8698 8.86145 13.0998 7.80145 13.0998H2.75146Z" fill="#0E1117"/>
<path d="M2.00146 13.0998C1.59146 13.0998 1.25146 12.7598 1.25146 12.3498C1.25146 6.0998 2.52149 4.78984 6.15149 2.63984C6.51149 2.42984 6.97146 2.54985 7.18146 2.89985C7.39146 3.25985 7.27145 3.71982 6.92145 3.92982C3.68145 5.84981 2.75146 6.6498 2.75146 12.3498C2.75146 12.7598 2.41146 13.0998 2.00146 13.0998Z" fill="#0E1117"/>
<path d="M19.4216 21.4698H16.2016C14.3716 21.4698 12.8716 19.9798 12.8716 18.1398V12.3398C12.8716 11.9298 13.2116 11.5898 13.6216 11.5898H19.4216C21.3216 11.5898 22.7516 13.0198 22.7516 14.9198V18.1398C22.7516 20.0398 21.3216 21.4698 19.4216 21.4698ZM14.3816 13.0998V18.1498C14.3816 19.1598 15.2016 19.9798 16.2116 19.9798H19.4316C20.4916 19.9798 21.2616 19.2098 21.2616 18.1498V14.9298C21.2616 13.8698 20.4916 13.0998 19.4316 13.0998H14.3816Z" fill="#0E1117"/>
<path d="M13.6313 13.0998C13.2213 13.0998 12.8813 12.7598 12.8813 12.3498C12.8813 6.0998 14.1514 4.78984 17.7814 2.63984C18.1414 2.42984 18.6013 2.54985 18.8113 2.89985C19.0213 3.25985 18.9013 3.71982 18.5513 3.92982C15.3113 5.84981 14.3813 6.6498 14.3813 12.3498C14.3813 12.7598 14.0413 13.0998 13.6313 13.0998Z" fill="#0E1117"/>
</svg>
