<svg width="24" height="24" viewBox="0 0 24 24" fill="none" xmlns="http://www.w3.org/2000/svg">
<path d="M12.0706 21.9798C10.6606 21.9798 9.24058 21.4398 8.17058 20.3698L3.64058 15.8398C2.54058 14.7398 1.96058 13.2198 2.03058 11.6698L2.27058 6.65983C2.38058 4.26983 4.27058 2.37983 6.67058 2.25983L11.6706 2.01983C13.2306 1.94983 14.7406 2.52983 15.8406 3.62983L20.3706 8.15983C22.5206 10.3098 22.5206 13.8198 20.3706 15.9698L15.9806 20.3598C14.9006 21.4398 13.4906 21.9798 12.0706 21.9798ZM4.70058 14.7698L9.23058 19.2998C10.8006 20.8698 13.3506 20.8698 14.9206 19.2998L19.3106 14.9098C20.8806 13.3398 20.8806 10.7898 19.3106 9.21983L14.7706 4.69983C13.9706 3.89983 12.8806 3.47983 11.7306 3.52983L6.73058 3.76983C5.11058 3.83983 3.84058 5.10983 3.76058 6.72983L3.52058 11.7398C3.47058 12.8598 3.90058 13.9698 4.70058 14.7698Z" fill="#0E1117"/>
<path d="M9.50049 12.75C7.71049 12.75 6.25049 11.29 6.25049 9.5C6.25049 7.71 7.71049 6.25 9.50049 6.25C11.2905 6.25 12.7505 7.71 12.7505 9.5C12.7505 11.29 11.2905 12.75 9.50049 12.75ZM9.50049 7.75C8.54049 7.75 7.75049 8.54 7.75049 9.5C7.75049 10.46 8.54049 11.25 9.50049 11.25C10.4605 11.25 11.2505 10.46 11.2505 9.5C11.2505 8.54 10.4605 7.75 9.50049 7.75Z" fill="#0E1117"/>
<path d="M13.0004 17.7499C12.8104 17.7499 12.6204 17.6799 12.4704 17.5299C12.1804 17.2399 12.1804 16.7599 12.4704 16.4699L16.4704 12.4699C16.7604 12.1799 17.2404 12.1799 17.5304 12.4699C17.8204 12.7599 17.8204 13.2399 17.5304 13.5299L13.5304 17.5299C13.3804 17.6799 13.1904 17.7499 13.0004 17.7499Z" fill="#0E1117"/>
</svg>
