<svg width="24" height="24" viewBox="0 0 24 24" fill="none" xmlns="http://www.w3.org/2000/svg">
<path d="M23.0001 17.5601V15.37C23.0001 14.95 22.6901 14.49 22.3101 14.33L20.5201 13.6L19.5201 13.1899C18.8901 12.9399 18.1901 12.9399 17.5601 13.1899L14.7801 14.33C14.4001 14.49 14.0901 14.95 14.0901 15.37V17.5601C14.0901 18.8101 14.5501 20.02 15.3401 21C16.0701 21.93 17.1101 22.65 18.2901 22.97C18.4501 23.01 18.6301 23.01 18.8001 22.97C19.7901 22.7 20.6701 22.1499 21.3601 21.4399" stroke="#0E1117" stroke-width="1.5" stroke-linecap="round" stroke-linejoin="round"/>
<path d="M2.03004 11.0103C1.87004 10.0803 2.34002 8.83028 3.08002 8.24028L9.66004 2.98027C10.67 2.17027 12.31 2.17028 13.32 2.99028L19.9 8.24028C20.63 8.83028 21.1101 10.0803 20.9501 11.0103L20.52 13.6003L19.52 13.1902C18.89 12.9402 18.19 12.9402 17.56 13.1902L14.78 14.3302C14.4 14.4902 14.09 14.9503 14.09 15.3703V17.5604C14.09 18.8104 14.55 20.0203 15.34 21.0003H6.18003C4.81003 21.0003 3.52005 19.9104 3.29005 18.5604L2.74003 15.2403" stroke="#0E1117" stroke-width="1.5" stroke-linecap="round" stroke-linejoin="round"/>
</svg>
