<svg width="24" height="24" viewBox="0 0 24 24" fill="none" xmlns="http://www.w3.org/2000/svg">
<path d="M19.6302 7.23991C19.9302 7.70991 19.7702 8.33991 19.2902 8.62991L18.7002 8.97991L5.59016 16.8399C5.11016 17.1299 4.48016 16.9699 4.20016 16.4799C3.20016 14.7399 2.75016 12.6199 3.14016 10.3999C3.80016 6.62991 6.90016 3.62991 10.6902 3.08991C14.4402 2.55991 17.8302 4.35991 19.6302 7.23991Z" fill="#0E1117"/>
<path d="M20.8902 13.4298C20.2101 17.6798 16.4502 20.9298 12.1402 20.9998C10.2402 21.0298 8.48015 20.4798 7.02015 19.4898C6.40015 19.0798 6.42015 18.1598 7.06015 17.7798L19.4701 10.4898C20.1201 10.1098 20.9201 10.5498 20.9802 11.2998C21.0302 11.9998 21.0001 12.7098 20.8902 13.4298Z" fill="#0E1117"/>
</svg>
