<svg width="24" height="24" viewBox="0 0 24 24" fill="none" xmlns="http://www.w3.org/2000/svg">
<path d="M20.42 8.99998C20.28 8.98998 20.1 8.97998 19.9 8.97998C19.51 8.97998 19.2 9.28998 19.2 9.67998V14.33C19.2 14.72 19.51 15.03 19.9 15.03C20.1 15.03 20.27 15.02 20.44 15.01C22 14.83 22 13.73 22 12.93V11.07C22 10.27 22 9.16998 20.42 8.99998Z" fill="#0E1117"/>
<path opacity="0.4" d="M14.5 4.87004L5.52 19.09C2.87 18.71 2 17.27 2 13.86V10.14C2 6.04004 3.25 4.79004 7.35 4.79004H12.93C13.51 4.79004 14.03 4.81004 14.5 4.87004Z" fill="#0E1117"/>
<path opacity="0.4" d="M18.28 10.1401V13.8601C18.28 16.8101 15.88 19.2101 12.93 19.2101H7.44995L16.23 5.31006C17.75 6.00006 18.28 7.46006 18.28 10.1401Z" fill="#0E1117"/>
<path d="M3.99991 22.2501C3.85991 22.2501 3.71991 22.2101 3.59991 22.1301C3.24991 21.9101 3.13991 21.4501 3.36991 21.1001L15.3699 2.10012C15.5899 1.75012 16.0599 1.65012 16.3999 1.87012C16.7499 2.09012 16.8599 2.55012 16.6299 2.90012L4.62991 21.9001C4.48991 22.1301 4.24991 22.2501 3.99991 22.2501Z" fill="#0E1117"/>
</svg>
