<svg width="24" height="24" viewBox="0 0 24 24" fill="none" xmlns="http://www.w3.org/2000/svg">
<path d="M11.9419 2.20983L9.5319 7.81983H7.1219C6.7219 7.81983 6.3319 7.84983 5.9519 7.92983L6.9519 5.52983L6.9919 5.43983L7.0519 5.27983C7.0819 5.20983 7.1019 5.14983 7.1319 5.09983C8.2919 2.40983 9.5919 1.56983 11.9419 2.20983Z" fill="#0E1117"/>
<path d="M18.7321 8.09002L18.7121 8.08002C18.1121 7.91002 17.5021 7.82002 16.8821 7.82002H10.6221L12.8721 2.59002L12.9021 2.52002C13.0421 2.57002 13.1921 2.64002 13.3421 2.69002L15.5521 3.62002C16.7821 4.13002 17.6421 4.66002 18.1721 5.30002C18.2621 5.42002 18.3421 5.53002 18.4221 5.66002C18.5121 5.80002 18.5821 5.94002 18.6221 6.09002C18.6621 6.18002 18.6921 6.26002 18.7121 6.35002C18.8621 6.86002 18.8721 7.44002 18.7321 8.09002Z" fill="#0E1117"/>
<path d="M12.522 17.6601H12.772C13.072 17.6601 13.322 17.3901 13.322 17.0601C13.322 16.6401 13.202 16.5801 12.942 16.4801L12.522 16.3301V17.6601Z" fill="#0E1117"/>
<path d="M18.2919 9.51982C17.8419 9.38982 17.3719 9.31982 16.8819 9.31982H7.12194C6.44194 9.31982 5.80194 9.44982 5.20194 9.70982C3.46194 10.4598 2.24194 12.1898 2.24194 14.1998V16.1498C2.24194 16.3898 2.26194 16.6198 2.29194 16.8598C2.51194 20.0398 4.21194 21.7398 7.39194 21.9498C7.62194 21.9798 7.85194 21.9998 8.10194 21.9998H15.9019C19.6019 21.9998 21.5519 20.2398 21.7419 16.7398C21.7519 16.5498 21.7619 16.3498 21.7619 16.1498V14.1998C21.7619 11.9898 20.2919 10.1298 18.2919 9.51982ZM13.2819 15.4998C13.7419 15.6598 14.3619 15.9998 14.3619 17.0598C14.3619 17.9698 13.6519 18.6998 12.7719 18.6998H12.5219V18.9198C12.5219 19.2098 12.2919 19.4398 12.0019 19.4398C11.7119 19.4398 11.4819 19.2098 11.4819 18.9198V18.6998H11.3919C10.4319 18.6998 9.64194 17.8898 9.64194 16.8898C9.64194 16.5998 9.87194 16.3698 10.1619 16.3698C10.4519 16.3698 10.6819 16.5998 10.6819 16.8898C10.6819 17.3098 11.0019 17.6598 11.3919 17.6598H11.4819V15.9698L10.7219 15.6998C10.2619 15.5398 9.64194 15.1998 9.64194 14.1398C9.64194 13.2298 10.3519 12.4998 11.2319 12.4998H11.4819V12.2798C11.4819 11.9898 11.7119 11.7598 12.0019 11.7598C12.2919 11.7598 12.5219 11.9898 12.5219 12.2798V12.4998H12.6119C13.5719 12.4998 14.3619 13.3098 14.3619 14.3098C14.3619 14.5998 14.1319 14.8298 13.8419 14.8298C13.5519 14.8298 13.3219 14.5998 13.3219 14.3098C13.3219 13.8898 13.0019 13.5398 12.6119 13.5398H12.5219V15.2298L13.2819 15.4998Z" fill="#0E1117"/>
<path d="M10.6819 14.14C10.6819 14.56 10.8019 14.62 11.0619 14.72L11.4819 14.87V13.54H11.2319C10.9219 13.54 10.6819 13.81 10.6819 14.14Z" fill="#0E1117"/>
</svg>
