<svg width="24" height="24" viewBox="0 0 24 24" fill="none" xmlns="http://www.w3.org/2000/svg">
<path d="M8.25913 21.2458C8.9061 20.5988 9.27777 19.7729 9.37413 18.9194C9.5049 17.7838 9.12635 16.6068 8.25913 15.7396C7.74293 15.2234 7.10972 14.8793 6.4421 14.721C5.1688 14.3975 3.75785 14.7347 2.75297 15.7396C2.05782 16.4347 1.67927 17.3226 1.63109 18.238C1.59668 18.6303 1.63109 19.0364 1.73433 19.4287C1.89264 20.0963 2.23677 20.7296 2.75297 21.2458C4.27405 22.7668 6.73805 22.7668 8.25913 21.2458ZM6.96518 17.7769C7.36438 17.7769 7.69475 18.1072 7.69475 18.5064C7.68787 18.9125 7.36438 19.236 6.9583 19.2429L6.23562 19.236L6.2425 19.9312C6.23562 20.3372 5.91213 20.6607 5.50605 20.6676C5.09997 20.6607 4.77648 20.3372 4.7696 19.9312L4.77648 19.236L4.0538 19.2429C3.64772 19.236 3.32424 18.9125 3.31735 18.5064C3.32424 18.3068 3.40683 18.1279 3.5376 17.9971C3.66837 17.8663 3.84732 17.7838 4.04692 17.7769L4.77648 17.7769L4.77648 17.0198C4.77648 16.8133 4.85908 16.6343 4.98985 16.5036C5.12062 16.3728 5.29957 16.2902 5.50605 16.2902C5.90525 16.2902 6.23562 16.6206 6.23562 17.0198L6.23562 17.7769L6.96518 17.7769Z" fill="#0E1117"/>
<path d="M15.0952 3.84645V7.54522H13.6352V3.84645C13.6352 3.58365 13.4016 3.45711 13.2458 3.45711C13.1972 3.45711 13.1485 3.46684 13.0998 3.48631L5.38108 6.39666C4.8652 6.59133 4.53426 7.07801 4.53426 7.63283V8.28498C3.6485 8.94686 3.07422 10.0078 3.07422 11.2051V7.63283C3.07422 6.47453 3.78477 5.44277 4.8652 5.03395L12.5937 2.11387C12.8078 2.036 13.0317 1.99707 13.2458 1.99707C14.2192 1.99707 15.0952 2.78549 15.0952 3.84645Z" fill="#0E1117"/>
<path d="M21.5696 14.1161V15.0894C21.5696 15.3522 21.3651 15.5664 21.0926 15.5761H19.6715C19.1556 15.5761 18.6884 15.1965 18.6495 14.6904C18.6203 14.3886 18.7371 14.1063 18.9317 13.9117C19.107 13.7267 19.3503 13.6294 19.6131 13.6294H21.0829C21.3651 13.6391 21.5696 13.8533 21.5696 14.1161Z" fill="#0E1117"/>
<path d="M19.6019 12.6059H20.5947C21.1301 12.6059 21.5681 12.1679 21.5681 11.6325V11.2043C21.5681 9.18941 19.9231 7.54443 17.9082 7.54443H6.73405C5.9067 7.54443 5.14748 7.81697 4.53426 8.28419C3.6485 8.94607 3.07422 10.007 3.07422 11.2043V12.9368C3.07422 13.3067 3.46356 13.5403 3.81397 13.4235C4.35905 13.2386 4.93334 13.1413 5.50762 13.1413C8.4569 13.1413 10.8611 15.5455 10.8611 18.4947C10.8611 19.1956 10.6762 19.9645 10.3842 20.6459C10.2284 20.9963 10.4718 21.4148 10.8514 21.4148H17.9082C19.9231 21.4148 21.5681 19.7698 21.5681 17.755V17.57C21.5681 17.0347 21.1301 16.5967 20.5947 16.5967H19.7479C18.8135 16.5967 17.918 16.0224 17.6746 15.1172C17.4799 14.3774 17.7136 13.6571 18.2002 13.1899C18.5604 12.82 19.0568 12.6059 19.6019 12.6059ZM14.2679 12.4112H9.40106C9.00198 12.4112 8.67104 12.0803 8.67104 11.6812C8.67104 11.2821 9.00198 10.9512 9.40106 10.9512H14.2679C14.6669 10.9512 14.9979 11.2821 14.9979 11.6812C14.9979 12.0803 14.6669 12.4112 14.2679 12.4112Z" fill="#0E1117"/>
</svg>
