<svg width="24" height="24" viewBox="0 0 24 24" fill="none" xmlns="http://www.w3.org/2000/svg">
<path d="M15.2395 22.27H15.1095C10.6695 22.27 8.52953 20.52 8.15953 16.6C8.11953 16.19 8.41953 15.82 8.83953 15.78C9.24953 15.74 9.61953 16.05 9.65953 16.46C9.94953 19.6 11.4295 20.77 15.1195 20.77H15.2495C19.3195 20.77 20.7595 19.33 20.7595 15.26V8.73998C20.7595 4.66998 19.3195 3.22998 15.2495 3.22998H15.1195C11.4095 3.22998 9.92953 4.41998 9.65953 7.61998C9.60953 8.02998 9.26953 8.33998 8.83953 8.29998C8.41953 8.26998 8.11953 7.89998 8.14953 7.48998C8.48953 3.50998 10.6395 1.72998 15.1095 1.72998H15.2395C20.1495 1.72998 22.2495 3.82998 22.2495 8.73998V15.26C22.2495 20.17 20.1495 22.27 15.2395 22.27Z" fill="#0E1117"/>
<path d="M14.88 12.75H2C1.59 12.75 1.25 12.41 1.25 12C1.25 11.59 1.59 11.25 2 11.25H14.88C15.29 11.25 15.63 11.59 15.63 12C15.63 12.41 15.3 12.75 14.88 12.75Z" fill="#0E1117"/>
<path d="M12.6498 16.0998C12.4598 16.0998 12.2698 16.0298 12.1198 15.8798C11.8298 15.5898 11.8298 15.1098 12.1198 14.8198L14.9398 11.9998L12.1198 9.17984C11.8298 8.88984 11.8298 8.40984 12.1198 8.11984C12.4098 7.82984 12.8898 7.82984 13.1798 8.11984L16.5298 11.4698C16.8198 11.7598 16.8198 12.2398 16.5298 12.5298L13.1798 15.8798C13.0298 16.0298 12.8398 16.0998 12.6498 16.0998Z" fill="#0E1117"/>
</svg>
