<svg width="24" height="24" viewBox="0 0 24 24" fill="none" xmlns="http://www.w3.org/2000/svg">
<path d="M19.0612 18.6699L16.9212 14.3999L14.7812 18.6699" stroke="#0E1117" stroke-width="1.5" stroke-linecap="round" stroke-linejoin="round"/>
<path d="M15.1714 17.9102H18.6914" stroke="#0E1117" stroke-width="1.5" stroke-linecap="round" stroke-linejoin="round"/>
<path d="M19.9216 21.0198C19.0816 21.6298 18.0515 21.9998 16.9315 21.9998C14.1315 21.9998 11.8516 19.7298 11.8516 16.9198C11.8516 14.1198 14.1215 11.8398 16.9315 11.8398C19.7315 11.8398 22.0116 14.1098 22.0116 16.9198" stroke="#0E1117" stroke-width="1.5" stroke-linecap="round" stroke-linejoin="round"/>
<path d="M11.9515 8.93024C12.0015 11.0002 11.0015 12.0003 8.93146 11.9503H5.01146C3.00146 12.0003 2.00146 11.0002 2.00146 8.93024V5.01025C2.00146 2.99025 3.00147 1.99023 5.02147 1.99023H8.94147C11.0115 1.99023 12.0115 2.99025 11.9615 5.01025" stroke="#0E1117" stroke-width="1.5" stroke-linecap="round" stroke-linejoin="round"/>
<path d="M9.01117 5.8501H4.95117" stroke="#0E1117" stroke-width="1.5" stroke-linecap="round" stroke-linejoin="round"/>
<path d="M6.97119 5.16992V5.84991" stroke="#0E1117" stroke-width="1.5" stroke-linecap="round" stroke-linejoin="round"/>
<path d="M7.99141 5.83984C7.99141 7.58984 6.62141 9.00983 4.94141 9.00983" stroke="#0E1117" stroke-width="1.5" stroke-linecap="round" stroke-linejoin="round"/>
<path d="M9.01161 9.01001C8.28161 9.01001 7.62162 8.62 7.16162 8" stroke="#0E1117" stroke-width="1.5" stroke-linecap="round" stroke-linejoin="round"/>
<path d="M2.00146 15C2.00146 18.87 5.13146 22 9.00146 22L7.95146 20.25" stroke="#0E1117" stroke-width="1.5" stroke-linecap="round" stroke-linejoin="round"/>
<path d="M22.0015 9C22.0015 5.13 18.8715 2 15.0015 2L16.0515 3.75" stroke="#0E1117" stroke-width="1.5" stroke-linecap="round" stroke-linejoin="round"/>
</svg>
