<svg width="24" height="24" viewBox="0 0 24 24" fill="none" xmlns="http://www.w3.org/2000/svg">
<path d="M13.1901 16.29H10.8101V17.71H13.1901V16.29Z" fill="#0E1117"/>
<path d="M7.95001 2.71C7.95001 3.11 7.63001 3.43 7.24001 3.43H6.29001C4.58001 3.43 3.19001 4.82 3.19001 6.52V12.4C2.34001 12.83 1.76001 13.71 1.76001 14.73V6.52C1.76001 4.03 3.79001 2 6.29001 2H7.24001C7.63001 2 7.95001 2.32 7.95001 2.71Z" fill="#0E1117"/>
<path d="M22.24 6.52V14.73C22.24 13.71 21.66 12.83 20.81 12.4V6.52C20.81 4.82 19.42 3.43 17.71 3.43H16.76C16.37 3.43 16.05 3.11 16.05 2.71C16.05 2.32 16.37 2 16.76 2H17.71C20.21 2 22.24 4.03 22.24 6.52Z" fill="#0E1117"/>
<path opacity="0.4" d="M10.81 14.7301V19.3801C10.81 20.8301 9.63001 22.0001 8.19001 22.0001H4.38001C2.94001 22.0001 1.76001 20.8301 1.76001 19.3801V14.7301C1.76001 13.7101 2.34001 12.8301 3.19001 12.4001C3.55001 12.2101 3.95001 12.1101 4.38001 12.1101H8.19001C9.63001 12.1101 10.81 13.2801 10.81 14.7301Z" fill="#0E1117"/>
<path opacity="0.4" d="M22.2399 14.7301V19.3801C22.2399 20.8301 21.0599 22.0001 19.6199 22.0001H15.8099C14.3699 22.0001 13.1899 20.8301 13.1899 19.3801V14.7301C13.1899 13.2801 14.3699 12.1101 15.8099 12.1101H19.6199C20.0499 12.1101 20.4499 12.2101 20.8099 12.4001C21.6599 12.8301 22.2399 13.7101 22.2399 14.7301Z" fill="#0E1117"/>
</svg>
