<svg width="24" height="24" viewBox="0 0 24 24" fill="none" xmlns="http://www.w3.org/2000/svg">
<path opacity="0.4" d="M12.0015 22C17.5243 22 22.0015 17.5228 22.0015 12C22.0015 6.47715 17.5243 2 12.0015 2C6.47862 2 2.00146 6.47715 2.00146 12C2.00146 17.5228 6.47862 22 12.0015 22Z" fill="#0E1117"/>
<path d="M7.94169 15.2602C7.85169 15.2602 7.77168 15.2502 7.68168 15.2102C6.87168 14.9102 6.19168 14.3202 5.76168 13.5502C4.76168 11.7502 5.3817 9.40017 7.1317 8.31017L9.47169 6.86015C10.3317 6.33015 11.3417 6.17018 12.3017 6.42018C13.2617 6.67018 14.0717 7.30016 14.5617 8.18016C15.5617 9.98016 14.9417 12.3302 13.1917 13.4202L12.9317 13.6102C12.5917 13.8502 12.1217 13.7702 11.8817 13.4402C11.6417 13.1002 11.7217 12.6302 12.0517 12.3902L12.3617 12.1702C13.4817 11.4702 13.8617 10.0202 13.2517 8.91017C12.9617 8.39017 12.4917 8.02016 11.9317 7.87016C11.3717 7.72016 10.7817 7.81017 10.2717 8.13017L7.93168 9.58016C6.85168 10.2502 6.47169 11.7002 7.08169 12.8202C7.33169 13.2702 7.7317 13.6202 8.2117 13.8002C8.6017 13.9402 8.80168 14.3702 8.65168 14.7602C8.54168 15.0702 8.25169 15.2602 7.94169 15.2602Z" fill="#0E1117"/>
<path d="M12.6614 17.6501C12.3614 17.6501 12.0514 17.6101 11.7514 17.5301C10.7914 17.2801 9.98143 16.6501 9.50143 15.7701C8.50143 13.9701 9.12143 11.6201 10.8714 10.5301L11.1314 10.3401C11.4714 10.1001 11.9414 10.1801 12.1814 10.5101C12.4214 10.8501 12.3414 11.3201 12.0114 11.5601L11.7014 11.7801C10.5814 12.4801 10.2014 13.9301 10.8114 15.0401C11.1014 15.5601 11.5714 15.9301 12.1314 16.0801C12.6914 16.2301 13.2814 16.1401 13.7914 15.8201L16.1314 14.3701C17.2114 13.7001 17.5914 12.2501 16.9814 11.1301C16.7314 10.6801 16.3314 10.3301 15.8514 10.1501C15.4614 10.0101 15.2614 9.58011 15.4114 9.19011C15.5514 8.80011 15.9914 8.60011 16.3714 8.75011C17.1814 9.05011 17.8614 9.64012 18.2914 10.4101C19.2914 12.2101 18.6714 14.5601 16.9214 15.6501L14.5814 17.1001C13.9914 17.4601 13.3314 17.6501 12.6614 17.6501Z" fill="#0E1117"/>
</svg>
