<svg width="24" height="24" viewBox="0 0 24 24" fill="none" xmlns="http://www.w3.org/2000/svg">
<path d="M17.002 4H7.00195C4.00195 4 2.00195 5.5 2.00195 9V12.56C2.00195 12.93 2.38195 13.16 2.71195 13.01C3.69195 12.56 4.82195 12.39 6.01195 12.6C8.64195 13.07 10.572 15.51 10.502 18.18C10.492 18.6 10.432 19.01 10.322 19.41C10.242 19.72 10.492 20.01 10.812 20.01H17.002C20.002 20.01 22.002 18.51 22.002 15.01V9C22.002 5.5 20.002 4 17.002 4ZM12.002 14.5C10.622 14.5 9.50195 13.38 9.50195 12C9.50195 10.62 10.622 9.5 12.002 9.5C13.382 9.5 14.502 10.62 14.502 12C14.502 13.38 13.382 14.5 12.002 14.5ZM19.252 14C19.252 14.41 18.912 14.75 18.502 14.75C18.092 14.75 17.752 14.41 17.752 14V10C17.752 9.59 18.092 9.25 18.502 9.25C18.912 9.25 19.252 9.59 19.252 10V14Z" fill="#0E1117"/>
<path d="M5.00195 14C3.80195 14 2.73195 14.53 2.00195 15.36C1.38195 16.07 1.00195 16.99 1.00195 18C1.00195 18.75 1.21195 19.46 1.58195 20.06C2.27195 21.22 3.54195 22 5.00195 22C6.01195 22 6.93195 21.63 7.63195 21C7.94195 20.74 8.21195 20.42 8.42195 20.06C8.79195 19.46 9.00195 18.75 9.00195 18C9.00195 15.79 7.21195 14 5.00195 14ZM6.60195 19.58C6.45195 19.73 6.26195 19.8 6.07195 19.8C5.88195 19.8 5.69195 19.73 5.54195 19.58L5.01195 19.05L4.46195 19.6C4.31195 19.75 4.12195 19.82 3.93195 19.82C3.74195 19.82 3.55195 19.75 3.40195 19.6C3.11195 19.31 3.11195 18.83 3.40195 18.54L3.95195 17.99L3.42195 17.46C3.13195 17.17 3.13195 16.69 3.42195 16.4C3.71195 16.11 4.19195 16.11 4.48195 16.4L5.01195 16.93L5.51195 16.43C5.80195 16.14 6.28195 16.14 6.57195 16.43C6.86195 16.72 6.86195 17.2 6.57195 17.49L6.07195 17.99L6.60195 18.52C6.89195 18.81 6.89195 19.28 6.60195 19.58Z" fill="#0E1117"/>
</svg>
