<svg width="24" height="24" viewBox="0 0 24 24" fill="none" xmlns="http://www.w3.org/2000/svg">
<path d="M12.002 2C6.48195 2 2.00195 6.48 2.00195 12C2.00195 17.52 6.48195 22 12.002 22C17.522 22 22.002 17.52 22.002 12C22.002 6.48 17.522 2 12.002 2ZM9.00195 8C9.55195 8 10.002 8.45 10.002 9C10.002 9.55 9.56195 10 9.00195 10C8.45195 10 8.00195 9.55 8.00195 9C8.00195 8.45 8.45195 8 9.00195 8ZM9.53195 15.53C9.38195 15.68 9.19195 15.75 9.00195 15.75C8.81195 15.75 8.62195 15.68 8.47195 15.53C8.18195 15.24 8.18195 14.76 8.47195 14.47L14.472 8.47C14.762 8.18 15.242 8.18 15.532 8.47C15.822 8.76 15.822 9.24 15.532 9.53L9.53195 15.53ZM15.002 16C14.442 16 13.992 15.55 13.992 15C13.992 14.45 14.442 14 14.992 14C15.542 14 15.992 14.45 15.992 15C15.992 15.55 15.552 16 15.002 16Z" fill="#0E1117"/>
</svg>
