<svg width="24" height="24" viewBox="0 0 24 24" fill="none" xmlns="http://www.w3.org/2000/svg">
<path opacity="0.4" d="M19.2997 7.91998V13.07C19.2997 16.15 17.5397 17.47 14.8997 17.47H6.10971C5.65971 17.47 5.22971 17.43 4.82971 17.34C4.57971 17.3 4.33972 17.23 4.11972 17.15C2.61972 16.59 1.70972 15.29 1.70972 13.07V7.91998C1.70972 4.83998 3.46971 3.52002 6.10971 3.52002H14.8997C17.1397 3.52002 18.7497 4.47001 19.1797 6.64001C19.2497 7.04001 19.2997 7.44998 19.2997 7.91998Z" fill="#0E1117"/>
<path d="M22.2998 10.9201V16.0701C22.2998 19.1501 20.5398 20.4701 17.8998 20.4701H9.10983C8.36983 20.4701 7.69984 20.3701 7.11984 20.1501C5.92984 19.7101 5.11983 18.8001 4.82983 17.3401C5.22983 17.4301 5.65983 17.4701 6.10983 17.4701H14.8998C17.5398 17.4701 19.2998 16.1501 19.2998 13.0701V7.9201C19.2998 7.4501 19.2598 7.03014 19.1798 6.64014C21.0798 7.04014 22.2998 8.38011 22.2998 10.9201Z" fill="#0E1117"/>
<path d="M10.4999 13.1399C11.9579 13.1399 13.1399 11.9579 13.1399 10.4999C13.1399 9.04185 11.9579 7.85986 10.4999 7.85986C9.04185 7.85986 7.85986 9.04185 7.85986 10.4999C7.85986 11.9579 9.04185 13.1399 10.4999 13.1399Z" fill="#0E1117"/>
<path d="M4.77979 8.25C4.36979 8.25 4.02979 8.59 4.02979 9V12C4.02979 12.41 4.36979 12.75 4.77979 12.75C5.18979 12.75 5.52979 12.41 5.52979 12V9C5.52979 8.59 5.19979 8.25 4.77979 8.25Z" fill="#0E1117"/>
<path d="M16.2097 8.25C15.7997 8.25 15.4597 8.59 15.4597 9V12C15.4597 12.41 15.7997 12.75 16.2097 12.75C16.6197 12.75 16.9597 12.41 16.9597 12V9C16.9597 8.59 16.6297 8.25 16.2097 8.25Z" fill="#0E1117"/>
</svg>
