<svg width="24" height="24" viewBox="0 0 24 24" fill="none" xmlns="http://www.w3.org/2000/svg">
<path d="M18.6901 11.5298C18.1201 11.3798 17.4501 11.2998 16.6501 11.2998C15.5401 11.2998 15.1301 11.5698 14.5601 11.9998C14.5301 12.0198 14.5001 12.0498 14.4701 12.0798L13.5201 13.0898C12.7301 13.9398 11.2801 13.9398 10.4801 13.0898L9.53005 12.0898C9.50005 12.0498 9.47005 12.0198 9.44005 11.9998C8.86005 11.5698 8.45005 11.2998 7.35005 11.2998C6.55005 11.2998 5.88005 11.3698 5.31005 11.5298C2.93005 12.1698 2.93005 14.0598 2.93005 15.7198V16.6498C2.93005 19.1598 2.93005 21.9998 8.28005 21.9998H15.7201C19.2701 21.9998 21.0701 20.1998 21.0701 16.6498V15.7198C21.0701 14.0598 21.0701 12.1698 18.6901 11.5298Z" fill="#0E1117"/>
<path opacity="0.4" d="M14.79 2H9.21004C4.79004 2 4.79004 4.35 4.79004 6.42V12.21C4.79004 12.43 4.89004 12.63 5.06004 12.76C5.23004 12.89 5.46004 12.94 5.67004 12.88C6.12004 12.76 6.68004 12.7 7.35004 12.7C8.02004 12.7 8.16004 12.78 8.56004 13.08L9.47004 14.04C10.12 14.74 11.05 15.14 12.01 15.14C12.97 15.14 13.89 14.74 14.55 14.04L15.46 13.08C15.86 12.78 16 12.7 16.67 12.7C17.34 12.7 17.9 12.76 18.35 12.88C18.56 12.94 18.78 12.89 18.96 12.76C19.13 12.63 19.23 12.42 19.23 12.21V6.42C19.21 4.35 19.21 2 14.79 2Z" fill="#0E1117"/>
<path d="M13.55 9.90977H10.45C10.06 9.90977 9.75 9.59977 9.75 9.20977C9.75 8.81977 10.06 8.50977 10.45 8.50977H13.55C13.94 8.50977 14.25 8.81977 14.25 9.20977C14.25 9.58977 13.93 9.90977 13.55 9.90977Z" fill="#0E1117"/>
<path d="M14.33 7.12021H9.66997C9.27997 7.12021 8.96997 6.81022 8.96997 6.42022C8.96997 6.03022 9.27997 5.72021 9.66997 5.72021H14.32C14.71 5.72021 15.02 6.03022 15.02 6.42022C15.02 6.80022 14.71 7.12021 14.33 7.12021Z" fill="#0E1117"/>
</svg>
