<svg width="24" height="24" viewBox="0 0 24 24" fill="none" xmlns="http://www.w3.org/2000/svg">
<path opacity="0.4" d="M12.0005 21.8999C17.5233 21.8999 22.0005 17.4228 22.0005 11.8999C22.0005 6.37705 17.5233 1.8999 12.0005 1.8999C6.47764 1.8999 2.00049 6.37705 2.00049 11.8999C2.00049 17.4228 6.47764 21.8999 12.0005 21.8999Z" fill="#0E1117"/>
<path d="M14.2606 12L12.7506 11.47V8.08H13.1106C13.9206 8.08 14.5806 8.79 14.5806 9.66C14.5806 10.07 14.9206 10.41 15.3306 10.41C15.7406 10.41 16.0806 10.07 16.0806 9.66C16.0806 7.96 14.7506 6.58 13.1106 6.58H12.7506V6C12.7506 5.59 12.4106 5.25 12.0006 5.25C11.5906 5.25 11.2506 5.59 11.2506 6V6.58H10.6006C9.12065 6.58 7.91064 7.83 7.91064 9.36C7.91064 11.15 8.95064 11.72 9.74064 12L11.2506 12.53V15.91H10.8906C10.0806 15.91 9.42064 15.2 9.42064 14.33C9.42064 13.92 9.08064 13.58 8.67064 13.58C8.26064 13.58 7.92064 13.92 7.92064 14.33C7.92064 16.03 9.25065 17.41 10.8906 17.41H11.2506V18C11.2506 18.41 11.5906 18.75 12.0006 18.75C12.4106 18.75 12.7506 18.41 12.7506 18V17.42H13.4006C14.8806 17.42 16.0906 16.17 16.0906 14.64C16.0806 12.84 15.0406 12.27 14.2606 12ZM10.2406 10.59C9.73064 10.41 9.42064 10.24 9.42064 9.37C9.42064 8.66 9.95064 8.09 10.6106 8.09H11.2606V10.95L10.2406 10.59ZM13.4006 15.92H12.7506V13.06L13.7606 13.41C14.2706 13.59 14.5806 13.76 14.5806 14.63C14.5806 15.34 14.0506 15.92 13.4006 15.92Z" fill="#0E1117"/>
</svg>
