<svg width="24" height="24" viewBox="0 0 24 24" fill="none" xmlns="http://www.w3.org/2000/svg">
<path d="M13.4006 17.4201H10.8906C9.25065 17.4201 7.92064 16.0401 7.92064 14.3401C7.92064 13.9301 8.26064 13.5901 8.67064 13.5901C9.08064 13.5901 9.42064 13.9301 9.42064 14.3401C9.42064 15.2101 10.0806 15.9201 10.8906 15.9201H13.4006C14.0506 15.9201 14.5906 15.3401 14.5906 14.6401C14.5906 13.7701 14.2806 13.6001 13.7706 13.4201L9.74064 12.0001C8.96064 11.7301 7.91064 11.1501 7.91064 9.36008C7.91064 7.82008 9.12065 6.58008 10.6006 6.58008H13.1106C14.7506 6.58008 16.0806 7.96008 16.0806 9.66008C16.0806 10.0701 15.7406 10.4101 15.3306 10.4101C14.9206 10.4101 14.5806 10.0701 14.5806 9.66008C14.5806 8.79008 13.9206 8.08008 13.1106 8.08008H10.6006C9.95064 8.08008 9.41064 8.66008 9.41064 9.36008C9.41064 10.2301 9.72064 10.4001 10.2306 10.5801L14.2606 12.0001C15.0406 12.2701 16.0906 12.8501 16.0906 14.6401C16.0806 16.1701 14.8806 17.4201 13.4006 17.4201Z" fill="#0E1117"/>
<path d="M12.0005 18.75C11.5905 18.75 11.2505 18.41 11.2505 18V6C11.2505 5.59 11.5905 5.25 12.0005 5.25C12.4105 5.25 12.7505 5.59 12.7505 6V18C12.7505 18.41 12.4105 18.75 12.0005 18.75Z" fill="#0E1117"/>
<path d="M12.0005 22.75C6.07049 22.75 1.25049 17.93 1.25049 12C1.25049 6.07 6.07049 1.25 12.0005 1.25C17.9305 1.25 22.7505 6.07 22.7505 12C22.7505 17.93 17.9305 22.75 12.0005 22.75ZM12.0005 2.75C6.90049 2.75 2.75049 6.9 2.75049 12C2.75049 17.1 6.90049 21.25 12.0005 21.25C17.1005 21.25 21.2505 17.1 21.2505 12C21.2505 6.9 17.1005 2.75 12.0005 2.75Z" fill="#0E1117"/>
</svg>
