<svg width="24" height="24" viewBox="0 0 24 24" fill="none" xmlns="http://www.w3.org/2000/svg">
<path opacity="0.4" d="M10.9598 2.05959L5.4598 4.11959C4.4098 4.51959 3.5498 5.75959 3.5498 6.88959V14.9896C3.5498 15.7996 4.0798 16.8696 4.7298 17.3496L10.2298 21.4596C11.1998 22.1896 12.7898 22.1896 13.7598 21.4596L19.2598 17.3496C19.9098 16.8596 20.4398 15.7996 20.4398 14.9896V6.88959C20.4398 5.76959 19.5798 4.51959 18.5298 4.12959L13.0298 2.06959C12.4698 1.84959 11.5298 1.84959 10.9598 2.05959Z" fill="#0E1117"/>
<path d="M14.6798 12.9096L13.0898 11.3196L14.6398 9.76965C14.9298 9.47965 14.9298 8.99965 14.6398 8.70965C14.3498 8.41965 13.8698 8.41965 13.5798 8.70965L12.0298 10.2596L10.4398 8.66965C10.1498 8.37965 9.6698 8.37965 9.3798 8.66965C9.0898 8.95965 9.0898 9.43965 9.3798 9.72965L10.9698 11.3196L9.3298 12.9596C9.0398 13.2496 9.0398 13.7296 9.3298 14.0196C9.4798 14.1696 9.6698 14.2396 9.8598 14.2396C10.0498 14.2396 10.2398 14.1696 10.3898 14.0196L12.0298 12.3796L13.6198 13.9696C13.7698 14.1196 13.9598 14.1896 14.1498 14.1896C14.3398 14.1896 14.5298 14.1196 14.6798 13.9696C14.9698 13.6696 14.9698 13.1996 14.6798 12.9096Z" fill="#0E1117"/>
</svg>
