<svg width="24" height="24" viewBox="0 0 24 24" fill="none" xmlns="http://www.w3.org/2000/svg">
<path opacity="0.4" d="M16.1912 2H7.82123C4.18123 2 2.01123 4.17 2.01123 7.81V16.18C2.01123 19.82 4.18123 21.99 7.82123 21.99H16.1912C19.8312 21.99 22.0012 19.82 22.0012 16.18V7.81C22.0012 4.17 19.8312 2 16.1912 2Z" fill="#0E1117"/>
<path d="M15.8113 7.21973H14.3213C13.2313 7.21973 12.3813 8.06973 12.3813 9.15973V10.6498C12.3813 11.7398 13.2313 12.5898 14.3213 12.5898H16.2313C16.1513 14.3998 15.7313 14.6698 14.5213 15.3798C14.1613 15.5898 14.0513 16.0497 14.2613 16.4097C14.4013 16.6497 14.6513 16.7798 14.9113 16.7798C15.0413 16.7798 15.1713 16.7497 15.2913 16.6797C17.0813 15.6197 17.7513 14.9297 17.7513 11.8497V9.17975C17.7513 8.08975 16.8813 7.21973 15.8113 7.21973Z" fill="#0E1117"/>
<path d="M9.68147 7.21973H8.19146C7.10146 7.21973 6.25146 8.06973 6.25146 9.15973V10.6498C6.25146 11.7398 7.10146 12.5898 8.19146 12.5898H10.1015C10.0215 14.3998 9.60146 14.6698 8.39146 15.3798C8.03146 15.5898 7.92147 16.0497 8.13147 16.4097C8.27147 16.6497 8.52146 16.7798 8.78146 16.7798C8.91146 16.7798 9.04146 16.7497 9.16146 16.6797C10.9515 15.6197 11.6215 14.9297 11.6215 11.8497V9.17975C11.6115 8.08975 10.7415 7.21973 9.68147 7.21973Z" fill="#0E1117"/>
</svg>
