<svg width="24" height="24" viewBox="0 0 24 24" fill="none" xmlns="http://www.w3.org/2000/svg">
<path opacity="0.4" d="M11.9702 22C17.4931 22 21.9702 17.5228 21.9702 12C21.9702 6.47715 17.4931 2 11.9702 2C6.44737 2 1.97021 6.47715 1.97021 12C1.97021 17.5228 6.44737 22 11.9702 22Z" fill="#0E1117"/>
<path d="M15.25 11.2999H13.55V7.33993C13.55 6.41993 13.05 6.22993 12.44 6.91993L12 7.41993L8.27997 11.6499C7.76997 12.2299 7.97997 12.6999 8.74997 12.6999H10.45V16.6599C10.45 17.5799 10.95 17.7699 11.56 17.0799L12 16.5799L15.72 12.3499C16.23 11.7699 16.02 11.2999 15.25 11.2999Z" fill="#0E1117"/>
</svg>
