<svg width="24" height="24" viewBox="0 0 24 24" fill="none" xmlns="http://www.w3.org/2000/svg">
<path d="M5.53978 11.1201C0.859785 11.4501 0.859785 18.2601 5.53978 18.5901H7.45978" stroke="#0E1117" stroke-width="1.5" stroke-miterlimit="10" stroke-linecap="round" stroke-linejoin="round"/>
<path d="M17.4695 8C21.7995 8.55 23.5496 14.32 20.2696 17.19C19.2696 18.1 17.9795 18.6 16.6295 18.59H16.5396" stroke="#0E1117" stroke-width="1.5" stroke-miterlimit="10" stroke-linecap="round" stroke-linejoin="round"/>
<path d="M5.58979 11.1202C3.05979 4.09022 10.9198 0.380226 15.1298 3.70023" stroke="#0E1117" stroke-width="1.5" stroke-miterlimit="10" stroke-linecap="round" stroke-linejoin="round"/>
<path d="M12.9699 17.61L10.8599 15.5" stroke="#0E1117" stroke-width="1.5" stroke-miterlimit="10" stroke-linecap="round" stroke-linejoin="round"/>
<path d="M12.9501 15.52L10.8301 17.64" stroke="#0E1117" stroke-width="1.5" stroke-miterlimit="10" stroke-linecap="round" stroke-linejoin="round"/>
<path d="M17 16.5298C17 17.2698 16.84 17.9698 16.54 18.5898C16.46 18.7698 16.37 18.9398 16.27 19.0998C15.41 20.5498 13.82 21.5298 12 21.5298C10.18 21.5298 8.59 20.5498 7.73 19.0998C7.63 18.9398 7.54 18.7698 7.46 18.5898C7.16 17.9698 7 17.2698 7 16.5298C7 13.7698 9.24 11.5298 12 11.5298C14.76 11.5298 17 13.7698 17 16.5298Z" stroke="#0E1117" stroke-width="1.5" stroke-miterlimit="10" stroke-linecap="round" stroke-linejoin="round"/>
</svg>
