<svg width="24" height="24" viewBox="0 0 24 24" fill="none" xmlns="http://www.w3.org/2000/svg">
<path d="M12.0013 13.2999C11.8713 13.2999 11.7413 13.2699 11.6213 13.1999L2.79132 8.0899C2.43132 7.8799 2.3113 7.41987 2.5213 7.05987C2.7313 6.69987 3.1813 6.57985 3.5513 6.78985L12.0013 11.6799L20.4013 6.81988C20.7613 6.60988 21.2213 6.7399 21.4313 7.0899C21.6413 7.4499 21.5113 7.90987 21.1613 8.11987L12.3913 13.1999C12.2613 13.2599 12.1313 13.2999 12.0013 13.2999Z" fill="#0E1117"/>
<path d="M12.001 22.36C11.591 22.36 11.251 22.02 11.251 21.61V12.54C11.251 12.13 11.591 11.79 12.001 11.79C12.411 11.79 12.751 12.13 12.751 12.54V21.61C12.751 22.02 12.411 22.36 12.001 22.36Z" fill="#0E1117"/>
<path d="M12.0009 22.7502C11.0909 22.7502 10.2209 22.5402 9.56085 22.1702L4.22086 19.2103C2.77086 18.4103 1.63086 16.4802 1.63086 14.8202V9.16021C1.63086 7.50021 2.77086 5.58026 4.22086 4.77026L9.56085 1.81023C10.9209 1.05023 13.0608 1.05023 14.4308 1.81023L19.7708 4.77026C21.2208 5.57026 22.3608 7.50021 22.3608 9.16021V12.8202C22.3608 13.2302 22.0208 13.5702 21.6108 13.5702C21.2008 13.5702 20.8608 13.2302 20.8608 12.8202V9.16021C20.8608 8.06021 20.0108 6.62026 19.0508 6.09026L13.7108 3.13024C12.8008 2.62024 11.2108 2.62024 10.3008 3.13024L4.96085 6.09026C3.99085 6.63026 3.15085 8.06021 3.15085 9.16021V14.8202C3.15085 15.9202 4.00085 17.3603 4.96085 17.8903L10.3008 20.8502C11.1808 21.3402 12.8408 21.3402 13.7108 20.8502C14.0708 20.6502 14.5309 20.7803 14.7309 21.1403C14.9309 21.5003 14.8009 21.9602 14.4409 22.1602C13.7809 22.5402 12.9109 22.7502 12.0009 22.7502Z" fill="#0E1117"/>
<path d="M19.201 22.15C17.021 22.15 15.251 20.38 15.251 18.2C15.251 16.02 17.021 14.25 19.201 14.25C21.381 14.25 23.151 16.02 23.151 18.2C23.151 20.38 21.381 22.15 19.201 22.15ZM19.201 15.75C17.851 15.75 16.751 16.85 16.751 18.2C16.751 19.55 17.851 20.65 19.201 20.65C20.551 20.65 21.651 19.55 21.651 18.2C21.651 16.85 20.551 15.75 19.201 15.75Z" fill="#0E1117"/>
<path d="M23.0014 22.75C22.8114 22.75 22.6214 22.68 22.4714 22.53L21.4714 21.53C21.1814 21.24 21.1814 20.7599 21.4714 20.4699C21.7614 20.1799 22.2414 20.1799 22.5314 20.4699L23.5314 21.4699C23.8214 21.7599 23.8214 22.24 23.5314 22.53C23.3814 22.68 23.1914 22.75 23.0014 22.75Z" fill="#0E1117"/>
</svg>
