<svg width="24" height="24" viewBox="0 0 24 24" fill="none" xmlns="http://www.w3.org/2000/svg">
<path d="M12.2014 11.8002L10.7913 13.2102C10.0113 13.9902 10.0113 15.2602 10.7913 16.0402C11.5713 16.8202 12.8413 16.8202 13.6213 16.0402L15.8414 13.8202C17.4014 12.2602 17.4014 9.73023 15.8414 8.16023C14.2814 6.60023 11.7513 6.60023 10.1813 8.16023L7.76135 10.5802C6.42135 11.9202 6.42135 14.0902 7.76135 15.4302" stroke="#0E1117" stroke-width="1.5" stroke-linecap="round" stroke-linejoin="round"/>
<path d="M12.0015 22C17.5243 22 22.0015 17.5228 22.0015 12C22.0015 6.47715 17.5243 2 12.0015 2C6.47862 2 2.00146 6.47715 2.00146 12C2.00146 17.5228 6.47862 22 12.0015 22Z" stroke="#0E1117" stroke-width="1.5" stroke-linecap="round" stroke-linejoin="round"/>
</svg>
