<svg width="24" height="24" viewBox="0 0 24 24" fill="none" xmlns="http://www.w3.org/2000/svg">
<path opacity="0.4" d="M20.2698 17.1901C19.2698 18.1001 17.9798 18.6001 16.6298 18.5901H16.5398C16.8398 17.9701 16.9998 17.2701 16.9998 16.5301C16.9998 13.7701 14.7598 11.5301 11.9998 11.5301C9.23981 11.5301 6.99981 13.7701 6.99981 16.5301C6.99981 17.2701 7.15983 17.9701 7.45983 18.5901H5.53978C0.859785 18.2601 0.859785 11.4501 5.53978 11.1201H5.58983C2.37983 2.19014 15.9198 -1.37986 17.4698 8.00014C21.7998 8.55014 23.5498 14.3201 20.2698 17.1901Z" fill="#0E1117"/>
<path d="M12 11.5298C9.24 11.5298 7 13.7698 7 16.5298C7 17.2698 7.16002 17.9698 7.46002 18.5898C7.54002 18.7698 7.62998 18.9398 7.72998 19.0998C8.58998 20.5498 10.18 21.5298 12 21.5298C13.82 21.5298 15.41 20.5498 16.27 19.0998C16.37 18.9398 16.46 18.7698 16.54 18.5898C16.84 17.9698 17 17.2698 17 16.5298C17 13.7698 14.76 11.5298 12 11.5298ZM14.07 16.0998L11.94 18.0698C11.8 18.1998 11.61 18.2698 11.43 18.2698C11.24 18.2698 11.05 18.1998 10.9 18.0498L9.90997 17.0598C9.61997 16.7698 9.61997 16.2898 9.90997 15.9998C10.2 15.7098 10.68 15.7098 10.97 15.9998L11.45 16.4798L13.05 14.9998C13.36 14.7198 13.83 14.7398 14.11 15.0398C14.39 15.3398 14.37 15.8098 14.07 16.0998Z" fill="#0E1117"/>
</svg>
