<svg width="24" height="24" viewBox="0 0 24 24" fill="none" xmlns="http://www.w3.org/2000/svg">
<path d="M18.9019 15.0298C16.6919 15.0298 14.9019 16.8198 14.9019 19.0298C14.9019 21.2398 16.6919 23.0298 18.9019 23.0298C21.1119 23.0298 22.9019 21.2398 22.9019 19.0298C22.9019 16.8198 21.1119 15.0298 18.9019 15.0298ZM20.5019 20.6798C20.3519 20.8298 20.1619 20.8998 19.9719 20.8998C19.7819 20.8998 19.5919 20.8298 19.4419 20.6798L18.9119 20.1498L18.3619 20.6998C18.2119 20.8498 18.0219 20.9198 17.8319 20.9198C17.6419 20.9198 17.4519 20.8498 17.3019 20.6998C17.0119 20.4098 17.0119 19.9298 17.3019 19.6398L17.8519 19.0898L17.3219 18.5598C17.0319 18.2698 17.0319 17.7898 17.3219 17.4998C17.6119 17.2098 18.0919 17.2098 18.3819 17.4998L18.9119 18.0298L19.4119 17.5298C19.7019 17.2398 20.1819 17.2398 20.4719 17.5298C20.7619 17.8198 20.7619 18.2998 20.4719 18.5898L19.9719 19.0898L20.5019 19.6198C20.7919 19.9098 20.7919 20.3898 20.5019 20.6798Z" fill="#0E1117"/>
<path d="M22.002 7.5499V7.9999C22.002 8.5499 21.552 8.9999 21.002 8.9999H3.00195C2.45195 8.9999 2.00195 8.5499 2.00195 7.9999V7.5399C2.00195 5.2499 3.85195 3.3999 6.14195 3.3999H17.852C20.142 3.3999 22.002 5.2599 22.002 7.5499Z" fill="#0E1117"/>
<path d="M2.00195 11.5002V16.4602C2.00195 18.7502 3.85195 20.6002 6.14195 20.6002H12.402C12.982 20.6002 13.482 20.1102 13.432 19.5302C13.292 18.0002 13.782 16.3402 15.142 15.0202C15.702 14.4702 16.392 14.0502 17.142 13.8102C18.392 13.4102 19.602 13.4602 20.672 13.8202C21.322 14.0402 22.002 13.5702 22.002 12.8802V11.4902C22.002 10.9402 21.552 10.4902 21.002 10.4902H3.00195C2.45195 10.5002 2.00195 10.9502 2.00195 11.5002ZM8.00195 17.2502H6.00195C5.59195 17.2502 5.25195 16.9102 5.25195 16.5002C5.25195 16.0902 5.59195 15.7502 6.00195 15.7502H8.00195C8.41195 15.7502 8.75195 16.0902 8.75195 16.5002C8.75195 16.9102 8.41195 17.2502 8.00195 17.2502Z" fill="#0E1117"/>
</svg>
