<svg width="24" height="24" viewBox="0 0 24 24" fill="none" xmlns="http://www.w3.org/2000/svg">
<path opacity="0.4" d="M11.7405 17.7499H17.6605C17.5705 17.8299 17.4805 17.8999 17.3905 17.9799L13.1205 21.1799C11.7105 22.2299 9.41049 22.2299 7.99049 21.1799L3.71049 17.9799C2.77049 17.2799 2.00049 15.7299 2.00049 14.5599V7.14986C2.00049 5.92986 2.9305 4.57986 4.0705 4.14986L9.05049 2.27986C9.87049 1.96986 11.2305 1.96986 12.0505 2.27986L17.0205 4.14986C17.9705 4.50986 18.7805 5.50986 19.0305 6.52986H11.7305C11.5105 6.52986 11.3105 6.53987 11.1205 6.53987C9.27048 6.64987 8.79048 7.31986 8.79048 9.42986V14.8598C8.80048 17.1598 9.39049 17.7499 11.7405 17.7499Z" stroke="#0E1117" stroke-width="1.5" stroke-linecap="round" stroke-linejoin="round"/>
<path d="M8.80054 11.2202H22.0005" stroke="#0E1117" stroke-width="1.5" stroke-miterlimit="10" stroke-linecap="round" stroke-linejoin="round"/>
<path d="M22.0005 9.41977V14.9698C21.9805 17.1898 21.3705 17.7397 19.0605 17.7397H11.7405C9.39054 17.7397 8.80054 17.1498 8.80054 14.8398V9.40976C8.80054 7.30976 9.28054 6.63974 11.1305 6.51974C11.3205 6.51974 11.5205 6.50977 11.7405 6.50977H19.0605C21.4105 6.51977 22.0005 7.09977 22.0005 9.41977Z" stroke="#0E1117" stroke-width="1.5" stroke-linecap="round" stroke-linejoin="round"/>
<path d="M11.3206 15.2598H12.6505" stroke="#0E1117" stroke-width="1.5" stroke-miterlimit="10" stroke-linecap="round" stroke-linejoin="round"/>
<path d="M14.7505 15.2598H18.0205" stroke="#0E1117" stroke-width="1.5" stroke-miterlimit="10" stroke-linecap="round" stroke-linejoin="round"/>
</svg>
