<svg width="24" height="24" viewBox="0 0 24 24" fill="none" xmlns="http://www.w3.org/2000/svg">
<path d="M2.02007 12.2198C1.91007 6.59979 6.35008 2.0498 11.9701 2.0498C17.5901 2.0498 22.0201 6.5998 22.0201 12.1098V18.2698C22.0201 20.2198 20.4001 21.8398 18.4501 21.8398C16.5001 21.8398 14.8801 20.2198 14.8801 18.2698V15.4598C14.8801 14.4898 15.6401 13.6198 16.7201 13.6198C17.6901 13.6198 18.5601 14.3798 18.5601 15.4598V18.4898" stroke="#0E1117" stroke-width="1.5" stroke-linecap="round" stroke-linejoin="round"/>
<path d="M5.48004 18.49V15.57C5.48004 14.6 6.24004 13.73 7.32004 13.73C8.29004 13.73 9.16003 14.49 9.16003 15.57V18.38C9.16003 20.33 7.54003 21.95 5.59003 21.95C3.64003 21.95 2.02002 20.32 2.02002 18.38V16.01" stroke="#0E1117" stroke-width="1.5" stroke-linecap="round" stroke-linejoin="round"/>
<path d="M11.5402 8.19L11.0802 7.27002C10.9702 7.06002 10.6702 7.05001 10.5602 7.26001L9.72021 8.80999C9.62021 8.99999 9.42023 9.11999 9.20023 9.11999H8.47021" stroke="#0E1117" stroke-width="1.5" stroke-linecap="round" stroke-linejoin="round"/>
<path d="M15.5302 9.12012H14.7202C14.5002 9.12012 14.2902 9.25012 14.1902 9.44012L13.4402 10.9401C13.3302 11.1601 13.0202 11.1601 12.9102 10.9401" stroke="#0E1117" stroke-width="1.5" stroke-linecap="round" stroke-linejoin="round"/>
</svg>
