<svg width="24" height="24" viewBox="0 0 24 24" fill="none" xmlns="http://www.w3.org/2000/svg">
<path d="M9.96006 14.0401V12.9301C9.96006 12.5001 9.64006 12.2901 9.25006 12.4601L4.24006 14.6201C3.45006 14.9601 2.81006 14.5401 2.81006 13.6901V12.3701C2.81006 11.6901 3.32006 10.9001 3.95006 10.6401L9.65006 8.19006C9.81006 8.11006 9.95006 7.90006 9.95006 7.72006V4.66006C9.95006 3.70006 10.6601 2.55006 11.5101 2.11006C11.8101 1.96006 12.1701 1.96006 12.4701 2.11006C13.3301 2.55006 14.0401 3.69006 14.0401 4.65006V7.71006C14.0401 7.89006 14.1801 8.10006 14.3401 8.18006L15.3801 8.62006L9.96006 14.0401Z" fill="#0E1117"/>
<path opacity="0.4" d="M21.1899 12.3701V13.6901C21.1899 14.5401 20.5499 14.9601 19.7599 14.6201L14.7499 12.4601C14.3499 12.3001 14.0399 12.5001 14.0399 12.9301V15.8401C14.0399 16.0701 14.1699 16.4001 14.3399 16.5601L16.6599 18.8901C16.8999 19.1301 17.0099 19.6101 16.8999 19.9401L16.4499 21.3001C16.2499 21.8901 15.5799 22.1601 15.0299 21.8901L12.6499 19.8901C12.2899 19.5801 11.6999 19.5801 11.3399 19.8901L8.95992 21.8901C8.40992 22.1701 7.73992 21.8901 7.55992 21.3001L7.10992 19.9401C6.99992 19.6001 7.10992 19.1301 7.34992 18.8901L9.66992 16.5601C9.82992 16.4001 9.95992 16.0701 9.95992 15.8401V14.0401L15.3799 8.62012L20.0499 10.6301C20.6799 10.9001 21.1899 11.6901 21.1899 12.3701Z" fill="#0E1117"/>
</svg>
