<svg width="24" height="24" viewBox="0 0 24 24" fill="none" xmlns="http://www.w3.org/2000/svg">
<path d="M3.98987 14.6599L2.46988 13.1399C1.84988 12.5199 1.84988 11.4999 2.46988 10.8799L3.98987 9.3599C4.24987 9.0999 4.45987 8.58989 4.45987 8.22989V6.07987C4.45987 5.19987 5.17988 4.47989 6.05988 4.47989H8.20987C8.56987 4.47989 9.07988 4.26992 9.33988 4.00992L10.8599 2.4899C11.4799 1.8699 12.4999 1.8699 13.1199 2.4899L14.6399 4.00992C14.8999 4.26992 15.4099 4.47989 15.7699 4.47989H17.9199C18.7999 4.47989 19.5199 5.19987 19.5199 6.07987V8.22989C19.5199 8.58989 19.7299 9.0999 19.9899 9.3599L21.5099 10.8799C22.1299 11.4999 22.1299 12.5199 21.5099 13.1399L19.9899 14.6599C19.7299 14.9199 19.5199 15.43 19.5199 15.79V17.9399C19.5199 18.8199 18.7999 19.54 17.9199 19.54H15.7699C15.4099 19.54 14.8999 19.7499 14.6399 20.0099L13.1199 21.5299C12.4999 22.1499 11.4799 22.1499 10.8599 21.5299L9.33988 20.0099C9.07988 19.7499 8.56987 19.54 8.20987 19.54H6.05988C5.17988 19.54 4.45987 18.8199 4.45987 17.9399V15.79C4.45987 15.42 4.24987 14.9099 3.98987 14.6599Z" stroke="#0E1117" stroke-width="1.5" stroke-linecap="round" stroke-linejoin="round"/>
<path opacity="0.4" d="M9 15L15 9" stroke="#0E1117" stroke-width="1.5" stroke-linecap="round" stroke-linejoin="round"/>
<path opacity="0.4" d="M14.4945 14.5H14.5035" stroke="#0E1117" stroke-width="2" stroke-linecap="round" stroke-linejoin="round"/>
<path opacity="0.4" d="M9.49451 9.5H9.50349" stroke="#0E1117" stroke-width="2" stroke-linecap="round" stroke-linejoin="round"/>
</svg>
