<svg width="24" height="24" viewBox="0 0 24 24" fill="none" xmlns="http://www.w3.org/2000/svg">
<path d="M10.3712 18.1403C10.3712 19.5603 9.3212 20.7203 7.7912 20.7203H4.57123C3.15123 20.7203 1.99121 19.5603 1.99121 18.1403L1.99121 12.3403" stroke="#0E1117" stroke-width="1.5" stroke-linecap="round" stroke-linejoin="round"/>
<path d="M2.00098 12.3501H7.80096C8.76096 12.3501 9.521 12.8001 9.961 13.4901" stroke="#0E1117" stroke-width="1.5" stroke-linecap="round" stroke-linejoin="round"/>
<path d="M2.00098 12.3502C2.00098 6.30022 3.13101 5.30027 6.53101 3.28027" stroke="#0E1117" stroke-width="1.5" stroke-linecap="round" stroke-linejoin="round"/>
<path d="M13.6313 12.3501H19.4313C20.9613 12.3501 22.0114 13.5101 22.0114 14.9301V18.1501C22.0114 19.5701 20.9613 20.7301 19.4313 20.7301H16.2114C14.7914 20.7301 13.6313 19.5701 13.6313 18.1501V12.3501" stroke="#0E1117" stroke-width="1.5" stroke-linecap="round" stroke-linejoin="round"/>
<path d="M13.6313 12.3502C13.6313 6.30022 14.7613 5.30027 18.1613 3.28027" stroke="#0E1117" stroke-width="1.5" stroke-linecap="round" stroke-linejoin="round"/>
</svg>
