<svg width="24" height="24" viewBox="0 0 24 24" fill="none" xmlns="http://www.w3.org/2000/svg">
<path d="M2.00195 7V21C2.00195 21.83 2.94195 22.3 3.60195 21.8L5.31195 20.52C5.71195 20.22 6.27195 20.26 6.63195 20.62L8.29195 22.29C8.68195 22.68 9.32195 22.68 9.71195 22.29L11.392 20.61C11.742 20.26 12.302 20.22 12.692 20.52L14.402 21.8C15.062 22.29 16.002 21.82 16.002 21V4C16.002 2.9 16.902 2 18.002 2H7.00195H6.00195C3.00195 2 2.00195 3.79 2.00195 6V7Z" fill="#0E1117"/>
<path d="M18.012 2V3.5C18.672 3.5 19.302 3.77 19.762 4.22C20.242 4.71 20.502 5.34 20.502 6V8.42C20.502 9.16 20.172 9.5 19.422 9.5H17.502V4.01C17.502 3.73 17.732 3.5 18.012 3.5V2ZM18.012 2C16.902 2 16.002 2.9 16.002 4.01V11H19.422C21.002 11 22.002 10 22.002 8.42V6C22.002 4.9 21.552 3.9 20.832 3.17C20.102 2.45 19.112 2.01 18.012 2C18.022 2 18.012 2 18.012 2Z" fill="#0E1117"/>
</svg>
