<svg width="24" height="24" viewBox="0 0 24 24" fill="none" xmlns="http://www.w3.org/2000/svg">
<path d="M2 6.73979C2 3.36979 2.84 2.52979 6.21 2.52979H16.74C20.11 2.52979 20.95 3.36979 20.95 6.73979" stroke="#0E1117" stroke-width="1.5" stroke-linecap="round" stroke-linejoin="round"/>
<path d="M10 16.9501H6.21C2.84 16.9501 2 16.1101 2 12.7401V10.8501" stroke="#0E1117" stroke-width="1.5" stroke-linecap="round" stroke-linejoin="round"/>
<path d="M10 21.4702V16.9502" stroke="#0E1117" stroke-width="1.5" stroke-linecap="round" stroke-linejoin="round"/>
<path d="M2 12.9502H10" stroke="#0E1117" stroke-width="1.5" stroke-linecap="round" stroke-linejoin="round"/>
<path d="M6.74023 21.4702H10.0002" stroke="#0E1117" stroke-width="1.5" stroke-linecap="round" stroke-linejoin="round"/>
<path d="M21.9998 12.7998C21.9998 10.4298 21.4098 9.83984 19.0398 9.83984H15.4898C13.1198 9.83984 12.5298 10.4298 12.5298 12.7998V18.5098C12.5298 20.8798 13.1198 21.4698 15.4898 21.4698H19.0398C21.4098 21.4698 21.9998 20.8798 21.9998 18.5098V16.9398" stroke="#0E1117" stroke-width="1.5" stroke-linecap="round" stroke-linejoin="round"/>
<path d="M17.2445 18.25H17.2535" stroke="#0E1117" stroke-width="2" stroke-linecap="round" stroke-linejoin="round"/>
</svg>
