<svg width="24" height="24" viewBox="0 0 24 24" fill="none" xmlns="http://www.w3.org/2000/svg">
<path d="M12.0706 21.9802C10.6606 21.9802 9.24058 21.4402 8.17058 20.3702L3.64058 15.8402C2.54058 14.7402 1.96058 13.2202 2.03058 11.6702L2.27058 6.67018C2.38058 4.28018 4.27058 2.39018 6.67058 2.27018L11.6706 2.03018C13.2206 1.97018 14.7406 2.54018 15.8406 3.64018L20.3706 8.17018C22.5206 10.3202 22.5206 13.8302 20.3706 15.9802L15.9806 20.3702C14.9006 21.4402 13.4906 21.9802 12.0706 21.9802ZM4.70058 14.7702L9.23058 19.3002C9.99058 20.0602 11.0006 20.4802 12.0706 20.4802C13.1406 20.4802 14.1506 20.0602 14.9106 19.3002L19.3006 14.9102C20.0606 14.1502 20.4806 13.1402 20.4806 12.0702C20.4806 11.0002 20.0606 9.99018 19.3006 9.23018L14.7706 4.70018C13.9706 3.90018 12.8606 3.47018 11.7406 3.53018L6.74058 3.77018C5.11058 3.84018 3.84058 5.11018 3.76058 6.73018L3.52058 11.7302C3.47058 12.8602 3.90058 13.9702 4.70058 14.7702Z" fill="#0E1117"/>
<path d="M9.50049 12.75C7.71049 12.75 6.25049 11.29 6.25049 9.5C6.25049 7.71 7.71049 6.25 9.50049 6.25C11.2905 6.25 12.7505 7.71 12.7505 9.5C12.7505 11.29 11.2905 12.75 9.50049 12.75ZM9.50049 7.75C8.54049 7.75 7.75049 8.54 7.75049 9.5C7.75049 10.46 8.54049 11.25 9.50049 11.25C10.4605 11.25 11.2505 10.46 11.2505 9.5C11.2505 8.54 10.4605 7.75 9.50049 7.75Z" fill="#0E1117"/>
</svg>
