<svg width="24" height="24" viewBox="0 0 24 24" fill="none" xmlns="http://www.w3.org/2000/svg">
<path d="M4.91992 20.2804L6.68993 21.6504C6.91993 21.8804 7.42992 21.9903 7.77992 21.9903H9.94992C10.6399 21.9903 11.3799 21.4804 11.5499 20.7904L12.9199 16.6203C13.2099 15.8203 12.6899 15.1303 11.8299 15.1303H9.53992C9.19992 15.1303 8.90992 14.8403 8.96992 14.4403L9.25993 12.6103C9.36993 12.1003 9.02992 11.5203 8.51992 11.3503C8.05992 11.1803 7.48993 11.4103 7.25993 11.7503L4.91992 15.2403" stroke="#0E1117" stroke-width="1.5" stroke-miterlimit="10"/>
<path d="M2 20.2799C2 21.0799 2.34 21.3699 3.14 21.3699H3.71C4.51 21.3699 4.85 21.0799 4.85 20.2799V14.6799C4.85 13.8799 4.51 13.5898 3.71 13.5898H3.14C2.34 13.5898 2 13.8799 2 14.6799V16.1799" stroke="#0E1117" stroke-width="1.5" stroke-linecap="round" stroke-linejoin="round"/>
<path d="M19.0801 3.71973L17.3101 2.34973C17.0801 2.11973 16.5701 2.00977 16.2201 2.00977H14.0501C13.3601 2.00977 12.6201 2.51972 12.4501 3.20972L11.0801 7.37976C10.7901 8.17976 11.3101 8.86975 12.1701 8.86975H14.4601C14.8001 8.86975 15.0901 9.15981 15.0301 9.55981L14.7401 11.3898C14.6301 11.8998 14.9701 12.4798 15.4801 12.6498C15.9401 12.8198 16.5101 12.5898 16.7401 12.2498L19.0801 8.75977" stroke="#0E1117" stroke-width="1.5" stroke-miterlimit="10"/>
<path d="M22.0001 3.71985C22.0001 2.91985 21.6601 2.62988 20.8601 2.62988H20.2901C19.4901 2.62988 19.1501 2.91985 19.1501 3.71985V9.31982C19.1501 10.1198 19.4901 10.4099 20.2901 10.4099H20.8601C21.6601 10.4099 22.0001 10.1198 22.0001 9.31982V7.99988" stroke="#0E1117" stroke-width="1.5" stroke-linecap="round" stroke-linejoin="round"/>
</svg>
