<svg width="24" height="24" viewBox="0 0 24 24" fill="none" xmlns="http://www.w3.org/2000/svg">
<path opacity="0.4" d="M15.0002 22.75C14.7302 22.75 14.4802 22.6 14.3502 22.37C14.2202 22.14 14.2202 21.85 14.3602 21.62L15.4102 19.87C15.6202 19.51 16.0802 19.4 16.4402 19.61C16.8002 19.82 16.9102 20.28 16.7002 20.64L16.4302 21.09C19.1902 20.44 21.2602 17.96 21.2602 15C21.2602 14.59 21.6002 14.25 22.0102 14.25C22.4202 14.25 22.7602 14.59 22.7602 15C22.7502 19.27 19.2702 22.75 15.0002 22.75Z" fill="#0E1117"/>
<path opacity="0.4" d="M2 9.75C1.59 9.75 1.25 9.41 1.25 9C1.25 4.73 4.73 1.25 9 1.25C9.27 1.25 9.51999 1.4 9.64999 1.63C9.77999 1.86 9.78 2.15 9.64 2.38L8.59 4.13C8.38 4.49001 7.92 4.60001 7.56 4.39001C7.2 4.18001 7.09 3.71999 7.3 3.35999L7.57001 2.90997C4.81001 3.55997 2.74001 6.04 2.74001 9C2.75001 9.41 2.41 9.75 2 9.75Z" fill="#0E1117"/>
<path d="M10.67 13.8499L7.52995 12.1599C7.19995 11.9799 6.79996 11.9799 6.46996 12.1599L3.32996 13.8499C3.09996 13.9699 2.95996 14.2199 2.95996 14.4899C2.95996 14.7599 3.09996 15.0099 3.32996 15.1299L6.46996 16.8199C6.63996 16.9099 6.81995 16.9499 6.99995 16.9499C7.17995 16.9499 7.35995 16.9099 7.52995 16.8199L10.67 15.1299C10.9 15.0099 11.0399 14.7599 11.0399 14.4899C11.0399 14.2199 10.89 13.9799 10.67 13.8499Z" fill="#0E1117"/>
<path d="M5.95023 17.4101L3.03023 15.9502C2.81023 15.8402 2.55023 15.8501 2.33023 15.9801C2.12023 16.1101 1.99023 16.3402 1.99023 16.5902V19.3501C1.99023 19.8301 2.25022 20.2601 2.68022 20.4701L5.60023 21.9301C5.70023 21.9801 5.81023 22.0101 5.92023 22.0101C6.05023 22.0101 6.18023 21.9702 6.30023 21.9002C6.51023 21.7702 6.64023 21.5401 6.64023 21.2901V18.5302C6.65023 18.0502 6.38023 17.6201 5.95023 17.4101Z" fill="#0E1117"/>
<path d="M11.6606 15.9801C11.4506 15.8501 11.1906 15.8402 10.9606 15.9502L8.04057 17.4101C7.61057 17.6201 7.35059 18.0502 7.35059 18.5302V21.2901C7.35059 21.5401 7.48058 21.7702 7.69058 21.9002C7.81058 21.9702 7.94059 22.0101 8.07059 22.0101C8.18059 22.0101 8.29058 21.9801 8.39058 21.9301L11.3106 20.4701C11.7406 20.2601 12.0006 19.8301 12.0006 19.3501V16.5902C12.0006 16.3402 11.8706 16.1101 11.6606 15.9801Z" fill="#0E1117"/>
<path d="M20.67 3.82989L17.53 2.13988C17.2 1.95988 16.8 1.95988 16.47 2.13988L13.33 3.82989C13.1 3.94989 12.96 4.19984 12.96 4.46984C12.96 4.73984 13.1 4.98985 13.33 5.10985L16.47 6.79986C16.64 6.88986 16.82 6.92986 17 6.92986C17.18 6.92986 17.36 6.88986 17.53 6.79986L20.67 5.10985C20.9 4.98985 21.0399 4.73984 21.0399 4.46984C21.0399 4.18984 20.89 3.94989 20.67 3.82989Z" fill="#0E1117"/>
<path d="M15.9502 7.37987L13.0302 5.91985C12.8102 5.80985 12.5502 5.81988 12.3302 5.94988C12.1202 6.07988 11.9902 6.30987 11.9902 6.55987V9.31987C11.9902 9.79987 12.2502 10.2299 12.6802 10.4399L15.6002 11.8999C15.7002 11.9499 15.8102 11.9798 15.9202 11.9798C16.0502 11.9798 16.1802 11.9399 16.3002 11.8699C16.5102 11.7399 16.6402 11.5099 16.6402 11.2599V8.49987C16.6502 8.01987 16.3802 7.58987 15.9502 7.37987Z" fill="#0E1117"/>
<path d="M21.6606 5.94988C21.4506 5.81988 21.1906 5.80985 20.9606 5.91985L18.0406 7.37987C17.6106 7.58987 17.3506 8.01987 17.3506 8.49987V11.2599C17.3506 11.5099 17.4806 11.7399 17.6906 11.8699C17.8106 11.9399 17.9406 11.9798 18.0706 11.9798C18.1806 11.9798 18.2906 11.9499 18.3906 11.8999L21.3106 10.4399C21.7406 10.2299 22.0006 9.79987 22.0006 9.31987V6.55987C22.0006 6.30987 21.8706 6.07988 21.6606 5.94988Z" fill="#0E1117"/>
</svg>
