<svg width="24" height="24" viewBox="0 0 24 24" fill="none" xmlns="http://www.w3.org/2000/svg">
<path d="M7.50021 12C7.50021 11.3369 7.64813 10.7071 7.91099 10.1372C8.1145 9.69593 8.07947 9.15924 7.73587 8.81564L5.1588 6.23857C4.74874 5.82851 4.07262 5.85004 3.74164 6.32622C2.62119 7.93817 1.97021 9.89396 1.97021 12C1.97021 14.1044 2.62018 16.0587 3.73299 17.67C4.06299 18.1478 4.74015 18.1709 5.15129 17.7608L7.73435 15.1843C8.07873 14.8408 8.11414 14.3035 7.91054 13.8618C7.64796 13.2921 7.50021 12.6627 7.50021 12Z" fill="#0E1117"/>
<path d="M12 7.5C12.6631 7.5 13.2928 7.64791 13.8628 7.91078C14.304 8.11428 14.8407 8.07926 15.1843 7.73566L17.7335 5.18643C18.1428 4.77717 18.1223 4.10256 17.6476 3.77141C16.0415 2.65097 14.0844 2 11.97 2C9.86577 2 7.91868 2.64985 6.30974 3.76248C5.83212 4.09277 5.809 4.76993 6.2191 5.18107L8.78017 7.74868C9.12607 8.09546 9.66803 8.12873 10.1116 7.92105C10.6854 7.6524 11.3237 7.5 12 7.5Z" fill="#0E1117"/>
<path d="M19.89 5.90633C19.7123 5.6767 19.3749 5.66475 19.1694 5.8698L15.9506 9.08034C15.7772 9.25329 15.7573 9.52498 15.8812 9.73622C16.2716 10.4017 16.4999 11.1724 16.4999 12.0002C16.4999 12.8283 16.2715 13.5992 15.8809 14.2647C15.7571 14.4757 15.7768 14.7471 15.9498 14.9201L19.1694 18.1397C19.3749 18.3452 19.7126 18.3334 19.8904 18.1035C21.1956 16.4152 21.9699 14.2971 21.9699 12.0002C21.9699 9.7032 21.1955 7.5934 19.89 5.90633Z" fill="#0E1117"/>
<path d="M12.0002 16.4999C11.1722 16.4999 10.4013 16.2715 9.73571 15.8809C9.52469 15.7571 9.2533 15.7768 9.0803 15.9498L5.83073 19.1994C5.62525 19.4049 5.63699 19.7426 5.8669 19.9204C7.55521 21.2256 9.67336 21.9999 11.9702 21.9999C14.2773 21.9999 16.3971 21.2249 18.078 19.9107C18.306 19.7324 18.3166 19.3963 18.112 19.1917L14.8874 15.9671C14.7156 15.7953 14.4465 15.7745 14.236 15.8959C13.573 16.2785 12.8116 16.4999 12.0002 16.4999Z" fill="#0E1117"/>
</svg>
