<svg width="24" height="24" viewBox="0 0 24 24" fill="none" xmlns="http://www.w3.org/2000/svg">
<path d="M15.4115 18.5899C15.0115 18.5899 14.6815 18.2599 14.6815 17.8599C14.6815 17.4599 15.0115 17.1299 15.4115 17.1299C18.2315 17.1299 20.5315 14.8299 20.5315 12.0099C20.5315 9.18992 18.2315 6.88992 15.4115 6.88992C12.5915 6.88992 10.2915 9.18992 10.2915 12.0099C10.2915 12.4099 9.96154 12.7399 9.56154 12.7399C9.16154 12.7399 8.83154 12.4099 8.83154 12.0099C8.83154 8.37992 11.7815 5.41992 15.4215 5.41992C19.0615 5.41992 22.0015 8.36992 22.0015 11.9999C22.0015 15.6299 19.0515 18.5899 15.4115 18.5899Z" fill="#0E1117"/>
<path d="M8.59146 5.41016C8.99147 5.41016 9.32146 5.74016 9.32146 6.14016C9.32146 6.54016 8.99147 6.87016 8.59146 6.87016C5.77147 6.87016 3.47146 9.17016 3.47146 11.9902C3.47146 14.8102 5.77147 17.1102 8.59146 17.1102C11.4115 17.1102 13.7115 14.8102 13.7115 11.9902C13.7115 11.5902 14.0415 11.2602 14.4415 11.2602C14.8415 11.2602 15.1715 11.5902 15.1715 11.9902C15.1715 15.6202 12.2215 18.5802 8.58146 18.5802C4.94146 18.5802 2.00146 15.6302 2.00146 12.0002C2.00146 8.37016 4.95146 5.41016 8.59146 5.41016Z" fill="#0E1117"/>
</svg>
