<svg width="24" height="24" viewBox="0 0 24 24" fill="none" xmlns="http://www.w3.org/2000/svg">
<path opacity="0.4" d="M22.0015 7.81V16.19C22.0015 19.83 19.8315 22 16.1915 22H7.81146C7.61146 22 7.41146 21.99 7.22146 21.98C5.99146 21.9 4.95146 21.55 4.13146 20.95C3.71147 20.66 3.34146 20.29 3.05146 19.87C2.36146 18.92 2.00146 17.68 2.00146 16.19V7.81C2.00146 4.37 3.94146 2.24 7.22146 2.03C7.41146 2.01 7.61146 2 7.81146 2H16.1915C17.6815 2 18.9215 2.36 19.8715 3.05C20.2915 3.34 20.6615 3.71 20.9515 4.13C21.6415 5.08 22.0015 6.32 22.0015 7.81Z" fill="#0E1117"/>
<path d="M15.8716 6.00977H10.4916C10.0816 6.00977 9.7416 6.34977 9.7416 6.75977C9.7416 7.16977 10.0816 7.50977 10.4916 7.50977H12.3816L10.1416 16.4798H8.1416C7.7316 16.4798 7.3916 16.8198 7.3916 17.2298C7.3916 17.6398 7.7316 17.9798 8.1416 17.9798H13.5216C13.9316 17.9798 14.2716 17.6398 14.2716 17.2298C14.2716 16.8198 13.9316 16.4798 13.5216 16.4798H11.6816L13.9216 7.50977H15.8716C16.2816 7.50977 16.6216 7.16977 16.6216 6.75977C16.6216 6.34977 16.2816 6.00977 15.8716 6.00977Z" fill="#0E1117"/>
</svg>
