<svg width="24" height="24" viewBox="0 0 24 24" fill="none" xmlns="http://www.w3.org/2000/svg">
<path d="M23.0001 15.3699V17.5599C23.0001 19.9999 21.2201 22.2999 18.8001 22.9699C18.6301 23.0099 18.4501 23.0099 18.2901 22.9699C17.1101 22.6499 16.0701 21.9299 15.3401 20.9999C14.5501 20.0199 14.0901 18.8099 14.0901 17.5599V15.3699C14.0901 14.9499 14.4001 14.49 14.7801 14.33L17.5601 13.1899C18.1901 12.9399 18.8901 12.9399 19.5201 13.1899L20.5201 13.5999L22.3101 14.33C22.6901 14.49 23.0001 14.9499 23.0001 15.3699Z" fill="#0E1117"/>
<path opacity="0.4" d="M20.9501 11.0098L20.52 13.5998L19.52 13.1898C18.89 12.9398 18.19 12.9398 17.56 13.1898L14.78 14.3298C14.4 14.4898 14.09 14.9498 14.09 15.3698V17.5598C14.09 18.8098 14.55 20.0198 15.34 20.9998H6.18003C4.81003 20.9998 3.52005 19.9098 3.29005 18.5598L2.03004 11.0098C1.87004 10.0798 2.34002 8.8298 3.08002 8.2398L9.66004 2.97979C10.67 2.16979 12.31 2.1698 13.32 2.9898L19.9 8.2398C20.63 8.8298 21.1101 10.0798 20.9501 11.0098Z" fill="#0E1117"/>
</svg>
