<svg width="24" height="24" viewBox="0 0 24 24" fill="none" xmlns="http://www.w3.org/2000/svg">
<path d="M3.1709 7.43994L12.0009 12.5499L20.7709 7.46991" stroke="#0E1117" stroke-width="1.5" stroke-linecap="round" stroke-linejoin="round"/>
<path d="M12.001 21.61V12.54" stroke="#0E1117" stroke-width="1.5" stroke-linecap="round" stroke-linejoin="round"/>
<path d="M21.6106 12.83V9.17C21.6106 7.79 20.6206 6.11002 19.4106 5.44002L14.0706 2.48C12.9306 1.84 11.0706 1.84 9.9306 2.48L4.59061 5.44002C3.38061 6.11002 2.39062 7.79 2.39062 9.17V14.83C2.39062 16.21 3.38061 17.89 4.59061 18.56L9.9306 21.52C10.5006 21.84 11.2506 22 12.0006 22C12.7506 22 13.5006 21.84 14.0706 21.52" stroke="#0E1117" stroke-width="1.5" stroke-linecap="round" stroke-linejoin="round"/>
<path d="M19.201 21.4C20.9683 21.4 22.401 19.9673 22.401 18.2C22.401 16.4327 20.9683 15 19.201 15C17.4337 15 16.001 16.4327 16.001 18.2C16.001 19.9673 17.4337 21.4 19.201 21.4Z" stroke="#0E1117" stroke-width="1.5" stroke-linecap="round" stroke-linejoin="round"/>
<path d="M23.001 22L22.001 21" stroke="#0E1117" stroke-width="1.5" stroke-linecap="round" stroke-linejoin="round"/>
</svg>
