<svg width="24" height="24" viewBox="0 0 24 24" fill="none" xmlns="http://www.w3.org/2000/svg">
<path d="M13.4919 13.3799H11.0019C10.7019 13.3799 10.4619 13.6199 10.4619 13.9199C10.4619 14.2199 10.7019 14.4599 11.0019 14.4599H13.4919C13.7919 14.4599 14.0319 14.2199 14.0319 13.9199C14.0319 13.6199 13.7919 13.3799 13.4919 13.3799Z" fill="#0E1117"/>
<path d="M9.44185 13.3799H8.19185C7.89185 13.3799 7.65186 13.6199 7.65186 13.9199C7.65186 14.2199 7.89185 14.4599 8.19185 14.4599H9.44185C9.74185 14.4599 9.98185 14.2199 9.98185 13.9199C9.98185 13.6199 9.74185 13.3799 9.44185 13.3799Z" fill="#0E1117"/>
<path d="M18.542 4.21994L13.042 2.15994C12.472 1.94994 11.542 1.94994 10.972 2.15994L5.472 4.21994C4.412 4.61994 3.552 5.85994 3.552 6.98994V15.0899C3.552 15.8999 4.082 16.9699 4.732 17.4499L10.232 21.5599C11.202 22.2899 12.792 22.2899 13.762 21.5599L19.262 17.4499C19.912 16.9599 20.442 15.8999 20.442 15.0899V6.98994C20.452 5.85994 19.592 4.61994 18.542 4.21994ZM18.172 13.6499C18.152 15.7199 17.582 16.2399 15.432 16.2399H8.582C6.392 16.2399 5.842 15.6999 5.842 13.5299V11.1999C5.842 10.9199 6.062 10.6999 6.342 10.6999H17.672C17.952 10.6999 18.172 10.9199 18.172 11.1999V13.6499ZM18.172 9.10994C18.172 9.38994 17.952 9.60994 17.672 9.60994H6.342C6.062 9.60994 5.842 9.38994 5.842 9.10994V8.46994C5.842 6.50994 6.302 5.87994 8.012 5.76994C8.192 5.76994 8.382 5.75994 8.582 5.75994H15.432C17.622 5.75994 18.172 6.29994 18.172 8.46994V9.10994Z" fill="#0E1117"/>
</svg>
