<svg width="24" height="24" viewBox="0 0 24 24" fill="none" xmlns="http://www.w3.org/2000/svg">
<path d="M19.502 3.67C19.502 3.66 19.502 3.65 19.482 3.64C19.262 3.36 18.972 3.21 18.632 3.21C18.102 3.21 17.462 3.56 16.772 4.3C15.952 5.18 14.692 5.11 13.972 4.15L12.962 2.81C12.562 2.27 12.032 2 11.502 2C10.972 2 10.442 2.27 10.042 2.81L9.02195 4.16C8.31195 5.11 7.06195 5.18 6.24195 4.31L6.23195 4.3C5.10195 3.09 4.09195 2.91 3.52195 3.64C3.50195 3.65 3.50195 3.66 3.50195 3.67C3.14195 4.44 3.00195 5.52 3.00195 7.04V16.96C3.00195 18.48 3.14195 19.56 3.50195 20.33C3.50195 20.34 3.51195 20.36 3.52195 20.37C4.10195 21.09 5.10195 20.91 6.23195 19.7L6.24195 19.69C7.06195 18.82 8.31195 18.89 9.02195 19.84L10.042 21.19C10.442 21.73 10.972 22 11.502 22C12.032 22 12.562 21.73 12.962 21.19L13.972 19.85C14.692 18.89 15.952 18.82 16.772 19.7C17.462 20.44 18.102 20.79 18.632 20.79C18.972 20.79 19.262 20.65 19.482 20.37C19.492 20.36 19.502 20.34 19.502 20.33C19.862 19.56 20.002 18.48 20.002 16.96V7.04C20.002 5.52 19.862 4.44 19.502 3.67ZM14.002 14.5H8.00195C7.59195 14.5 7.25195 14.16 7.25195 13.75C7.25195 13.34 7.59195 13 8.00195 13H14.002C14.412 13 14.752 13.34 14.752 13.75C14.752 14.16 14.412 14.5 14.002 14.5ZM16.002 11H8.00195C7.59195 11 7.25195 10.66 7.25195 10.25C7.25195 9.84 7.59195 9.5 8.00195 9.5H16.002C16.412 9.5 16.752 9.84 16.752 10.25C16.752 10.66 16.412 11 16.002 11Z" fill="#0E1117"/>
</svg>
