<svg width="24" height="24" viewBox="0 0 24 24" fill="none" xmlns="http://www.w3.org/2000/svg">
<path opacity="0.4" d="M12.0015 22C17.5243 22 22.0015 17.5228 22.0015 12C22.0015 6.47715 17.5243 2 12.0015 2C6.47862 2 2.00146 6.47715 2.00146 12C2.00146 17.5228 6.47862 22 12.0015 22Z" fill="#0E1117"/>
<path d="M8.19147 16.7798H9.68146C10.7715 16.7798 11.6215 15.9298 11.6215 14.8398V13.3497C11.6215 12.2597 10.7715 11.4097 9.68146 11.4097H7.77147C7.85147 9.59973 8.27146 9.32975 9.48146 8.61975C9.84146 8.40975 9.95147 7.94978 9.74147 7.58978C9.60147 7.34978 9.35146 7.21973 9.09146 7.21973C8.96146 7.21973 8.83147 7.24976 8.71147 7.31976C6.92147 8.37976 6.25146 9.06978 6.25146 12.1498V14.8198C6.25146 15.9098 7.12147 16.7798 8.19147 16.7798Z" fill="#0E1117"/>
<path d="M14.3214 16.7798H15.8113C16.9013 16.7798 17.7513 15.9298 17.7513 14.8398V13.3497C17.7513 12.2597 16.9013 11.4097 15.8113 11.4097H13.9013C13.9813 9.59973 14.4013 9.32975 15.6113 8.61975C15.9713 8.40975 16.0813 7.94978 15.8713 7.58978C15.7313 7.34978 15.4813 7.21973 15.2213 7.21973C15.0913 7.21973 14.9613 7.24976 14.8413 7.31976C13.0513 8.37976 12.3813 9.06978 12.3813 12.1498V14.8198C12.3913 15.9098 13.2614 16.7798 14.3214 16.7798Z" fill="#0E1117"/>
</svg>
