<svg width="24" height="24" viewBox="0 0 24 24" fill="none" xmlns="http://www.w3.org/2000/svg">
<path d="M13 19.75H7C2.59 19.75 1.25 18.41 1.25 14V10C1.25 5.59 2.59 4.25 7 4.25H13C17.41 4.25 18.75 5.59 18.75 10V14C18.75 18.41 17.41 19.75 13 19.75ZM7 5.75C3.42 5.75 2.75 6.43 2.75 10V14C2.75 17.57 3.42 18.25 7 18.25H13C16.58 18.25 17.25 17.57 17.25 14V10C17.25 6.43 16.58 5.75 13 5.75H7Z" fill="#0E1117"/>
<path d="M20.5 15.25C20.09 15.25 19.75 14.91 19.75 14.5C19.75 14.09 20.09 13.75 20.5 13.75C21.09 13.75 21.22 13.66 21.23 13.66C21.25 13.6 21.25 13.25 21.25 13V11C21.25 10.75 21.25 10.41 21.21 10.32C21.2 10.33 21.05 10.25 20.5 10.25C20.09 10.25 19.75 9.91 19.75 9.5C19.75 9.09 20.09 8.75 20.5 8.75C22.58 8.75 22.75 9.77 22.75 11V13C22.75 14.23 22.58 15.25 20.5 15.25Z" fill="#0E1117"/>
<path d="M6.37995 14.7501C6.31995 14.7501 6.25995 14.7401 6.19995 14.7301C5.79995 14.6301 5.54995 14.2201 5.64995 13.8201C5.94995 12.6301 5.94995 11.3701 5.64995 10.1801C5.54995 9.7801 5.78995 9.3701 6.19995 9.2701C6.58995 9.1701 6.99995 9.4201 7.09995 9.8201C7.45995 11.2501 7.45995 12.7601 7.09995 14.1801C7.01995 14.5201 6.70995 14.7501 6.37995 14.7501Z" fill="#0E1117"/>
</svg>
