<svg width="24" height="24" viewBox="0 0 24 24" fill="none" xmlns="http://www.w3.org/2000/svg">
<path opacity="0.4" d="M16.19 2H7.81C4.17 2 2 4.17 2 7.81V16.18C2 19.83 4.17 22 7.81 22H16.18C19.82 22 21.99 19.83 21.99 16.19V7.81C22 4.17 19.83 2 16.19 2Z" fill="#0E1117"/>
<path d="M16.7485 7H11.9185C11.5085 7 11.1685 7.34 11.1685 7.75C11.1685 8.16 11.5085 8.5 11.9185 8.5H14.9385L7.21848 16.22C6.92848 16.51 6.92848 16.99 7.21848 17.28C7.36848 17.43 7.55848 17.5 7.74848 17.5C7.93848 17.5 8.12848 17.43 8.27848 17.28L15.9985 9.56V12.58C15.9985 12.99 16.3385 13.33 16.7485 13.33C17.1585 13.33 17.4985 12.99 17.4985 12.58V7.75C17.4985 7.34 17.1585 7 16.7485 7Z" fill="#0E1117"/>
</svg>
