<svg width="24" height="24" viewBox="0 0 24 24" fill="none" xmlns="http://www.w3.org/2000/svg">
<g opacity="0.4">
<path d="M7.00146 12.1597H9.68146C10.3915 12.1597 10.8715 12.6997 10.8715 13.3497V14.8397C10.8715 15.4897 10.3915 16.0297 9.68146 16.0297H8.19147C7.54147 16.0297 7.00146 15.4897 7.00146 14.8397V12.1597Z" stroke="#0E1117" stroke-width="1.5" stroke-linecap="round" stroke-linejoin="round"/>
<path d="M7.00146 12.1597C7.00146 9.36973 7.52146 8.89973 9.09146 7.96973" stroke="#0E1117" stroke-width="1.5" stroke-linecap="round" stroke-linejoin="round"/>
<path d="M13.1416 12.1597H15.8216C16.5316 12.1597 17.0116 12.6997 17.0116 13.3497V14.8397C17.0116 15.4897 16.5316 16.0297 15.8216 16.0297H14.3316C13.6816 16.0297 13.1416 15.4897 13.1416 14.8397V12.1597Z" stroke="#0E1117" stroke-width="1.5" stroke-linecap="round" stroke-linejoin="round"/>
<path d="M13.1416 12.1597C13.1416 9.36973 13.6616 8.89973 15.2316 7.96973" stroke="#0E1117" stroke-width="1.5" stroke-linecap="round" stroke-linejoin="round"/>
</g>
<path d="M12.0015 22C17.5243 22 22.0015 17.5228 22.0015 12C22.0015 6.47715 17.5243 2 12.0015 2C6.47862 2 2.00146 6.47715 2.00146 12C2.00146 17.5228 6.47862 22 12.0015 22Z" stroke="#0E1117" stroke-width="1.5" stroke-linecap="round" stroke-linejoin="round"/>
</svg>
