<svg width="24" height="24" viewBox="0 0 24 24" fill="none" xmlns="http://www.w3.org/2000/svg">
<path d="M1.8999 10.0298H21.8999" stroke="#0E1117" stroke-width="1.5" stroke-miterlimit="10" stroke-linecap="round" stroke-linejoin="round"/>
<path d="M11.4599 20.53H6.34985C2.79985 20.53 1.8999 19.65 1.8999 16.14V7.92004C1.8999 4.74004 2.63987 3.72004 5.42987 3.56004C5.70987 3.55004 6.01985 3.54004 6.34985 3.54004H17.4599C21.0099 3.54004 21.9099 4.42004 21.9099 7.93004V12.34" stroke="#0E1117" stroke-width="1.5" stroke-linecap="round" stroke-linejoin="round"/>
<path opacity="0.4" d="M17.8999 22.0298C20.109 22.0298 21.8999 20.2389 21.8999 18.0298C21.8999 15.8206 20.109 14.0298 17.8999 14.0298C15.6908 14.0298 13.8999 15.8206 13.8999 18.0298C13.8999 20.2389 15.6908 22.0298 17.8999 22.0298Z" stroke="#0E1117" stroke-width="1.5" stroke-miterlimit="10" stroke-linecap="round" stroke-linejoin="round"/>
<g opacity="0.4">
<path d="M18.9698 19.1503L16.8599 17.0303" stroke="#0E1117" stroke-width="1.5" stroke-miterlimit="10" stroke-linecap="round" stroke-linejoin="round"/>
<path d="M18.9501 17.0601L16.8301 19.1701" stroke="#0E1117" stroke-width="1.5" stroke-miterlimit="10" stroke-linecap="round" stroke-linejoin="round"/>
</g>
<path opacity="0.4" d="M5.8999 16.0298H9.8999" stroke="#0E1117" stroke-width="1.5" stroke-miterlimit="10" stroke-linecap="round" stroke-linejoin="round"/>
</svg>
