<svg width="24" height="24" viewBox="0 0 24 24" fill="none" xmlns="http://www.w3.org/2000/svg">
<path opacity="0.4" d="M16.19 2H7.81C4.17 2 2 4.17 2 7.81V16.18C2 19.83 4.17 22 7.81 22H16.18C19.82 22 21.99 19.83 21.99 16.19V7.81C22 4.17 19.83 2 16.19 2Z" fill="#0E1117"/>
<path d="M21.8298 3.55022C20.7798 6.16022 18.3998 9.57022 16.1198 11.8002C15.7898 9.74022 14.1498 8.13022 12.0698 7.84022C14.3098 5.56022 17.7398 3.14022 20.3598 2.08022C20.8198 1.90022 21.2898 2.04022 21.5698 2.33022C21.8798 2.63022 22.0198 3.09022 21.8298 3.55022Z" fill="#0E1117"/>
<path opacity="0.4" d="M16.1202 11.7901C15.7202 12.1801 15.3202 12.5401 14.9402 12.8401L13.3702 14.1001C13.1702 14.2401 12.9702 14.3601 12.7502 14.4601C12.7502 14.3101 12.7302 14.1601 12.7202 14.0001C12.6302 13.3401 12.3302 12.7101 11.7902 12.1701C11.2402 11.6301 10.5802 11.3201 9.91018 11.2301C9.75018 11.2101 9.58018 11.2101 9.43018 11.2101C9.52018 10.9601 9.65018 10.7301 9.82018 10.5401L11.0702 8.97008C11.3702 8.59008 11.7102 8.21008 12.0802 7.83008C14.1502 8.12008 15.8002 9.74008 16.1202 11.7901Z" fill="#0E1117"/>
<path d="M12.7501 14.47C12.7501 15.35 12.4101 16.19 11.7801 16.82C11.2901 17.31 10.6401 17.65 9.84007 17.75L7.88007 17.97C6.81007 18.09 5.89007 17.17 6.01007 16.09L6.23007 14.13C6.42007 12.38 7.88007 11.26 9.43007 11.23C9.58007 11.22 9.75007 11.23 9.91007 11.25C10.5901 11.34 11.2401 11.65 11.7901 12.19C12.3201 12.72 12.6301 13.36 12.7201 14.02C12.7301 14.17 12.7501 14.32 12.7501 14.47Z" fill="#0E1117"/>
</svg>
