<svg width="24" height="24" viewBox="0 0 24 24" fill="none" xmlns="http://www.w3.org/2000/svg">
<path d="M19.48 7.09003C19.22 6.77003 18.75 6.72003 18.43 6.98003C18.11 7.24003 18.06 7.71003 18.32 8.03003C19.45 9.43003 20.08 11.09 20.14 12.83C20.3 17.31 16.78 21.09 12.29 21.24C7.80003 21.4 4.03003 17.88 3.87003 13.4C3.71003 8.92003 7.23003 5.14003 11.72 4.99003C12.29 4.97003 12.89 5.02003 13.54 5.15003C13.58 5.16003 13.62 5.15003 13.66 5.15003C13.76 5.20003 13.88 5.23003 13.99 5.23003C14.16 5.23003 14.32 5.18003 14.46 5.06003C14.78 4.80003 14.83 4.33003 14.58 4.01003L12.6 1.54003C12.34 1.22003 11.87 1.16003 11.55 1.42003C11.23 1.68003 11.18 2.15003 11.43 2.47003L12.26 3.50003C12.07 3.49003 11.87 3.48003 11.68 3.49003C6.37003 3.67003 2.20003 8.15003 2.39003 13.46C2.58003 18.77 7.05003 22.94 12.36 22.75C17.67 22.56 21.84 18.09 21.65 12.78C21.56 10.71 20.82 8.74003 19.48 7.09003Z" fill="#0E1117"/>
<path d="M12.3801 16.9201H10.0901C9.68013 16.9201 9.34013 16.5801 9.34013 16.1701C9.34013 15.7601 9.68013 15.4201 10.0901 15.4201H12.3801C12.8101 15.4201 13.1601 15.0701 13.1601 14.6401C13.1601 14.2101 12.8101 13.8601 12.3801 13.8601H10.0901C9.85013 13.8601 9.62013 13.7401 9.48013 13.5501C9.34013 13.3601 9.30013 13.1001 9.38013 12.8701L10.1401 10.5801C10.2401 10.2701 10.5301 10.0701 10.8501 10.0701H13.9101C14.3201 10.0701 14.6601 10.4101 14.6601 10.8201C14.6601 11.2301 14.3201 11.5701 13.9101 11.5701H11.3901L11.1301 12.3601H12.3801C13.6401 12.3601 14.6601 13.3801 14.6601 14.6401C14.6601 15.9001 13.6401 16.9201 12.3801 16.9201Z" fill="#0E1117"/>
</svg>
