<svg width="24" height="24" viewBox="0 0 24 24" fill="none" xmlns="http://www.w3.org/2000/svg">
<path d="M17.9998 3.02011C18.6798 2.66011 19.3398 2.35011 19.9598 2.10011C20.5498 1.88011 21.1198 2.04011 21.4798 2.41011C21.8598 2.79011 22.0398 3.36011 21.7998 3.95011C20.2598 7.79011 16.3998 13.0101 13.1698 15.6001L11.1998 17.1801C10.9498 17.3601 10.6998 17.5201 10.4198 17.6301C10.4198 17.4501 10.4098 17.2501 10.3798 17.0601C10.2698 16.2201 9.88977 15.4401 9.21977 14.7701C8.53977 14.0901 7.70977 13.6901 6.85977 13.5801C6.65977 13.5701 6.45977 13.5501 6.25977 13.5701C6.36977 13.2601 6.53977 12.9701 6.74977 12.7301L8.30977 10.7601C9.75977 8.95011 12.0398 6.94011 14.4298 5.25011" stroke="#0E1117" stroke-width="1.5" stroke-linecap="round" stroke-linejoin="round"/>
<path d="M10.4298 17.6198C10.4298 18.7198 10.0098 19.7698 9.21979 20.5698C8.60979 21.1798 7.77979 21.5998 6.78979 21.7298L4.32979 21.9998C2.98979 22.1498 1.83979 21.0098 1.99979 19.6498L2.26979 17.1898C2.50979 14.9998 4.33979 13.5998 6.27979 13.5598C6.47979 13.5498 6.68979 13.5598 6.87979 13.5698C7.72979 13.6798 8.55979 14.0698 9.23979 14.7598C9.90979 15.4298 10.2898 16.2098 10.3998 17.0498C10.4098 17.2398 10.4298 17.4298 10.4298 17.6198Z" stroke="#0E1117" stroke-width="1.5" stroke-linecap="round" stroke-linejoin="round"/>
<path d="M14.2398 14.4702C14.2398 11.8602 12.1198 9.74023 9.50977 9.74023" stroke="#0E1117" stroke-width="1.5" stroke-linecap="round" stroke-linejoin="round"/>
<path d="M20.1202 12.73L20.8602 13.46C22.3502 14.95 22.3502 16.42 20.8602 17.91L17.9002 20.87C16.4302 22.34 14.9402 22.34 13.4702 20.87" stroke="#0E1117" stroke-width="1.5" stroke-linecap="round"/>
<path d="M3.10982 10.5101C1.63982 9.02006 1.63982 7.55006 3.10982 6.06006L6.06982 3.10006C7.53982 1.63006 9.02982 1.63006 10.4998 3.10006L11.2398 3.84006" stroke="#0E1117" stroke-width="1.5" stroke-linecap="round"/>
<path d="M11.2498 3.8501L7.5498 7.5501" stroke="#0E1117" stroke-width="1.5" stroke-linecap="round"/>
<path d="M20.1202 12.73L17.1602 15.68" stroke="#0E1117" stroke-width="1.5" stroke-linecap="round"/>
</svg>
