<svg width="24" height="24" viewBox="0 0 24 24" fill="none" xmlns="http://www.w3.org/2000/svg">
<path d="M12.005 22.7326C6.08732 22.7326 1.27734 17.9227 1.27734 12.005C1.27734 6.08732 6.08732 1.27734 12.005 1.27734C17.9227 1.27734 22.7326 6.08732 22.7326 12.005C22.7326 17.9227 17.9127 22.7326 12.005 22.7326ZM12.005 2.77423C6.9156 2.77423 2.77423 6.9156 2.77423 12.005C2.77423 17.0944 6.9156 21.2358 12.005 21.2358C17.0944 21.2358 21.2358 17.0944 21.2358 12.005C21.2358 6.9156 17.0944 2.77423 12.005 2.77423Z" fill="#0E1117"/>
<path d="M14.3001 12.9532C14.1005 12.9532 13.9109 12.8734 13.7712 12.7337L5.60816 4.55072C5.31876 4.26133 5.31876 3.78232 5.60816 3.49293C5.89756 3.20353 6.37656 3.20353 6.66596 3.49293L13.5616 10.3985L13.5716 7.66424C13.5716 7.25509 13.9109 6.9158 14.32 6.9158C14.7292 6.88586 15.0685 7.25509 15.0685 7.66424L15.0585 12.2048C15.0585 12.5042 14.8788 12.7836 14.5994 12.8933C14.4996 12.9333 14.3998 12.9532 14.3001 12.9532Z" fill="#0E1117"/>
<path d="M17.8625 20.7267C17.6729 20.7267 17.4833 20.6568 17.3336 20.5072L10.438 13.6015L10.428 16.3358C10.428 16.745 10.0887 17.0843 9.67959 17.0843C9.27045 17.0843 8.93115 16.745 8.93115 16.3358L8.94113 11.7953C8.94113 11.4959 9.12076 11.2165 9.40018 11.1067C9.67959 10.987 9.99893 11.0568 10.2185 11.2664L18.3815 19.4494C18.6709 19.7388 18.6709 20.2178 18.3815 20.5072C18.2517 20.6568 18.0522 20.7267 17.8625 20.7267Z" fill="#0E1117"/>
</svg>
