<svg width="24" height="24" viewBox="0 0 24 24" fill="none" xmlns="http://www.w3.org/2000/svg">
<path d="M21.5313 10.8699L20.0113 9.34988C19.7513 9.08988 19.5413 8.57988 19.5413 8.21988V6.05988C19.5413 5.17988 18.8213 4.45988 17.9413 4.45988H15.7913C15.4313 4.45988 14.9213 4.24988 14.6613 3.98988L13.1413 2.46988C12.5213 1.84988 11.5013 1.84988 10.8813 2.46988L9.34135 3.98988C9.09135 4.24988 8.58135 4.45988 8.21135 4.45988H6.06135C5.18135 4.45988 4.46135 5.17988 4.46135 6.05988V8.20988C4.46135 8.56988 4.25135 9.07988 3.99135 9.33988L2.47135 10.8599C1.85135 11.4799 1.85135 12.4999 2.47135 13.1199L3.99135 14.6399C4.25135 14.8999 4.46135 15.4099 4.46135 15.7699V17.9199C4.46135 18.7999 5.18135 19.5199 6.06135 19.5199H8.21135C8.57135 19.5199 9.08135 19.7299 9.34135 19.9899L10.8613 21.5099C11.4813 22.1299 12.5013 22.1299 13.1213 21.5099L14.6413 19.9899C14.9013 19.7299 15.4113 19.5199 15.7713 19.5199H17.9213C18.8013 19.5199 19.5213 18.7999 19.5213 17.9199V15.7699C19.5213 15.4099 19.7313 14.8999 19.9913 14.6399L21.5113 13.1199C22.1613 12.5099 22.1613 11.4899 21.5313 10.8699ZM8.00135 8.99988C8.00135 8.44988 8.45135 7.99988 9.00135 7.99988C9.55135 7.99988 10.0013 8.44988 10.0013 8.99988C10.0013 9.54988 9.56135 9.99988 9.00135 9.99988C8.45135 9.99988 8.00135 9.54988 8.00135 8.99988ZM9.53135 15.5299C9.38135 15.6799 9.19135 15.7499 9.00135 15.7499C8.81135 15.7499 8.62135 15.6799 8.47135 15.5299C8.18135 15.2399 8.18135 14.7599 8.47135 14.4699L14.4713 8.46988C14.7613 8.17988 15.2413 8.17988 15.5313 8.46988C15.8213 8.75988 15.8213 9.23988 15.5313 9.52988L9.53135 15.5299ZM15.0013 15.9999C14.4413 15.9999 13.9913 15.5499 13.9913 14.9999C13.9913 14.4499 14.4413 13.9999 14.9913 13.9999C15.5413 13.9999 15.9913 14.4499 15.9913 14.9999C15.9913 15.5499 15.5513 15.9999 15.0013 15.9999Z" fill="#0E1117"/>
</svg>
