<svg width="24" height="24" viewBox="0 0 24 24" fill="none" xmlns="http://www.w3.org/2000/svg">
<path d="M3.5 11V18.3C3.5 20.96 4.96001 21.59 6.73001 19.69L6.73999 19.68C7.55999 18.81 8.80999 18.88 9.51999 19.83L10.53 21.18" stroke="#0E1117" stroke-width="1.5" stroke-linecap="round" stroke-linejoin="round"/>
<path d="M20.5 11.3V7.04001C20.5 3.01001 19.56 2 15.78 2H8.22C4.44 2 3.5 3.01001 3.5 7.04001" stroke="#0E1117" stroke-width="1.5" stroke-linecap="round" stroke-linejoin="round"/>
<path d="M8 7H12.5" stroke="#0E1117" stroke-width="1.5" stroke-linecap="round" stroke-linejoin="round"/>
<path d="M15 7H17" stroke="#0E1117" stroke-width="1.5" stroke-linecap="round" stroke-linejoin="round"/>
<path d="M9 11H15" stroke="#0E1117" stroke-width="1.5" stroke-linecap="round" stroke-linejoin="round"/>
<path d="M18.21 14.7698L14.6701 18.3098C14.5301 18.4498 14.4 18.7098 14.37 18.8998L14.18 20.2498C14.11 20.7398 14.45 21.0798 14.94 21.0098L16.29 20.8198C16.48 20.7898 16.75 20.6598 16.88 20.5198L20.4201 16.9798C21.0301 16.3698 21.3201 15.6598 20.4201 14.7598C19.5301 13.8698 18.82 14.1598 18.21 14.7698Z" stroke="#0E1117" stroke-width="1.5" stroke-miterlimit="10" stroke-linecap="round" stroke-linejoin="round"/>
<path d="M17.7 15.2798C18 16.3598 18.84 17.1998 19.92 17.4998" stroke="#0E1117" stroke-width="1.5" stroke-miterlimit="10" stroke-linecap="round" stroke-linejoin="round"/>
</svg>
