<svg width="24" height="24" viewBox="0 0 24 24" fill="none" xmlns="http://www.w3.org/2000/svg">
<path opacity="0.4" d="M21.0015 22.75H3.00146C2.59146 22.75 2.25146 22.41 2.25146 22C2.25146 21.59 2.59146 21.25 3.00146 21.25H21.0015C21.4115 21.25 21.7515 21.59 21.7515 22C21.7515 22.41 21.4115 22.75 21.0015 22.75Z" fill="#0E1117"/>
<path opacity="0.4" d="M21.0015 2.75H3.00146C2.59146 2.75 2.25146 2.41 2.25146 2C2.25146 1.59 2.59146 1.25 3.00146 1.25H21.0015C21.4115 1.25 21.7515 1.59 21.7515 2C21.7515 2.41 21.4115 2.75 21.0015 2.75Z" fill="#0E1117"/>
<path d="M14.3013 15.3599L12.7513 16.9099V6.6999L14.3013 8.2499C14.4513 8.3999 14.6413 8.4699 14.8313 8.4699C15.0213 8.4699 15.2113 8.3999 15.3613 8.2499C15.6513 7.9599 15.6513 7.4799 15.3613 7.1899L12.5313 4.3599C12.2513 4.0799 11.7513 4.0799 11.4713 4.3599L8.64133 7.1899C8.35133 7.4799 8.35133 7.9599 8.64133 8.2499C8.93133 8.5399 9.41133 8.5399 9.70133 8.2499L11.2513 6.6999V16.9099L9.70133 15.3599C9.41133 15.0699 8.93133 15.0699 8.64133 15.3599C8.35133 15.6499 8.35133 16.1299 8.64133 16.4199L11.4713 19.2499C11.6113 19.3899 11.8013 19.4699 12.0013 19.4699C12.2013 19.4699 12.3913 19.3899 12.5313 19.2499L15.3613 16.4199C15.6513 16.1299 15.6513 15.6499 15.3613 15.3599C15.0713 15.0699 14.5913 15.0699 14.3013 15.3599Z" fill="#0E1117"/>
</svg>
