<svg width="24" height="24" viewBox="0 0 24 24" fill="none" xmlns="http://www.w3.org/2000/svg">
<path d="M22.0022 10.9702V13.0302C22.0022 13.5802 21.5622 14.0302 21.0022 14.0502H19.0422C17.9622 14.0502 16.9722 13.2602 16.8822 12.1802C16.8222 11.5502 17.0622 10.9602 17.4822 10.5502C17.8522 10.1702 18.3622 9.9502 18.9222 9.9502H21.0022C21.5622 9.9702 22.0022 10.4202 22.0022 10.9702Z" fill="#0E1117"/>
<path d="M20.472 15.55H19.042C17.142 15.55 15.542 14.12 15.382 12.3C15.292 11.26 15.672 10.22 16.432 9.48C17.072 8.82 17.962 8.45 18.922 8.45H20.472C20.762 8.45 21.002 8.21 20.972 7.92C20.752 5.49 19.142 3.83 16.752 3.55C16.512 3.51 16.262 3.5 16.002 3.5H7.00195C6.72195 3.5 6.45195 3.52 6.19195 3.56C3.64195 3.88 2.00195 5.78 2.00195 8.5V15.5C2.00195 18.26 4.24195 20.5 7.00195 20.5H16.002C18.802 20.5 20.732 18.75 20.972 16.08C21.002 15.79 20.762 15.55 20.472 15.55ZM13.002 9.75H7.00195C6.59195 9.75 6.25195 9.41 6.25195 9C6.25195 8.59 6.59195 8.25 7.00195 8.25H13.002C13.412 8.25 13.752 8.59 13.752 9C13.752 9.41 13.412 9.75 13.002 9.75Z" fill="#0E1117"/>
</svg>
