<svg width="24" height="24" viewBox="0 0 24 24" fill="none" xmlns="http://www.w3.org/2000/svg">
<path d="M18.7 14.4595C18.35 14.8095 18.15 15.5095 18.26 15.9895L18.95 19.0095C19.24 20.2595 19.06 21.1995 18.44 21.6495C18.19 21.8295 17.89 21.9195 17.54 21.9195C17.03 21.9195 16.43 21.7295 15.77 21.3395L12.84 19.5995C12.38 19.3295 11.62 19.3295 11.16 19.5995L8.22995 21.3395C7.11995 21.9895 6.16995 22.0995 5.55995 21.6495C5.51995 21.6195 5.47995 21.5895 5.44995 21.5495L18.07 8.92955C18.53 8.46955 19.18 8.25955 19.82 8.36955L19.97 8.39955C21.03 8.57955 21.74 9.05955 21.97 9.75955C22.19 10.4595 21.8899 11.2695 21.13 12.0295L18.7 14.4595Z" fill="#0E1117"/>
<path d="M5.73998 16C5.84998 15.52 5.64998 14.81 5.29998 14.46L2.86998 12.03C2.10998 11.27 1.80998 10.46 2.02998 9.76C2.25998 9.06 2.96998 8.58 4.02998 8.4L7.14998 7.88C7.59998 7.8 8.14998 7.4 8.35998 6.99L10.08 3.54C10.58 2.55 11.26 2 12 2C12.74 2 13.42 2.55 13.92 3.54L15.64 6.99C15.77 7.25 16.04 7.5 16.33 7.67L5.06998 18.93L5.73998 16Z" fill="#0E1117"/>
<path d="M21.77 2.22988C21.47 1.92988 20.98 1.92988 20.68 2.22988L2.23 20.6899C1.93 20.9899 1.93 21.4799 2.23 21.7799C2.38 21.9199 2.57 21.9999 2.77 21.9999C2.97 21.9999 3.16 21.9199 3.31 21.7699L21.77 3.30988C22.08 3.00988 22.08 2.52988 21.77 2.22988Z" fill="#0E1117"/>
</svg>
