<svg width="24" height="24" viewBox="0 0 24 24" fill="none" xmlns="http://www.w3.org/2000/svg">
<path opacity="0.4" d="M14.79 6H9.21004C4.79004 6 4.79004 8.35 4.79004 10.42V12.21C4.79004 12.43 4.89004 12.63 5.06004 12.76C5.23004 12.89 5.46004 12.94 5.67004 12.88C6.12004 12.76 6.68004 12.7 7.35004 12.7C8.02004 12.7 8.16004 12.78 8.56004 13.08L9.47004 14.04C10.12 14.74 11.05 15.14 12.01 15.14C12.97 15.14 13.89 14.74 14.55 14.04L15.46 13.08C15.86 12.78 16 12.7 16.67 12.7C17.34 12.7 17.9 12.76 18.35 12.88C18.56 12.94 18.78 12.89 18.96 12.76C19.13 12.63 19.23 12.42 19.23 12.21V10.42C19.21 8.35 19.21 6 14.79 6Z" fill="#0E1117"/>
<path d="M14.28 4.95C14.02 5.21 13.59 5.21 13.33 4.95L12.68 4.3V9.07C12.68 9.44 12.38 9.75 12 9.75C11.62 9.75 11.32 9.45 11.32 9.07V4.3L10.67 4.95C10.41 5.21 9.98002 5.21 9.72002 4.95C9.46002 4.69 9.46002 4.26 9.72002 4L11.52 2.2C11.53 2.19 11.53 2.19 11.54 2.19C11.6 2.14 11.66 2.09 11.74 2.06C11.83 2.02 11.91 2 12 2C12.09 2 12.17 2.02 12.26 2.05C12.34 2.08 12.42 2.13 12.48 2.2L14.28 4C14.54 4.26 14.54 4.69 14.28 4.95Z" fill="#0E1117"/>
<path d="M18.6901 11.5298C18.1201 11.3798 17.4501 11.2998 16.6501 11.2998C15.5401 11.2998 15.1301 11.5698 14.5601 11.9998C14.5301 12.0198 14.5001 12.0498 14.4701 12.0798L13.5201 13.0898C12.7201 13.9298 11.2801 13.9398 10.4801 13.0798L9.53005 12.0798C9.50005 12.0498 9.47005 12.0198 9.44005 11.9998C8.87005 11.5698 8.46005 11.2998 7.35005 11.2998C6.55005 11.2998 5.88005 11.3798 5.31005 11.5298C2.93005 12.1698 2.93005 14.0598 2.93005 15.7198V16.6498C2.93005 19.1598 2.93005 21.9998 8.28005 21.9998H15.7201C19.2701 21.9998 21.0701 20.1998 21.0701 16.6498V15.7198C21.0701 14.0598 21.0701 12.1698 18.6901 11.5298ZM14.3301 18.3998H9.67005C9.29005 18.3998 8.98005 18.0898 8.98005 17.6998C8.98005 17.3098 9.29005 16.9998 9.67005 16.9998H14.3301C14.7101 16.9998 15.0201 17.3098 15.0201 17.6998C15.0201 18.0898 14.7101 18.3998 14.3301 18.3998Z" fill="#0E1117"/>
<path opacity="0.4" d="M15.02 17.7C15.02 18.09 14.71 18.4 14.33 18.4H9.66998C9.28998 18.4 8.97998 18.09 8.97998 17.7C8.97998 17.31 9.28998 17 9.66998 17H14.33C14.71 17 15.02 17.31 15.02 17.7Z" fill="#0E1117"/>
</svg>
