<svg width="24" height="24" viewBox="0 0 24 24" fill="none" xmlns="http://www.w3.org/2000/svg">
<path d="M8.93147 2H5.02146C3.00146 2 2.00146 3 2.00146 5.02V8.94C2.00146 11 3.00146 12 5.02146 11.95H8.94146C11.0015 12 12.0015 11 11.9515 8.93V5.02C12.0015 3 11.0015 2 8.93147 2ZM9.01147 9.76C8.33147 9.76 7.67146 9.5 7.12146 9.04C6.50146 9.49 5.75146 9.76 4.94146 9.76C4.53146 9.76 4.19146 9.42 4.19146 9.01C4.19146 8.6 4.53146 8.26 4.94146 8.26C5.96146 8.26 6.81146 7.56 7.12146 6.6H4.94146C4.53146 6.6 4.19146 6.26 4.19146 5.85C4.19146 5.44 4.53146 5.1 4.94146 5.1H6.23146C6.27146 4.72 6.58146 4.42 6.97146 4.42C7.36146 4.42 7.67146 4.72 7.71146 5.1H7.97146C7.98146 5.1 7.99146 5.1 7.99146 5.1H8.01147H9.00146C9.41146 5.1 9.75146 5.44 9.75146 5.85C9.75146 6.26 9.42146 6.6 9.00146 6.6H8.67146C8.58146 7.08 8.39147 7.53 8.14147 7.94C8.41147 8.14 8.70147 8.26 9.01147 8.26C9.42146 8.26 9.76147 8.6 9.76147 9.01C9.76147 9.42 9.42146 9.76 9.01147 9.76Z" fill="#0E1117"/>
<path d="M9.00146 22.75C4.73146 22.75 1.25146 19.27 1.25146 15C1.25146 14.59 1.59146 14.25 2.00146 14.25C2.41146 14.25 2.75146 14.59 2.75146 15C2.75146 17.96 4.81146 20.44 7.58146 21.09L7.31146 20.64C7.10146 20.28 7.21146 19.82 7.57147 19.61C7.92146 19.4 8.39147 19.51 8.60147 19.87L9.65146 21.62C9.79146 21.85 9.79146 22.14 9.66146 22.37C9.52146 22.6 9.27147 22.75 9.00146 22.75Z" fill="#0E1117"/>
<path d="M22.0014 9.75C21.5914 9.75 21.2514 9.41 21.2514 9C21.2514 6.04 19.1914 3.56 16.4214 2.91L16.6914 3.36C16.9014 3.72 16.7914 4.18 16.4314 4.39C16.0814 4.6 15.6114 4.49 15.4014 4.13L14.3514 2.38C14.2114 2.15 14.2114 1.86 14.3414 1.63C14.4814 1.4 14.7314 1.25 15.0014 1.25C19.2714 1.25 22.7514 4.73 22.7514 9C22.7514 9.41 22.4114 9.75 22.0014 9.75Z" fill="#0E1117"/>
<path d="M16.9213 11.8501C14.1213 11.8501 11.8413 14.1201 11.8413 16.9301C11.8413 19.7301 14.1113 22.0101 16.9213 22.0101C19.7213 22.0101 22.0013 19.7401 22.0013 16.9301C22.0013 14.1201 19.7313 11.8501 16.9213 11.8501ZM19.4013 19.3401C19.0313 19.5201 18.5813 19.3801 18.3913 19.0001L18.2213 18.6601H15.6313L15.4613 19.0001C15.3313 19.2601 15.0613 19.4101 14.7913 19.4101C14.6813 19.4101 14.5613 19.3801 14.4613 19.3301C14.0913 19.1401 13.9413 18.6901 14.1213 18.3201L16.2613 14.0501C16.3913 13.8001 16.6513 13.6401 16.9313 13.6401C17.2113 13.6401 17.4713 13.8001 17.6013 14.0601L19.7413 18.3301C19.9213 18.7001 19.7713 19.1501 19.4013 19.3401Z" fill="#0E1117"/>
<path d="M16.3813 17.1598H17.4713L16.9213 16.0698L16.3813 17.1598Z" fill="#0E1117"/>
</svg>
