<svg width="24" height="24" viewBox="0 0 24 24" fill="none" xmlns="http://www.w3.org/2000/svg">
<path opacity="0.4" d="M16.1898 2H7.81976C4.17976 2 2.00977 4.17 2.00977 7.81V16.18C2.00977 19.82 4.17976 21.99 7.81976 21.99H16.1898C19.8298 21.99 21.9998 19.82 21.9998 16.18V7.81C21.9998 4.17 19.8298 2 16.1898 2Z" fill="#0E1117"/>
<path d="M10.1098 11.1504H7.45981C6.82981 11.1504 6.31982 11.6603 6.31982 12.2903V17.4103H10.1098V11.1504Z" fill="#0E1117"/>
<path opacity="0.4" d="M12.7599 6.6001H11.2398C10.6098 6.6001 10.0999 7.11011 10.0999 7.74011V17.4001H13.8899V7.74011C13.8899 7.11011 13.3899 6.6001 12.7599 6.6001Z" fill="#0E1117"/>
<path d="M16.5499 12.8501H13.8999V17.4001H17.6899V13.9901C17.6799 13.3601 17.1699 12.8501 16.5499 12.8501Z" fill="#0E1117"/>
</svg>
