<svg width="24" height="24" viewBox="0 0 24 24" fill="none" xmlns="http://www.w3.org/2000/svg">
<path d="M17.0018 11.8398H14.3218C13.6118 11.8398 13.1318 11.2998 13.1318 10.6498V9.15973C13.1318 8.50973 13.6118 7.96973 14.3218 7.96973H15.8118C16.4618 7.96973 17.0018 8.50973 17.0018 9.15973V11.8398Z" stroke="#0E1117" stroke-width="1.5" stroke-linecap="round" stroke-linejoin="round"/>
<path d="M17.0016 11.8398C17.0016 14.6298 16.4816 15.0998 14.9116 16.0298" stroke="#0E1117" stroke-width="1.5" stroke-linecap="round" stroke-linejoin="round"/>
<path d="M10.8617 11.8398H8.18169C7.47169 11.8398 6.9917 11.2998 6.9917 10.6498V9.15973C6.9917 8.50973 7.47169 7.96973 8.18169 7.96973H9.67169C10.3217 7.96973 10.8617 8.50973 10.8617 9.15973V11.8398Z" stroke="#0E1117" stroke-width="1.5" stroke-linecap="round" stroke-linejoin="round"/>
<path d="M10.8615 11.8398C10.8615 14.6298 10.3415 15.0998 8.77148 16.0298" stroke="#0E1117" stroke-width="1.5" stroke-linecap="round" stroke-linejoin="round"/>
<path d="M4.00146 6C2.75146 7.67 2.00146 9.75 2.00146 12C2.00146 17.52 6.48146 22 12.0015 22C17.5215 22 22.0015 17.52 22.0015 12C22.0015 6.48 17.5215 2 12.0015 2C10.5715 2 9.20147 2.29998 7.97147 2.84998" stroke="#0E1117" stroke-width="1.5" stroke-linecap="round" stroke-linejoin="round"/>
</svg>
