<svg width="24" height="24" viewBox="0 0 24 24" fill="none" xmlns="http://www.w3.org/2000/svg">
<path opacity="0.4" d="M21.3005 10.8399C21.6905 10.8399 22.0005 10.5299 22.0005 10.1399V9.20986C22.0005 5.10986 20.7505 3.85986 16.6505 3.85986H7.35049C3.25049 3.85986 2.00049 5.10986 2.00049 9.20986V9.67986C2.00049 10.0699 2.31049 10.3799 2.70049 10.3799C3.60049 10.3799 4.33049 11.1099 4.33049 12.0099C4.33049 12.9099 3.60049 13.6299 2.70049 13.6299C2.31049 13.6299 2.00049 13.9399 2.00049 14.3299V14.7999C2.00049 18.8999 3.25049 20.1499 7.35049 20.1499H16.6505C20.7505 20.1499 22.0005 18.8999 22.0005 14.7999C22.0005 14.4099 21.6905 14.0999 21.3005 14.0999C20.4005 14.0999 19.6705 13.3699 19.6705 12.4699C19.6705 11.5699 20.4005 10.8399 21.3005 10.8399Z" fill="#0E1117"/>
<path d="M15.0007 15.8799C14.4407 15.8799 13.9907 15.4299 13.9907 14.8799C13.9907 14.3299 14.4407 13.8799 14.9907 13.8799C15.5407 13.8799 15.9907 14.3299 15.9907 14.8799C15.9907 15.4299 15.5607 15.8799 15.0007 15.8799Z" fill="#0E1117"/>
<path d="M9.00072 10.8799C8.44072 10.8799 7.99072 10.4299 7.99072 9.87988C7.99072 9.32988 8.44072 8.87988 8.99072 8.87988C9.54072 8.87988 9.99072 9.32988 9.99072 9.87988C9.99072 10.4299 9.56072 10.8799 9.00072 10.8799Z" fill="#0E1117"/>
<path d="M8.63031 16.4301C8.44031 16.4301 8.25031 16.3601 8.10031 16.2101C7.81031 15.9201 7.81031 15.4401 8.10031 15.1501L14.8303 8.42014C15.1203 8.13014 15.6003 8.13014 15.8903 8.42014C16.1803 8.71014 16.1803 9.19014 15.8903 9.48014L9.16031 16.2101C9.02031 16.3601 8.82031 16.4301 8.63031 16.4301Z" fill="#0E1117"/>
</svg>
