<svg width="24" height="24" viewBox="0 0 24 24" fill="none" xmlns="http://www.w3.org/2000/svg">
<path opacity="0.4" d="M19.8503 12.9402C19.8503 13.7402 20.5003 14.4002 21.3003 14.4002C21.6803 14.4002 22.0003 14.7102 22.0003 15.0902C22.0003 18.9302 20.8403 20.0902 17.0003 20.0902H11.7503V18.5002C11.7503 18.1102 11.4503 17.7902 11.0703 17.7602V14.9102C11.4503 14.8802 11.7503 14.5602 11.7503 14.1702V9.83018C11.7503 9.44018 11.4503 9.12018 11.0703 9.09018V4.93018H17.0003C20.8403 4.93018 22.0003 6.09018 22.0003 9.93018V10.7802C22.0003 11.1702 21.6803 11.4802 21.3003 11.4802C20.5003 11.4802 19.8503 12.1302 19.8503 12.9402Z" fill="#0E1117"/>
<path d="M11.0706 9.08981C10.6606 9.08981 10.2506 9.41981 10.2506 9.82981V14.1698C10.2506 14.5798 10.5906 14.9198 11.0006 14.9198C11.0206 14.9198 11.0506 14.9198 11.0706 14.9098V17.7598C11.0506 17.7498 11.0206 17.7498 11.0006 17.7498C10.5906 17.7498 10.2506 18.0898 10.2506 18.4998V20.0898H8.49058C6.61058 20.0898 5.64058 18.6798 4.76058 16.5498L4.59058 16.1298C4.45058 15.7698 4.62058 15.3598 4.98058 15.2198C5.35058 15.0798 5.64058 14.7898 5.79058 14.4098C5.95058 14.0398 5.95058 13.6298 5.80058 13.2598C5.48058 12.4898 4.60058 12.1198 3.82058 12.4298C3.65058 12.5098 3.45058 12.5098 3.28058 12.4298C3.11058 12.3598 2.98058 12.2198 2.90058 12.0398L2.75058 11.6398C1.26058 8.01981 1.91058 6.46981 5.53058 4.96981L7.98058 3.95981C8.34058 3.80981 8.75058 3.97981 8.89058 4.33981L11.0706 9.08981Z" fill="#0E1117"/>
</svg>
