<svg width="24" height="24" viewBox="0 0 24 24" fill="none" xmlns="http://www.w3.org/2000/svg">
<path d="M2 8.33994V15.6599C2 17.1599 3.62999 18.0999 4.92999 17.3499L8.10001 15.5299L11.27 13.7C11.47 13.58 11.63 13.45 11.76 13.29V10.73C11.63 10.57 11.47 10.44 11.27 10.32L8.10001 8.48993L4.92999 6.66996C3.62999 5.89996 2 6.83994 2 8.33994Z" stroke="#0E1117" stroke-width="1.5" stroke-linecap="round" stroke-linejoin="round"/>
<path d="M14.68 6.64983C13.38 5.89983 11.75 6.83983 11.75 8.33983V15.6598C11.75 17.1598 13.38 18.0998 14.68 17.3498L17.85 15.5298L21.02 13.6998C22.32 12.9498 22.32 11.0798 21.02 10.3198L18.84 9.05983" stroke="#0E1117" stroke-width="1.5" stroke-linecap="round" stroke-linejoin="round"/>
</svg>
