<svg width="24" height="24" viewBox="0 0 24 24" fill="none" xmlns="http://www.w3.org/2000/svg">
<path opacity="0.4" d="M12.0001 17.3498C12.9003 17.3498 13.6301 16.6201 13.6301 15.7198C13.6301 14.8196 12.9003 14.0898 12.0001 14.0898C11.0999 14.0898 10.3701 14.8196 10.3701 15.7198C10.3701 16.6201 11.0999 17.3498 12.0001 17.3498Z" fill="#0E1117"/>
<path d="M16.65 9.44043H7.35C3.25 9.44043 2 10.6904 2 14.7904V16.6504C2 20.7504 3.25 22.0004 7.35 22.0004H16.65C20.75 22.0004 22 20.7504 22 16.6504V14.7904C22 10.6904 20.75 9.44043 16.65 9.44043ZM12 18.7404C10.33 18.7404 8.98 17.3804 8.98 15.7204C8.98 14.0604 10.33 12.7004 12 12.7004C13.67 12.7004 15.02 14.0604 15.02 15.7204C15.02 17.3804 13.67 18.7404 12 18.7404Z" fill="#0E1117"/>
<path opacity="0.4" d="M7.11973 9.45V8.28C7.11973 5.35 7.94973 3.4 11.9997 3.4C16.0497 3.4 16.8797 5.35 16.8797 8.28V9.45C17.3897 9.46 17.8497 9.48 18.2797 9.54V8.28C18.2797 5.58 17.6297 2 11.9997 2C6.36973 2 5.71973 5.58 5.71973 8.28V9.53C6.13973 9.48 6.60973 9.45 7.11973 9.45Z" fill="#0E1117"/>
</svg>
