<svg width="24" height="24" viewBox="0 0 24 24" fill="none" xmlns="http://www.w3.org/2000/svg">
<path d="M19.0712 14.2401C18.7812 14.5301 18.3212 14.5301 18.0413 14.2401C17.7513 13.9501 17.7513 13.4901 18.0413 13.2101C20.0413 11.2101 20.0413 7.9601 18.0413 5.9701C16.0413 3.9801 12.7912 3.9701 10.8012 5.9701C8.81125 7.9701 8.80125 11.2201 10.8012 13.2101C11.0912 13.5001 11.0912 13.9601 10.8012 14.2401C10.5112 14.5301 10.0512 14.5301 9.77125 14.2401C7.20125 11.6701 7.20125 7.4901 9.77125 4.9301C12.3412 2.3701 16.5212 2.3601 19.0812 4.9301C21.6412 7.5001 21.6412 11.6701 19.0712 14.2401Z" fill="#0E1117"/>
<path d="M4.93168 9.75998C5.22168 9.46998 5.68168 9.46998 5.96168 9.75998C6.25168 10.05 6.25168 10.51 5.96168 10.79C3.96168 12.79 3.96168 16.04 5.96168 18.03C7.96168 20.02 11.2117 20.03 13.2017 18.03C15.1917 16.03 15.2017 12.78 13.2017 10.79C12.9117 10.5 12.9117 10.04 13.2017 9.75998C13.4917 9.46998 13.9517 9.46998 14.2317 9.75998C16.8017 12.33 16.8017 16.51 14.2317 19.07C11.6617 21.63 7.48168 21.64 4.92168 19.07C2.36168 16.5 2.36168 12.33 4.93168 9.75998Z" fill="#0E1117"/>
</svg>
