<svg width="24" height="24" viewBox="0 0 24 24" fill="none" xmlns="http://www.w3.org/2000/svg">
<path d="M14.5005 16H9.50049" stroke="#0E1117" stroke-width="1.5" stroke-miterlimit="10" stroke-linecap="round" stroke-linejoin="round"/>
<path d="M12.9004 2.52009L12.8704 2.59009L9.97044 9.32009H7.12044C6.44044 9.32009 5.79044 9.46009 5.20044 9.71009L6.95044 5.53009L6.99044 5.43009L7.06044 5.27009C7.08044 5.21009 7.10044 5.15009 7.13044 5.10009C8.44044 2.07009 9.92044 1.38009 12.9004 2.52009Z" stroke="#0E1117" stroke-width="1.5" stroke-linecap="round" stroke-linejoin="round"/>
<path d="M18.2905 9.52002C17.8405 9.38002 17.3605 9.32002 16.8805 9.32002H9.97046L12.8705 2.59002L12.9005 2.52002C13.0505 2.57002 13.1905 2.64002 13.3405 2.70002L15.5505 3.63002C16.7805 4.14002 17.6405 4.67002 18.1605 5.31002C18.2605 5.43002 18.3405 5.54002 18.4105 5.67002C18.5005 5.81002 18.5705 5.95002 18.6105 6.10002C18.6505 6.19002 18.6805 6.28002 18.7005 6.36002C18.9705 7.20002 18.8105 8.23002 18.2905 9.52002Z" stroke="#0E1117" stroke-width="1.5" stroke-linecap="round" stroke-linejoin="round"/>
<path d="M12.0005 21.9998H8.10049C7.86049 21.9998 7.62049 21.9798 7.39049 21.9498C4.21049 21.7398 2.51049 20.0398 2.30049 16.8598C2.27049 16.6298 2.25049 16.3898 2.25049 16.1498V14.1998C2.25049 12.1898 3.47049 10.4598 5.21049 9.70982C5.81049 9.45982 6.45049 9.31982 7.13049 9.31982H16.8905C17.3805 9.31982 17.8605 9.38982 18.3005 9.51982C20.3005 10.1198 21.7605 11.9898 21.7605 14.1898V16.1398C21.7605 16.3398 21.7505 16.5398 21.7405 16.7398C21.5505 20.2398 19.6005 21.9998 15.9005 21.9998" stroke="#0E1117" stroke-width="1.5" stroke-linecap="round" stroke-linejoin="round"/>
<path d="M6.95048 5.52979L5.20048 9.70978C3.46048 10.4598 2.24048 12.1898 2.24048 14.1998V11.2698C2.24048 8.42979 4.26048 6.05979 6.95048 5.52979Z" stroke="#0E1117" stroke-width="1.5" stroke-linecap="round" stroke-linejoin="round"/>
<path d="M21.7605 11.2701V14.2001C21.7605 12.0001 20.3005 10.1301 18.3005 9.5301C18.8205 8.2301 18.9705 7.2101 18.7205 6.3601C18.7005 6.2701 18.6705 6.1801 18.6305 6.1001C20.4905 7.0601 21.7605 9.0301 21.7605 11.2701Z" stroke="#0E1117" stroke-width="1.5" stroke-linecap="round" stroke-linejoin="round"/>
</svg>
