<svg width="24" height="24" viewBox="0 0 24 24" fill="none" xmlns="http://www.w3.org/2000/svg">
<path d="M22.0002 8.33994V15.6599C22.0002 17.1599 20.3703 18.0999 19.0703 17.3499L15.9002 15.5299L12.7303 13.7C12.5303 13.58 12.3702 13.45 12.2402 13.29V10.73C12.3702 10.57 12.5303 10.44 12.7303 10.32L15.9002 8.48993L19.0703 6.66996C20.3703 5.89996 22.0002 6.83994 22.0002 8.33994Z" stroke="#0E1117" stroke-width="1.5" stroke-linecap="round" stroke-linejoin="round"/>
<path d="M9.31988 6.64983C10.6199 5.89983 12.2499 6.83983 12.2499 8.33983V15.6598C12.2499 17.1598 10.6199 18.0998 9.31988 17.3498L6.14987 15.5298L2.97988 13.6998C1.67988 12.9498 1.67988 11.0798 2.97988 10.3198L5.38989 8.92983" stroke="#0E1117" stroke-width="1.5" stroke-linecap="round" stroke-linejoin="round"/>
</svg>
