<svg width="24" height="24" viewBox="0 0 24 24" fill="none" xmlns="http://www.w3.org/2000/svg">
<path opacity="0.4" d="M16.1898 2H7.81976C4.17976 2 2.00977 4.17 2.00977 7.81V16.18C2.00977 19.82 4.17976 21.99 7.81976 21.99H16.1898C19.8298 21.99 21.9998 19.82 21.9998 16.18V7.81C21.9998 4.17 19.8298 2 16.1898 2Z" fill="#0E1117"/>
<path d="M8.54962 14.55V10.26C9.38962 9.95001 9.99963 9.15001 9.99963 8.20001C9.99963 6.99001 9.00962 6 7.79962 6C6.58962 6 5.59961 6.99001 5.59961 8.20001C5.59961 9.15001 6.20962 9.95001 7.04962 10.26V14.55C6.28962 14.85 5.74963 15.59 5.74963 16.45C5.74963 17.58 6.66962 18.5 7.79962 18.5C8.92962 18.5 9.84961 17.58 9.84961 16.45C9.84961 15.59 9.30962 14.85 8.54962 14.55Z" fill="#0E1117"/>
<path d="M17.4998 14.5502V8.75017C17.4998 7.79017 16.7098 7.00017 15.7498 7.00017H14.6198L14.8298 6.83016C15.1498 6.56016 15.1898 6.09016 14.9298 5.77016C14.6598 5.45016 14.1898 5.41019 13.8698 5.67019L12.0698 7.17019C11.8998 7.31019 11.7998 7.52017 11.7998 7.75017C11.7998 7.98017 11.8998 8.18016 12.0698 8.33016L13.8698 9.83016C14.0098 9.95016 14.1798 10.0002 14.3498 10.0002C14.5598 10.0002 14.7798 9.91018 14.9298 9.73018C15.1998 9.41018 15.1498 8.94019 14.8298 8.67019L14.6198 8.50017H15.7498C15.8898 8.50017 15.9998 8.61017 15.9998 8.75017V14.5502C15.2398 14.8502 14.6998 15.5902 14.6998 16.4502C14.6998 17.5802 15.6198 18.5002 16.7498 18.5002C17.8798 18.5002 18.7998 17.5802 18.7998 16.4502C18.7998 15.5902 18.2598 14.8502 17.4998 14.5502Z" fill="#0E1117"/>
</svg>
