<svg width="24" height="24" viewBox="0 0 24 24" fill="none" xmlns="http://www.w3.org/2000/svg">
<path d="M17.0007 20.75H7.0007C2.7507 20.75 1.3607 19.48 1.2607 15.52C1.2607 15.32 1.3307 15.12 1.4707 14.98C1.6107 14.84 1.8007 14.75 2.0107 14.75C3.5207 14.75 4.7507 13.51 4.7507 12C4.7507 10.49 3.5207 9.25 2.0107 9.25C1.8107 9.25 1.6207 9.17 1.4707 9.02C1.3207 8.87 1.2507 8.68 1.2607 8.48C1.3607 4.52 2.7507 3.25 7.0007 3.25H17.0007C21.4107 3.25 22.7507 4.59 22.7507 9V15C22.7507 19.41 21.4107 20.75 17.0007 20.75ZM2.7907 16.18C2.9607 18.72 3.8207 19.25 7.0007 19.25H17.0007C20.5807 19.25 21.2507 18.57 21.2507 15V9C21.2507 5.43 20.5807 4.75 17.0007 4.75H7.0007C3.8207 4.75 2.9607 5.29 2.7907 7.82C4.7607 8.2 6.2507 9.93 6.2507 12C6.2507 14.07 4.7607 15.8 2.7907 16.18Z" fill="#0E1117"/>
<path d="M9.00049 8.25C8.59049 8.25 8.25049 7.91 8.25049 7.5V4C8.25049 3.59 8.59049 3.25 9.00049 3.25C9.41049 3.25 9.75049 3.59 9.75049 4V7.5C9.75049 7.91 9.41049 8.25 9.00049 8.25Z" fill="#0E1117"/>
<path d="M9.00049 20.75C8.59049 20.75 8.25049 20.41 8.25049 20V16.5C8.25049 16.09 8.59049 15.75 9.00049 15.75C9.41049 15.75 9.75049 16.09 9.75049 16.5V20C9.75049 20.41 9.41049 20.75 9.00049 20.75Z" fill="#0E1117"/>
<path d="M13.0406 15.6501C12.8006 15.6501 12.5606 15.5701 12.3606 15.4301C12.0006 15.1701 11.8206 14.7301 11.9006 14.2901L12.1106 13.1001L11.2406 12.2501C10.9206 11.9401 10.8106 11.4801 10.9406 11.0601C11.0806 10.6401 11.4406 10.3301 11.8806 10.2701L13.0806 10.0901L13.6206 9.0001C13.8206 8.6001 14.2206 8.3501 14.6606 8.3501C15.1106 8.3501 15.5106 8.6001 15.7006 9.0001L16.2406 10.0901L17.4406 10.2701C17.8806 10.3301 18.2406 10.6401 18.3806 11.0601C18.5206 11.4801 18.4006 11.9401 18.0806 12.2501L17.2106 13.1001L17.4206 14.2901C17.5006 14.7301 17.3206 15.1701 16.9606 15.4301C16.6006 15.6901 16.1306 15.7201 15.7406 15.5201L14.6706 14.9601L13.5906 15.5201C13.4206 15.6101 13.2306 15.6501 13.0406 15.6501ZM12.7706 11.6501L13.2806 12.1501C13.5606 12.4201 13.6806 12.8001 13.6206 13.1801L13.5006 13.8801L14.1306 13.5501C14.4706 13.3701 14.8706 13.3701 15.2106 13.5501L15.8406 13.8801L15.7206 13.1801C15.6606 12.7901 15.7806 12.4101 16.0606 12.1501L16.5706 11.6501L15.8706 11.5501C15.4906 11.4901 15.1606 11.2501 14.9906 10.9101L14.6806 10.2701L14.3706 10.9101C14.2006 11.2501 13.8706 11.4901 13.4906 11.5501L12.7706 11.6501Z" fill="#0E1117"/>
</svg>
