<svg width="24" height="24" viewBox="0 0 24 24" fill="none" xmlns="http://www.w3.org/2000/svg">
<path d="M7.94168 14.5099C7.32168 14.2799 6.77168 13.8299 6.42168 13.1899C5.62168 11.7299 6.11168 9.82989 7.53168 8.94989L9.87167 7.49988C11.2817 6.61988 13.1017 7.09987 13.9017 8.54987C14.7017 10.0099 14.2117 11.9099 12.7917 12.7899L12.4817 13.0099" stroke="#0E1117" stroke-width="1.5" stroke-linecap="round" stroke-linejoin="round"/>
<path d="M16.1117 9.4502C16.7317 9.6802 17.2817 10.1302 17.6317 10.7702C18.4317 12.2302 17.9417 14.1302 16.5217 15.0102L14.1817 16.4602C12.7717 17.3402 10.9517 16.8602 10.1517 15.4102C9.35166 13.9502 9.84166 12.0502 11.2617 11.1702L11.5717 10.9502" stroke="#0E1117" stroke-width="1.5" stroke-linecap="round" stroke-linejoin="round"/>
<path d="M12.0015 22C17.5243 22 22.0015 17.5228 22.0015 12C22.0015 6.47715 17.5243 2 12.0015 2C6.47862 2 2.00146 6.47715 2.00146 12C2.00146 17.5228 6.47862 22 12.0015 22Z" stroke="#0E1117" stroke-width="1.5" stroke-linecap="round" stroke-linejoin="round"/>
</svg>
