<svg width="24" height="24" viewBox="0 0 24 24" fill="none" xmlns="http://www.w3.org/2000/svg">
<path opacity="0.4" d="M12.93 4.79004H7.35C3.25 4.79004 2 6.04004 2 10.14V13.86C2 17.96 3.25 19.21 7.35 19.21H12.93C17.03 19.21 18.28 17.96 18.28 13.86V10.14C18.28 6.04004 17.03 4.79004 12.93 4.79004Z" fill="#0E1117"/>
<path d="M20.42 8.99998C20.28 8.98998 20.1 8.97998 19.9 8.97998C19.51 8.97998 19.2 9.28998 19.2 9.67998V14.33C19.2 14.72 19.51 15.03 19.9 15.03C20.1 15.03 20.27 15.02 20.44 15.01C22 14.83 22 13.73 22 12.93V11.07C22 10.27 22 9.16998 20.42 8.99998Z" fill="#0E1117"/>
<path d="M6.37995 14.7501C6.31995 14.7501 6.25995 14.7401 6.19995 14.7301C5.79995 14.6301 5.54995 14.2201 5.64995 13.8201C5.94995 12.6301 5.94995 11.3701 5.64995 10.1801C5.54995 9.7801 5.78995 9.3701 6.19995 9.2701C6.59995 9.1701 6.99995 9.4201 7.09995 9.8201C7.45995 11.2501 7.45995 12.7601 7.09995 14.1801C7.01995 14.5201 6.70995 14.7501 6.37995 14.7501Z" fill="#0E1117"/>
<path d="M9.87995 14.7499C9.81995 14.7499 9.75995 14.7399 9.69995 14.7299C9.29995 14.6299 9.04995 14.2199 9.14995 13.8199C9.44995 12.6299 9.44995 11.3699 9.14995 10.1799C9.04995 9.77995 9.28995 9.36995 9.69995 9.26995C10.1 9.16995 10.51 9.40995 10.61 9.81995C10.97 11.2499 10.97 12.7599 10.61 14.1799C10.52 14.5199 10.21 14.7499 9.87995 14.7499Z" fill="#0E1117"/>
</svg>
