<svg width="24" height="24" viewBox="0 0 24 24" fill="none" xmlns="http://www.w3.org/2000/svg">
<path d="M21.32 11.9102C22.49 10.7402 22.11 9.56024 20.48 9.28024L17.9299 8.86024C17.4999 8.79024 16.9899 8.41024 16.7999 8.02024L15.39 5.20023C14.63 3.67023 13.3799 3.67023 12.6199 5.20023L11.2099 8.02024C11.0199 8.41024 10.5099 8.78024 10.0799 8.86024L7.52995 9.28024C5.89995 9.55024 5.51995 10.7302 6.68995 11.9102L8.67994 13.9002C9.00994 14.2302 9.19995 14.8802 9.08995 15.3502L8.51994 17.8102C8.06994 19.7502 9.10996 20.5102 10.82 19.4902L13.2099 18.0702C13.6399 17.8102 14.36 17.8102 14.79 18.0702L17.1799 19.4902C18.8899 20.5002 19.93 19.7502 19.48 17.8102L18.91 15.3502" stroke="#0E1117" stroke-width="1.5" stroke-linecap="round" stroke-linejoin="round"/>
<path d="M8 5H2" stroke="#0E1117" stroke-width="1.5" stroke-linecap="round" stroke-linejoin="round"/>
<path d="M5 19H2" stroke="#0E1117" stroke-width="1.5" stroke-linecap="round" stroke-linejoin="round"/>
<path d="M3 12H2" stroke="#0E1117" stroke-width="1.5" stroke-linecap="round" stroke-linejoin="round"/>
</svg>
