<svg width="24" height="24" viewBox="0 0 24 24" fill="none" xmlns="http://www.w3.org/2000/svg">
<path opacity="0.4" d="M16.1915 2H7.81146C4.17146 2 2.00146 4.17 2.00146 7.81V16.18C2.00146 19.83 4.17146 22 7.81146 22H16.1815C19.8215 22 21.9915 19.83 21.9915 16.19V7.81C22.0015 4.17 19.8315 2 16.1915 2Z" fill="#0E1117"/>
<path d="M12.2013 17.6598C11.5013 17.6598 10.7913 17.3898 10.2613 16.8598C9.19129 15.7898 9.19129 14.0398 10.2613 12.9698L11.6713 11.5598C11.9613 11.2698 12.4413 11.2698 12.7313 11.5598C13.0213 11.8498 13.0213 12.3298 12.7313 12.6198L11.3213 14.0298C10.8313 14.5198 10.8313 15.3098 11.3213 15.7998C11.8113 16.2898 12.6013 16.2898 13.0913 15.7998L15.3113 13.5798C15.9213 12.9698 16.2613 12.1498 16.2613 11.2798C16.2613 10.4098 15.9213 9.59978 15.3113 8.97978C14.0813 7.74978 11.9413 7.74978 10.7113 8.97978L8.29129 11.3998C7.25129 12.4398 7.25129 14.1398 8.29129 15.1898C8.58129 15.4798 8.58129 15.9598 8.29129 16.2498C8.00129 16.5398 7.52129 16.5398 7.23129 16.2498C5.60129 14.6198 5.60129 11.9698 7.23129 10.3398L9.65129 7.91979C10.5513 7.01979 11.7413 6.52979 13.0113 6.52979C14.2813 6.52979 15.4713 7.01979 16.3713 7.91979C17.2713 8.81979 17.7613 10.0098 17.7613 11.2798C17.7613 12.5498 17.2713 13.7398 16.3713 14.6398L14.1513 16.8598C13.6113 17.3898 12.9113 17.6598 12.2013 17.6598Z" fill="#0E1117"/>
</svg>
