<svg width="24" height="24" viewBox="0 0 24 24" fill="none" xmlns="http://www.w3.org/2000/svg">
<path d="M21.7699 2.22988C21.4699 1.92988 20.9799 1.92988 20.6799 2.22988L2.22988 20.6899C1.92988 20.9899 1.92988 21.4799 2.22988 21.7799C2.37988 21.9199 2.56988 21.9999 2.76988 21.9999C2.96988 21.9999 3.15988 21.9199 3.30988 21.7699L21.7699 3.30988C22.0799 3.00988 22.0799 2.52988 21.7699 2.22988Z" fill="#0E1117"/>
<path d="M16.5502 5.11L15.8302 3.66C15.3702 2.75 14.1702 2 13.1502 2H10.8602C9.83017 2 8.63017 2.75 8.17017 3.66L7.45017 5.11C7.17017 5.65 6.61017 6 6.00017 6C3.83017 6 2.11017 7.83 2.25017 9.99L2.77017 18.25C2.82017 19.1 3.03017 19.89 3.48017 20.52L18.0002 6C17.3902 6 16.8302 5.65 16.5502 5.11ZM9.50017 10.75H6.50017C6.09017 10.75 5.75017 10.41 5.75017 10C5.75017 9.59 6.09017 9.25 6.50017 9.25H9.50017C9.91017 9.25 10.2502 9.59 10.2502 10C10.2502 10.41 9.91017 10.75 9.50017 10.75Z" fill="#0E1117"/>
<path d="M21.7498 9.98981L21.2298 18.2498C21.0998 20.3098 19.9998 21.9998 17.2398 21.9998H7.40977C6.51977 21.9998 6.06977 20.9198 6.69977 20.2898L9.16977 17.8198C9.47977 17.5098 9.95977 17.4698 10.3498 17.6898C11.0398 18.0798 11.8698 18.2298 12.7498 18.0398C14.0198 17.7698 15.0498 16.7298 15.2998 15.4498C15.4698 14.5898 15.3198 13.7798 14.9398 13.1098C14.7198 12.7198 14.7498 12.2298 15.0698 11.9198L19.5698 7.41981C19.9798 7.00981 20.6698 7.05981 21.0198 7.52981C21.5398 8.20981 21.8098 9.06981 21.7498 9.98981Z" fill="#0E1117"/>
</svg>
