<svg width="24" height="24" viewBox="0 0 24 24" fill="none" xmlns="http://www.w3.org/2000/svg">
<path d="M10.3198 18.97C10.4598 19.08 10.5998 19.18 10.7498 19.29C11.8898 20.12 13.0398 20.78 14.1898 21.27C15.3398 21.76 16.4298 22 17.4498 22C18.1498 22 18.7998 21.87 19.3998 21.62C20.0098 21.37 20.5498 20.98 21.0398 20.44C21.3298 20.12 21.5498 19.78 21.7198 19.42C21.8898 19.06 21.9698 18.69 21.9698 18.33C21.9698 18.05 21.9098 17.8 21.8098 17.55C21.6998 17.3 21.5198 17.09 21.2598 16.91L17.9498 14.56C17.6998 14.39 17.4698 14.26 17.2498 14.17C17.0298 14.08 16.8298 14.04 16.6398 14.04C16.3898 14.04 16.1598 14.11 15.9298 14.25C15.6998 14.37 15.4598 14.56 15.2098 14.81L14.4498 15.56C14.3398 15.67 14.2098 15.73 14.0398 15.73C13.9498 15.73 13.8698 15.72 13.7898 15.69C13.7198 15.66 13.6598 15.63 13.6098 15.61C13.4198 15.51 13.1998 15.37 12.9598 15.19" stroke="#0E1117" stroke-width="1.5" stroke-miterlimit="10" stroke-linecap="round" stroke-linejoin="round"/>
<path d="M7.07 2.74C6.89 2.48 6.66 2.3 6.4 2.18C6.15 2.06 5.87 2 5.59 2C4.85 2 4.15 2.31 3.51 2.94C2.98 3.44 2.6 4 2.36 4.61C2.12 5.21 2 5.86 2 6.54C2 7.58 2.24 8.67 2.72 9.81C3.2 10.94 3.86 12.08 4.68 13.22C5.51 14.36 6.44 15.45 7.47 16.49" stroke="#0E1117" stroke-width="1.5" stroke-miterlimit="10" stroke-linecap="round" stroke-linejoin="round"/>
<path d="M10.7302 13.2198C10.2102 12.6898 9.73023 12.1598 9.28023 11.6398C8.84023 11.1198 8.53023 10.6898 8.35023 10.3598C8.33023 10.2998 8.30024 10.2398 8.27024 10.1598C8.25024 10.0798 8.24023 10.0098 8.24023 9.92977C8.24023 9.76977 8.29023 9.63977 8.40023 9.52977L9.16023 8.73977C9.40023 8.49977 9.59023 8.25977 9.72023 8.02977C9.86023 7.79977 9.93023 7.55977 9.93023 7.31977C9.93023 7.12977 9.88023 6.91977 9.79023 6.70977C9.70023 6.48977 9.57023 6.25977 9.39023 6.00977" stroke="#0E1117" stroke-width="1.5" stroke-miterlimit="10" stroke-linecap="round" stroke-linejoin="round"/>
<path d="M22 2L2 22" stroke="#0E1117" stroke-width="1.5" stroke-linecap="round" stroke-linejoin="round"/>
</svg>
