<svg width="24" height="24" viewBox="0 0 24 24" fill="none" xmlns="http://www.w3.org/2000/svg">
<path opacity="0.4" d="M19.26 2.8702L14.84 1.4002C13.92 1.0902 12.99 1.2002 12.31 1.7002C11.62 2.2002 11.23 3.0402 11.23 4.0102V7.7802L18.11 10.0702C18.45 10.1902 18.8 10.2402 19.13 10.2402C19.69 10.2402 20.21 10.0802 20.64 9.7702C21.33 9.2702 21.72 8.4302 21.72 7.4602V6.2802C21.72 4.8502 20.62 3.3202 19.26 2.8702Z" fill="#0E1117"/>
<path d="M12.7202 8.27002V18C12.7202 20.62 10.5902 22.75 7.97021 22.75C5.35021 22.75 3.22021 20.62 3.22021 18C3.22021 15.38 5.35021 13.25 7.97021 13.25C9.23022 13.25 10.3702 13.75 11.2202 14.55V7.77002L12.7202 8.27002Z" fill="#0E1117"/>
</svg>
