<svg width="24" height="24" viewBox="0 0 24 24" fill="none" xmlns="http://www.w3.org/2000/svg">
<path d="M9.6499 13.8004L11.2599 15.0504C11.4699 15.2604 11.9399 15.3603 12.2499 15.3603H14.2299C14.8499 15.3603 15.5299 14.8903 15.6899 14.2703L16.9399 10.4803C17.1999 9.7503 16.7299 9.13033 15.9499 9.13033H13.8699C13.5599 9.13033 13.2999 8.87033 13.3499 8.51033L13.6099 6.8503C13.7099 6.3803 13.3999 5.86028 12.9299 5.71028C12.5099 5.55028 11.9899 5.76027 11.7899 6.07027L9.65991 9.24031" stroke="#0E1117" stroke-width="1.5" stroke-miterlimit="10"/>
<path d="M7 13.8008V8.71069C7 7.98069 7.30999 7.7207 8.03999 7.7207H8.56C9.29 7.7207 9.60001 7.98069 9.60001 8.71069V13.8008C9.60001 14.5308 9.29 14.7908 8.56 14.7908H8.03999C7.30999 14.7908 7 14.5308 7 13.8008Z" stroke="#0E1117" stroke-width="1.5" stroke-linecap="round" stroke-linejoin="round"/>
<path d="M3 4.96997C3 3.32997 4.34 2 6 2H18C19.66 2 21 3.32997 21 4.96997V15.88C21 17.52 19.66 18.85 18 18.85H17.24C16.44 18.85 15.68 19.16 15.12 19.72L13.41 21.41C12.63 22.18 11.36 22.18 10.58 21.41L8.87 19.72C8.31 19.16 7.54 18.85 6.75 18.85H6C4.34 18.85 3 17.52 3 15.88V9.06995" stroke="#0E1117" stroke-width="1.5" stroke-miterlimit="10" stroke-linecap="round" stroke-linejoin="round"/>
</svg>
