<svg width="24" height="24" viewBox="0 0 24 24" fill="none" xmlns="http://www.w3.org/2000/svg">
<path d="M9.5 2C12.52 2 15.13 3.67001 16.3 6.07001C16.75 6.96001 17 7.95 17 9C17 12.87 13.64 16 9.5 16L8.57001 17.12L8.02 17.78C7.55 18.34 6.65 18.22 6.34 17.55L5 14.6C3.18 13.32 2 11.29 2 9C2 6.73 3.15 4.72 4.95 3.44" stroke="#0E1117" stroke-width="1.5" stroke-linecap="round" stroke-linejoin="round"/>
<path d="M22.0001 12.8598C22.0001 15.1498 20.8201 17.1798 19.0001 18.4598L17.6601 21.4098C17.3501 22.0798 16.4501 22.2098 15.9801 21.6398L14.5001 19.8598C12.0801 19.8598 9.92007 18.7898 8.57007 17.1198L9.50006 15.9998C13.6401 15.9998 17.0001 12.8698 17.0001 8.99982C17.0001 7.94982 16.7501 6.95982 16.3001 6.06982C17.9301 6.43982 19.3401 7.30982 20.3601 8.49982" stroke="#0E1117" stroke-width="1.5" stroke-linecap="round" stroke-linejoin="round"/>
<path d="M7 9H12" stroke="#0E1117" stroke-width="1.5" stroke-linecap="round" stroke-linejoin="round"/>
</svg>
