<svg width="24" height="24" viewBox="0 0 24 24" fill="none" xmlns="http://www.w3.org/2000/svg">
<path d="M2.51998 12.0498C2.01998 13.4498 2.91998 14.6498 4.41998 14.6498H8.41998C9.01998 14.6498 9.51998 15.1498 9.41998 15.8498L8.91998 19.0498C8.71998 19.9498 9.31998 20.9498 10.22 21.2498C11.02 21.5498 12.02 21.1498 12.42 20.5498L16.52 14.4498" stroke="#0E1117" stroke-width="1.5" stroke-miterlimit="10" stroke-linecap="round" stroke-linejoin="round"/>
<path d="M16.52 5.65039L13.42 3.25039C13.02 2.85039 12.12 2.65039 11.52 2.65039H7.72003C6.52003 2.65039 5.22003 3.55039 4.92003 4.75039L3.78003 8.22039" stroke="#0E1117" stroke-width="1.5" stroke-miterlimit="10" stroke-linecap="round" stroke-linejoin="round"/>
<path d="M21.6201 5.65V15.45C21.6201 16.85 21.0201 17.35 19.6201 17.35H18.6201C17.2201 17.35 16.6201 16.85 16.6201 15.45V5.65C16.6201 4.25 17.2201 3.75 18.6201 3.75H19.6201C21.0201 3.75 21.6201 4.25 21.6201 5.65Z" stroke="#0E1117" stroke-width="1.5" stroke-linecap="round" stroke-linejoin="round"/>
</svg>
