<svg width="24" height="24" viewBox="0 0 24 24" fill="none" xmlns="http://www.w3.org/2000/svg">
<path d="M4.40524 15.5264L8.93524 20.0564C10.7952 21.9164 13.8152 21.9164 15.6852 20.0564L20.0752 15.6664C21.9352 13.8064 21.9352 10.7864 20.0752 8.91637L15.5352 4.39637C14.5852 3.44637 13.2752 2.93637 11.9352 3.00637L6.93524 3.24637C4.93524 3.33637 3.34524 4.92637 3.24524 6.91637L3.00524 11.9164C2.94524 13.2664 3.45524 14.5764 4.40524 15.5264Z" stroke="#0E1117" stroke-width="1.5" stroke-linecap="round" stroke-linejoin="round"/>
<path d="M9.73535 12.2266C11.1161 12.2266 12.2354 11.1073 12.2354 9.72656C12.2354 8.34585 11.1161 7.22656 9.73535 7.22656C8.35464 7.22656 7.23535 8.34585 7.23535 9.72656C7.23535 11.1073 8.35464 12.2266 9.73535 12.2266Z" stroke="#0E1117" stroke-width="1.5" stroke-linecap="round"/>
<path d="M13.2354 17.2266L17.2354 13.2266" stroke="#0E1117" stroke-width="1.5" stroke-miterlimit="10" stroke-linecap="round" stroke-linejoin="round"/>
</svg>
