<svg width="24" height="24" viewBox="0 0 24 24" fill="none" xmlns="http://www.w3.org/2000/svg">
<path d="M21.4518 13.6401V14.6401C21.4518 14.9101 21.2418 15.1301 20.9618 15.1401H19.5018C18.9718 15.1401 18.4918 14.7501 18.4518 14.2301C18.4218 13.9201 18.5418 13.6301 18.7418 13.4301C18.9218 13.2401 19.1718 13.1401 19.4418 13.1401H20.9518C21.2418 13.1501 21.4518 13.3701 21.4518 13.6401Z" fill="#0E1117"/>
<path d="M17.9919 12.6901C17.4919 13.1801 17.2519 13.9101 17.4519 14.6701C17.7119 15.6001 18.6219 16.1901 19.5819 16.1901H20.4519C21.0019 16.1901 21.4519 16.6401 21.4519 17.1901V17.3801C21.4519 19.4501 19.7619 21.1401 17.6919 21.1401H6.2119C4.1419 21.1401 2.4519 19.4501 2.4519 17.3801V10.6501C2.4519 9.42014 3.0419 8.33014 3.9519 7.65014C4.5819 7.17014 5.3619 6.89014 6.2119 6.89014H17.6919C19.7619 6.89014 21.4519 8.58014 21.4519 10.6501V11.0901C21.4519 11.6401 21.0019 12.0901 20.4519 12.0901H19.4319C18.8719 12.0901 18.3619 12.3101 17.9919 12.6901Z" fill="#0E1117"/>
<path d="M16.202 4.82C16.472 5.09 16.242 5.51 15.862 5.51L8.18201 5.5C7.74201 5.5 7.51201 4.96 7.83201 4.65L9.45201 3.02C10.822 1.66 13.042 1.66 14.412 3.02L16.162 4.79C16.172 4.8 16.192 4.81 16.202 4.82Z" fill="#0E1117"/>
</svg>
