<svg width="24" height="24" viewBox="0 0 24 24" fill="none" xmlns="http://www.w3.org/2000/svg">
<path d="M21.302 10.8399C21.692 10.8399 22.002 10.5299 22.002 10.1399V9.20986C22.002 5.10986 20.752 3.85986 16.652 3.85986H7.35195C3.25195 3.85986 2.00195 5.10986 2.00195 9.20986V9.67986C2.00195 10.0699 2.31195 10.3799 2.70195 10.3799C3.60195 10.3799 4.33195 11.1099 4.33195 12.0099C4.33195 12.9099 3.60195 13.6299 2.70195 13.6299C2.31195 13.6299 2.00195 13.9399 2.00195 14.3299V14.7999C2.00195 18.8999 3.25195 20.1499 7.35195 20.1499H16.652C20.752 20.1499 22.002 18.8999 22.002 14.7999C22.002 14.4099 21.692 14.0999 21.302 14.0999C20.402 14.0999 19.672 13.3699 19.672 12.4699C19.672 11.5699 20.402 10.8399 21.302 10.8399ZM9.00195 8.87986C9.55195 8.87986 10.002 9.32986 10.002 9.87986C10.002 10.4299 9.56195 10.8799 9.00195 10.8799C8.45195 10.8799 8.00195 10.4299 8.00195 9.87986C8.00195 9.32986 8.44195 8.87986 9.00195 8.87986ZM15.002 15.8799C14.442 15.8799 13.992 15.4299 13.992 14.8799C13.992 14.3299 14.442 13.8799 14.992 13.8799C15.542 13.8799 15.992 14.3299 15.992 14.8799C15.992 15.4299 15.562 15.8799 15.002 15.8799ZM15.902 9.47986L9.17195 16.2099C9.02195 16.3599 8.83195 16.4299 8.64195 16.4299C8.45195 16.4299 8.26195 16.3599 8.11195 16.2099C7.82195 15.9199 7.82195 15.4399 8.11195 15.1499L14.842 8.41986C15.132 8.12986 15.612 8.12986 15.902 8.41986C16.192 8.70986 16.192 9.18986 15.902 9.47986Z" fill="#0E1117"/>
</svg>
