<svg width="24" height="24" viewBox="0 0 24 24" fill="none" xmlns="http://www.w3.org/2000/svg">
<path d="M12 22C17.5228 22 22 17.5228 22 12C22 6.47715 17.5228 2 12 2C6.47715 2 2 6.47715 2 12C2 17.5228 6.47715 22 12 22Z" stroke="#0E1117" stroke-width="1.5" stroke-linecap="round" stroke-linejoin="round"/>
<path d="M12.3301 17.4496C12.1501 17.5096 11.8401 17.5096 11.6601 17.4496C10.1001 16.9196 6.6001 14.6896 6.6001 10.9096C6.6001 9.23964 7.9401 7.88965 9.6001 7.88965C10.5801 7.88965 11.4501 8.35964 12.0001 9.09964C12.5401 8.36964 13.4201 7.88965 14.4001 7.88965C16.0601 7.88965 17.4001 9.23964 17.4001 10.9096C17.4001 14.6896 13.9001 16.9196 12.3301 17.4496Z" stroke="#0E1117" stroke-width="1.5" stroke-linecap="round" stroke-linejoin="round"/>
</svg>
