<svg width="24" height="24" viewBox="0 0 24 24" fill="none" xmlns="http://www.w3.org/2000/svg">
<path d="M9.00146 22H15.0015C20.0015 22 22.0015 20 22.0015 15V9C22.0015 4 20.0015 2 15.0015 2H9.00146C4.00146 2 2.00146 4 2.00146 9V15C2.00146 20 4.00146 22 9.00146 22Z" stroke="#0E1117" stroke-width="1.5" stroke-linecap="round" stroke-linejoin="round"/>
<path d="M7.00146 12.1597H9.68147C10.3915 12.1597 10.8715 12.6997 10.8715 13.3497V14.8397C10.8715 15.4897 10.3915 16.0297 9.68147 16.0297H8.19147C7.54147 16.0297 7.00146 15.4897 7.00146 14.8397V12.1597" stroke="#0E1117" stroke-width="1.5" stroke-linecap="round" stroke-linejoin="round"/>
<path d="M7.00146 12.1597C7.00146 9.36973 7.52146 8.89973 9.09146 7.96973" stroke="#0E1117" stroke-width="1.5" stroke-linecap="round" stroke-linejoin="round"/>
<path d="M13.1416 12.1597H15.8216C16.5316 12.1597 17.0116 12.6997 17.0116 13.3497V14.8397C17.0116 15.4897 16.5316 16.0297 15.8216 16.0297H14.3316C13.6816 16.0297 13.1416 15.4897 13.1416 14.8397V12.1597" stroke="#0E1117" stroke-width="1.5" stroke-linecap="round" stroke-linejoin="round"/>
<path d="M13.1416 12.1597C13.1416 9.36973 13.6616 8.89973 15.2316 7.96973" stroke="#0E1117" stroke-width="1.5" stroke-linecap="round" stroke-linejoin="round"/>
</svg>
