<svg width="24" height="24" viewBox="0 0 24 24" fill="none" xmlns="http://www.w3.org/2000/svg">
<path opacity="0.4" d="M20.4098 6.96043V9.80043L7.39984 19.3404L4.76984 17.3704C4.11984 16.8804 3.58984 15.8304 3.58984 15.0204V6.96043C3.58984 5.84043 4.44984 4.60043 5.49984 4.21043L10.9698 2.16043C11.5398 1.95043 12.4598 1.95043 13.0298 2.16043L18.4998 4.21043C19.5498 4.60043 20.4098 5.84043 20.4098 6.96043Z" fill="#0E1117"/>
<path d="M20.4103 11.1699V15.0199C20.4103 15.8299 19.8803 16.8799 19.2303 17.3699L13.7603 21.4599C13.2803 21.8199 12.6403 21.9999 12.0003 21.9999C11.3603 21.9999 10.7203 21.8199 10.2403 21.4599L8.32031 20.0299L20.4103 11.1699Z" fill="#0E1117"/>
</svg>
