<svg width="24" height="24" viewBox="0 0 24 24" fill="none" xmlns="http://www.w3.org/2000/svg">
<path d="M15.9999 21.2902L6.63985 22.3902C5.98985 22.4702 5.40985 22.3702 4.91985 22.1302C4.39985 21.8702 3.98985 21.4702 3.72985 20.9402C3.48985 20.4502 3.39985 19.8802 3.46985 19.2402L4.31985 12.0902C4.39985 12.1202 4.47985 12.1502 4.55985 12.1702C5.16985 12.3902 5.81985 12.5002 6.49985 12.5002C7.95985 12.5002 9.36985 11.9702 10.4399 11.0202C10.8999 10.6202 11.3099 10.1402 11.6399 9.59016C11.9199 9.12016 12.1299 8.62016 12.2699 8.13016C12.3399 7.87016 12.3999 7.59016 12.4399 7.31016C12.4499 7.26016 12.4499 7.21016 12.4499 7.16016L12.6199 7.17016L18.6999 13.2602L18.9599 17.6802C19.2099 20.1602 18.3499 21.0202 15.9999 21.2902Z" fill="#0E1117"/>
<path d="M6.5 2C5.44 2 4.46 2.37 3.69 2.99C2.65 3.81 2 5.08 2 6.5C2 7.34 2.24 8.14 2.65 8.82C3.09 9.55 3.73 10.15 4.51 10.53C4.68 10.62 4.87 10.7 5.06 10.76C5.51 10.92 5.99 11 6.5 11C7.64 11 8.67 10.58 9.46 9.88C9.81 9.58 10.11 9.22 10.35 8.82C10.56 8.47 10.72 8.1 10.83 7.7C10.89 7.5 10.93 7.29 10.96 7.07C10.99 6.88 11 6.69 11 6.5C11 4.01 8.99 2 6.5 2ZM8.23 8.21C8.09 8.35 7.89 8.43 7.7 8.43C7.51 8.43 7.32 8.35 7.17 8.21L6.51 7.55L5.83 8.23C5.68 8.38 5.49 8.45 5.3 8.45C5.11 8.45 4.91 8.38 4.77 8.23C4.48 7.94 4.48 7.46 4.77 7.17L5.46 6.48L4.79 5.83C4.5 5.54 4.5 5.06 4.79 4.77C5.08 4.48 5.56 4.48 5.85 4.77L6.51 5.43L7.14 4.8C7.43 4.51 7.91 4.51 8.2 4.8C8.49 5.09 8.49 5.57 8.2 5.86L7.57 6.49L8.23 7.15C8.53 7.44 8.53 7.91 8.23 8.21Z" fill="#0E1117"/>
<path d="M22.0001 10.2799L19.9301 11.5899C19.5401 11.8299 19.0401 11.7799 18.7201 11.4499L14.2901 7.0199C13.9701 6.6999 13.9101 6.1999 14.1501 5.8099L15.4601 3.7399C16.2601 2.4799 17.8601 2.4199 19.0501 3.5899L22.1601 6.6999C23.2501 7.8099 23.1801 9.5299 22.0001 10.2799Z" fill="#0E1117"/>
</svg>
