<svg width="24" height="24" viewBox="0 0 24 24" fill="none" xmlns="http://www.w3.org/2000/svg">
<path opacity="0.4" d="M10.2801 20.25H17.0001C19.7601 20.25 22.0001 18.01 22.0001 15.25V8.75C22.0001 5.99 19.7601 3.75 17.0001 3.75H10.2801C8.87005 3.75 7.53005 4.34 6.58005 5.39L3.05005 9.27C1.64005 10.82 1.64005 13.18 3.05005 14.73L6.58005 18.61C7.53005 19.66 8.87005 20.25 10.2801 20.25Z" fill="#0E1117"/>
<path d="M14.59 12L16.53 10.06C16.82 9.76997 16.82 9.28997 16.53 8.99997C16.24 8.70997 15.76 8.70997 15.47 8.99997L13.53 10.94L11.59 8.99997C11.3 8.70997 10.82 8.70997 10.53 8.99997C10.24 9.28997 10.24 9.76997 10.53 10.06L12.47 12L10.53 13.94C10.24 14.23 10.24 14.71 10.53 15C10.68 15.15 10.87 15.22 11.06 15.22C11.25 15.22 11.44 15.15 11.59 15L13.53 13.06L15.47 15C15.62 15.15 15.81 15.22 16 15.22C16.19 15.22 16.38 15.15 16.53 15C16.82 14.71 16.82 14.23 16.53 13.94L14.59 12Z" fill="#0E1117"/>
</svg>
