<svg width="24" height="24" viewBox="0 0 24 24" fill="none" xmlns="http://www.w3.org/2000/svg">
<path d="M18.6117 6.67982C18.2017 6.67982 17.8617 6.33982 17.8617 5.92982V4.41982C17.8617 3.81982 17.3717 3.31982 16.7617 3.31982H3.8317C3.2317 3.31982 2.7317 3.80982 2.7317 4.41982V5.92982C2.7317 6.33982 2.3917 6.67982 1.9817 6.67982C1.5717 6.67982 1.2417 6.33982 1.2417 5.92982V4.41982C1.2417 2.98982 2.4117 1.81982 3.8417 1.81982H16.7617C18.1917 1.81982 19.3617 2.97982 19.3617 4.41982V5.92982C19.3617 6.33982 19.0217 6.67982 18.6117 6.67982Z" fill="#0E1117"/>
<path d="M10.3013 18.8498C9.89127 18.8498 9.55127 18.5098 9.55127 18.0998V3.31982C9.55127 2.90982 9.89127 2.56982 10.3013 2.56982C10.7113 2.56982 11.0513 2.90982 11.0513 3.31982V18.0998C11.0513 18.5198 10.7113 18.8498 10.3013 18.8498Z" fill="#0E1117"/>
<path d="M12.4814 18.8501H6.90137C6.49137 18.8501 6.15137 18.5101 6.15137 18.1001C6.15137 17.6901 6.49137 17.3501 6.90137 17.3501H12.4814C12.8914 17.3501 13.2314 17.6901 13.2314 18.1001C13.2314 18.5101 12.8914 18.8501 12.4814 18.8501Z" fill="#0E1117"/>
<path d="M22.0116 13.2001C21.6016 13.2001 21.2616 12.8601 21.2616 12.4501V11.6501C21.2616 11.3401 21.0016 11.0801 20.6916 11.0801H13.6816C13.2716 11.0801 12.9316 10.7401 12.9316 10.3301C12.9316 9.92008 13.2716 9.58008 13.6816 9.58008H20.6916C21.8316 9.58008 22.7616 10.5101 22.7616 11.6501V12.4501C22.7616 12.8701 22.4316 13.2001 22.0116 13.2001Z" fill="#0E1117"/>
<path d="M16.0815 22.1801C15.6715 22.1801 15.3315 21.8401 15.3315 21.4301V10.8701C15.3315 10.4601 15.6715 10.1201 16.0815 10.1201C16.4915 10.1201 16.8315 10.4601 16.8315 10.8701V21.4301C16.8315 21.8401 16.4915 22.1801 16.0815 22.1801Z" fill="#0E1117"/>
<path d="M18.2214 22.1802H13.9414C13.5314 22.1802 13.1914 21.8402 13.1914 21.4302C13.1914 21.0202 13.5314 20.6802 13.9414 20.6802H18.2214C18.6314 20.6802 18.9714 21.0202 18.9714 21.4302C18.9714 21.8402 18.6314 22.1802 18.2214 22.1802Z" fill="#0E1117"/>
</svg>
