<svg width="24" height="24" viewBox="0 0 24 24" fill="none" xmlns="http://www.w3.org/2000/svg">
<path d="M1.23132 21.6817L1.99132 20.9217C1.59132 20.3217 1.36132 19.6017 1.36132 18.8317C1.36132 16.7217 3.07132 15.0117 5.18132 15.0117C7.29132 15.0117 9.00132 16.7117 9.00132 18.8217C9.00132 20.9317 7.29132 22.6417 5.18132 22.6417C4.41132 22.6417 3.69132 22.4117 3.09132 22.0117L2.33132 22.7717C2.17132 22.9217 1.97132 23.0017 1.77132 23.0017C1.57132 23.0017 1.37132 22.9217 1.22132 22.7717C0.921324 22.4717 0.921324 21.9817 1.23132 21.6817Z" fill="#0E1117"/>
<path d="M21.5015 12.5H19.0015C17.9015 12.5 17.0015 13.4 17.0015 14.5C17.0015 15.6 17.9015 16.5 19.0015 16.5H21.5015C21.7815 16.5 22.0015 16.28 22.0015 16V13C22.0015 12.72 21.7815 12.5 21.5015 12.5Z" fill="#0E1117"/>
<path d="M16.5314 5.40016C16.8314 5.69016 16.5814 6.14016 16.1614 6.14016L7.88143 6.13016C7.40143 6.13016 7.16143 5.55016 7.50143 5.21016L9.25143 3.45016C10.7314 1.98016 13.1214 1.98016 14.6014 3.45016L16.4914 5.36016C16.5014 5.37016 16.5214 5.39016 16.5314 5.40016Z" fill="#0E1117"/>
<path d="M21.8716 18.66C21.2616 20.72 19.5016 22 17.1016 22H10.6016C10.2116 22 9.96157 21.57 10.1216 21.21C10.4216 20.51 10.6116 19.72 10.6116 19C10.6116 15.97 8.14157 13.5 5.11157 13.5C4.35157 13.5 3.61157 13.66 2.93157 13.96C2.56157 14.12 2.11157 13.87 2.11157 13.47V12C2.11157 9.28 3.75157 7.38 6.30157 7.06C6.55157 7.02 6.82157 7 7.10157 7H17.1016C17.3616 7 17.6116 7.01 17.8516 7.05C19.8716 7.28 21.3316 8.51 21.8716 10.34C21.9716 10.67 21.7316 11 21.3916 11H19.1016C16.9316 11 15.2116 12.98 15.6816 15.23C16.0116 16.87 17.5316 18 19.2016 18H21.3916C21.7416 18 21.9716 18.34 21.8716 18.66Z" fill="#0E1117"/>
</svg>
