<svg width="24" height="24" viewBox="0 0 24 24" fill="none" xmlns="http://www.w3.org/2000/svg">
<path d="M7.56006 3.09961C9.38006 3.09961 10.9901 3.97966 12.0001 5.33966C13.0101 3.97966 14.6301 3.09961 16.4401 3.09961C17.5901 3.09961 18.66 3.44963 19.55 4.05963" stroke="#0E1117" stroke-width="1.5" stroke-linecap="round" stroke-linejoin="round"/>
<path d="M6.10999 17.4995C3.89999 15.4295 2 12.4795 2 8.6795C2 7.1395 2.62 5.73949 3.63 4.72949" stroke="#0E1117" stroke-width="1.5" stroke-linecap="round" stroke-linejoin="round"/>
<path d="M21.74 7C21.91 7.53 22 8.1 22 8.69C22 15.69 15.52 19.82 12.62 20.82C12.28 20.94 11.72 20.94 11.38 20.82C10.73 20.6 9.91002 20.22 9.02002 19.69" stroke="#0E1117" stroke-width="1.5" stroke-linecap="round" stroke-linejoin="round"/>
<path d="M22 2L2 22" stroke="#0E1117" stroke-width="1.5" stroke-linecap="round" stroke-linejoin="round"/>
</svg>
