<svg width="24" height="24" viewBox="0 0 24 24" fill="none" xmlns="http://www.w3.org/2000/svg">
<path d="M16 6.3V6C16 3.79 14.21 2 12 2C9.79 2 8 3.79 8 6V11" stroke="#0E1117" stroke-width="1.5" stroke-linecap="round" stroke-linejoin="round"/>
<path d="M9.04004 14.19C9.77004 15 10.83 15.5 12 15.5C14.21 15.5 16 13.71 16 11.5V11" stroke="#0E1117" stroke-width="1.5" stroke-linecap="round" stroke-linejoin="round"/>
<path d="M18.7202 15.0199C19.3202 13.9299 19.6502 12.6799 19.6502 11.3499V9.6499" stroke="#0E1117" stroke-width="1.5" stroke-linecap="round" stroke-linejoin="round"/>
<path d="M6.77979 16.95C8.14979 18.22 9.97978 19 11.9998 19C13.1798 19 14.3098 18.73 15.3098 18.25" stroke="#0E1117" stroke-width="1.5" stroke-linecap="round" stroke-linejoin="round"/>
<path d="M4.3501 9.6499V11.3499C4.3501 12.4099 4.5601 13.4099 4.9501 14.3299" stroke="#0E1117" stroke-width="1.5" stroke-linecap="round" stroke-linejoin="round"/>
<path d="M20.0702 2.84009L3.93018 18.9901" stroke="#0E1117" stroke-width="1.5" stroke-linecap="round" stroke-linejoin="round"/>
<path d="M11 3V6" stroke="#0E1117" stroke-width="1.5" stroke-linecap="round" stroke-linejoin="round"/>
<path d="M12 19V22" stroke="#0E1117" stroke-width="1.5" stroke-linecap="round" stroke-linejoin="round"/>
</svg>
