<svg width="24" height="24" viewBox="0 0 24 24" fill="none" xmlns="http://www.w3.org/2000/svg">
<path d="M21.0015 22.75H3.00146C2.59146 22.75 2.25146 22.41 2.25146 22C2.25146 21.59 2.59146 21.25 3.00146 21.25H21.0015C21.4115 21.25 21.7515 21.59 21.7515 22C21.7515 22.41 21.4115 22.75 21.0015 22.75Z" fill="#0E1117"/>
<path d="M21.0015 2.75H3.00146C2.59146 2.75 2.25146 2.41 2.25146 2C2.25146 1.59 2.59146 1.25 3.00146 1.25H21.0015C21.4115 1.25 21.7515 1.59 21.7515 2C21.7515 2.41 21.4115 2.75 21.0015 2.75Z" fill="#0E1117"/>
<path d="M12.0015 18.75C11.5915 18.75 11.2515 18.41 11.2515 18V6C11.2515 5.59 11.5915 5.25 12.0015 5.25C12.4115 5.25 12.7515 5.59 12.7515 6V18C12.7515 18.41 12.4115 18.75 12.0015 18.75Z" fill="#0E1117"/>
<path d="M14.8313 8.4699C14.6413 8.4699 14.4513 8.3999 14.3013 8.2499L12.0013 5.9499L9.70133 8.2499C9.41133 8.5399 8.93133 8.5399 8.64133 8.2499C8.35133 7.9599 8.35133 7.4799 8.64133 7.1899L11.4713 4.3599C11.7513 4.0799 12.2513 4.0799 12.5313 4.3599L15.3613 7.1899C15.6513 7.4799 15.6513 7.9599 15.3613 8.2499C15.2113 8.3999 15.0213 8.4699 14.8313 8.4699Z" fill="#0E1117"/>
<path d="M12.0013 19.4701C11.8013 19.4701 11.6113 19.3901 11.4713 19.2501L8.64133 16.4201C8.35133 16.1301 8.35133 15.6501 8.64133 15.3601C8.93133 15.0701 9.41133 15.0701 9.70133 15.3601L12.0013 17.6601L14.3013 15.3601C14.5913 15.0701 15.0713 15.0701 15.3613 15.3601C15.6513 15.6501 15.6513 16.1301 15.3613 16.4201L12.5313 19.2501C12.3913 19.3901 12.2013 19.4701 12.0013 19.4701Z" fill="#0E1117"/>
</svg>
