<svg width="24" height="24" viewBox="0 0 24 24" fill="none" xmlns="http://www.w3.org/2000/svg">
<path d="M14.5005 16.75H9.50049C9.09049 16.75 8.75049 16.41 8.75049 16C8.75049 15.59 9.09049 15.25 9.50049 15.25H14.5005C14.9105 15.25 15.2505 15.59 15.2505 16C15.2505 16.41 14.9105 16.75 14.5005 16.75Z" fill="#0E1117"/>
<path d="M5.20043 10.4599C5.01043 10.4599 4.82043 10.3799 4.67043 10.2399C4.46043 10.0299 4.39043 9.69988 4.51043 9.41988L6.37043 4.97988C6.41043 4.88988 6.43043 4.82988 6.46043 4.77988C7.94043 1.36988 9.83043 0.539877 13.1704 1.81988C13.3604 1.88988 13.5104 2.03988 13.5904 2.22988C13.6704 2.41988 13.6704 2.62988 13.5904 2.81988L10.6604 9.61988C10.5404 9.88988 10.2704 10.0699 9.97043 10.0699H7.12043C6.55043 10.0699 6.01043 10.1799 5.49043 10.3999C5.40043 10.4399 5.30043 10.4599 5.20043 10.4599ZM10.6104 2.74988C9.37043 2.74988 8.61043 3.55988 7.82043 5.39988C7.81043 5.42988 7.79043 5.45988 7.78043 5.48988L6.47043 8.59988C6.69043 8.57988 6.90043 8.56988 7.12043 8.56988H9.47043L11.8804 2.96988C11.4104 2.81988 10.9904 2.74988 10.6104 2.74988Z" fill="#0E1117"/>
<path d="M18.2905 10.27C18.2205 10.27 18.1405 10.26 18.0705 10.24C17.7005 10.13 17.2905 10.07 16.8705 10.07H9.97047C9.72047 10.07 9.48047 9.94002 9.34047 9.73002C9.21047 9.52002 9.18047 9.25002 9.28047 9.02002L12.1805 2.29002C12.3305 1.93002 12.7605 1.69002 13.1405 1.81002C13.2605 1.85002 13.3705 1.90002 13.4905 1.95002L15.8505 2.94002C17.2305 3.51002 18.1505 4.11002 18.7505 4.83002C18.8705 4.97002 18.9705 5.12002 19.0605 5.27002C19.1705 5.44002 19.2705 5.65002 19.3405 5.86002C19.3705 5.93002 19.4205 6.06002 19.4505 6.20002C19.7305 7.14002 19.5905 8.31002 18.9905 9.81002C18.8705 10.09 18.5905 10.27 18.2905 10.27ZM11.1105 8.57002H16.8805C17.2005 8.57002 17.5105 8.60002 17.8205 8.65002C18.1005 7.78002 18.1605 7.11002 18.0005 6.57002C17.9805 6.48002 17.9605 6.44002 17.9505 6.40002C17.8905 6.24002 17.8505 6.15002 17.8005 6.07002C17.7305 5.96002 17.6805 5.87002 17.6005 5.78002C17.1705 5.26002 16.4105 4.78002 15.2805 4.32002L13.3005 3.49002L11.1105 8.57002Z" fill="#0E1117"/>
<path d="M15.9005 22.7498H8.10049C7.82049 22.7498 7.56049 22.7298 7.30049 22.6998C3.79049 22.4598 1.79049 20.4598 1.55049 16.9098C1.52049 16.6898 1.50049 16.4198 1.50049 16.1498V14.1998C1.50049 11.9498 2.84049 9.91982 4.91049 9.01982C5.61049 8.71982 6.36049 8.56982 7.13049 8.56982H16.8905C17.4605 8.56982 18.0105 8.64982 18.5205 8.80982C20.8705 9.51982 22.5205 11.7398 22.5205 14.1998V16.1498C22.5205 16.3698 22.5105 16.5798 22.5005 16.7798C22.2805 20.6898 20.0005 22.7498 15.9005 22.7498ZM7.12049 10.0698C6.55049 10.0698 6.01049 10.1798 5.49049 10.3998C3.97049 11.0598 2.99049 12.5498 2.99049 14.1998V16.1498C2.99049 16.3598 3.01049 16.5698 3.03049 16.7698C3.22049 19.6198 4.62049 21.0198 7.43049 21.2098C7.68049 21.2398 7.88049 21.2598 8.09049 21.2598H15.8905C19.1905 21.2598 20.8105 19.8098 20.9705 16.7098C20.9805 16.5298 20.9905 16.3498 20.9905 16.1498V14.1998C20.9905 12.3898 19.7805 10.7698 18.0605 10.2398C17.6905 10.1298 17.2805 10.0698 16.8605 10.0698H7.12049Z" fill="#0E1117"/>
<path d="M2.24048 14.9498C1.83048 14.9498 1.49048 14.6098 1.49048 14.1998V11.2698C1.49048 8.1198 3.72048 5.3998 6.80048 4.7998C7.07048 4.7498 7.35048 4.8498 7.53048 5.0598C7.70048 5.2698 7.75048 5.5698 7.64048 5.8198L5.89048 9.9998C5.81048 10.1798 5.67048 10.3198 5.50048 10.3998C3.98048 11.0598 3.00048 12.5498 3.00048 14.1998C2.99048 14.6098 2.66048 14.9498 2.24048 14.9498ZM5.60048 6.8198C4.32048 7.5398 3.39048 8.7998 3.10048 10.2698C3.54048 9.8198 4.05048 9.4398 4.63048 9.1598L5.60048 6.8198Z" fill="#0E1117"/>
<path d="M21.7604 14.9498C21.3504 14.9498 21.0104 14.6098 21.0104 14.1998C21.0104 12.3898 19.8004 10.7698 18.0804 10.2398C17.8804 10.1798 17.7104 10.0398 17.6204 9.84978C17.5304 9.65978 17.5204 9.43978 17.6004 9.24978C18.0704 8.07978 18.1904 7.22978 18.0004 6.56978C17.9804 6.47978 17.9604 6.43978 17.9504 6.39978C17.8204 6.10978 17.8904 5.76978 18.1204 5.54978C18.3504 5.32978 18.7004 5.27978 18.9804 5.42978C21.1604 6.56978 22.5104 8.80978 22.5104 11.2698V14.1998C22.5104 14.6098 22.1704 14.9498 21.7604 14.9498ZM19.2504 9.08978C19.8804 9.37978 20.4404 9.78978 20.9104 10.2798C20.7204 9.29978 20.2504 8.40978 19.5604 7.70978C19.5104 8.12978 19.4104 8.58978 19.2504 9.08978Z" fill="#0E1117"/>
</svg>
