<svg width="24" height="24" viewBox="0 0 24 24" fill="none" xmlns="http://www.w3.org/2000/svg">
<path opacity="0.4" d="M16.24 3.6499H7.76004C5.29004 3.6499 3.29004 5.6599 3.29004 8.1199V17.5299C3.29004 19.9899 5.30004 21.9999 7.76004 21.9999H16.23C18.7 21.9999 20.7 19.9899 20.7 17.5299V8.1199C20.71 5.6499 18.7 3.6499 16.24 3.6499Z" fill="#0E1117"/>
<path d="M14.3498 2H9.64977C8.60977 2 7.75977 2.84 7.75977 3.88V4.82C7.75977 5.86 8.59977 6.7 9.63977 6.7H14.3498C15.3898 6.7 16.2298 5.86 16.2298 4.82V3.88C16.2398 2.84 15.3898 2 14.3498 2Z" fill="#0E1117"/>
<path d="M15.0004 13.2499C14.5904 13.2499 14.2504 13.5899 14.2504 13.9999V15.1899L9.53043 10.4699C9.24043 10.1799 8.76043 10.1799 8.47043 10.4699C8.18043 10.7599 8.18043 11.2399 8.47043 11.5299L13.1904 16.2499H12.0004C11.5904 16.2499 11.2504 16.5899 11.2504 16.9999C11.2504 17.4099 11.5904 17.7499 12.0004 17.7499H15.0004C15.4104 17.7499 15.7504 17.4099 15.7504 16.9999V13.9999C15.7504 13.5899 15.4104 13.2499 15.0004 13.2499Z" fill="#0E1117"/>
</svg>
