<svg width="24" height="24" viewBox="0 0 24 24" fill="none" xmlns="http://www.w3.org/2000/svg">
<path d="M12.55 12.9201C10.91 13.3101 9.47999 11.8801 9.86999 10.2401C10.06 9.47008 10.69 8.84011 11.46 8.65011C12.81 8.32011 14.03 9.25009 14.19 10.5001" stroke="#0E1117" stroke-width="1.5" stroke-linecap="round" stroke-linejoin="round"/>
<path d="M7.63995 3.1499C4.98995 4.6599 3.20996 7.51986 3.20996 10.7899C3.20996 13.3299 4.28996 15.6198 6.01996 17.2198" stroke="#0E1117" stroke-width="1.5" stroke-linecap="round" stroke-linejoin="round"/>
<path d="M18.01 17.19C19.72 15.59 20.79 13.32 20.79 10.79C20.79 5.92998 16.85 2 12 2" stroke="#0E1117" stroke-width="1.5" stroke-linecap="round" stroke-linejoin="round"/>
<path d="M7.99977 14.5498C7.07977 13.5698 6.50977 12.2498 6.50977 10.7898C6.50977 7.75979 8.96977 5.2998 11.9998 5.2998C15.0298 5.2998 17.4898 7.75979 17.4898 10.7898C17.4898 12.2498 16.9198 13.5598 15.9998 14.5498" stroke="#0E1117" stroke-width="1.5" stroke-linecap="round" stroke-linejoin="round"/>
<path d="M10.3002 16.6598L8.86022 18.4498C7.72022 19.8798 8.73022 21.9898 10.5602 21.9898H13.4302C15.2602 21.9898 16.2802 19.8698 15.1302 18.4498L13.6902 16.6598C12.8302 15.5698 11.1702 15.5698 10.3002 16.6598Z" stroke="#0E1117" stroke-width="1.5" stroke-linecap="round" stroke-linejoin="round"/>
</svg>
