<svg width="24" height="24" viewBox="0 0 24 24" fill="none" xmlns="http://www.w3.org/2000/svg">
<path d="M20.1014 6.94C20.1014 7.48 19.8114 7.97 19.3514 8.22L17.6114 9.16L16.1314 9.95L13.0614 11.61C12.7314 11.79 12.3714 11.88 12.0014 11.88C11.6314 11.88 11.2714 11.79 10.9414 11.61L4.65137 8.22C4.19137 7.97 3.90137 7.48 3.90137 6.94C3.90137 6.4 4.19137 5.91 4.65137 5.66L6.62137 4.6L8.19137 3.75L10.9414 2.27C11.6014 1.91 12.4014 1.91 13.0614 2.27L19.3514 5.66C19.8114 5.91 20.1014 6.4 20.1014 6.94Z" fill="#0E1117"/>
<path d="M9.9007 12.7901L4.0507 9.87014C3.6007 9.64014 3.0807 9.67014 2.6507 9.93014C2.2207 10.1901 1.9707 10.6501 1.9707 11.1501V16.6801C1.9707 17.6401 2.5007 18.5001 3.3607 18.9301L9.2107 21.8501C9.4107 21.9501 9.6307 22.0001 9.8507 22.0001C10.1107 22.0001 10.3707 21.9301 10.6007 21.7801C11.0307 21.5201 11.2807 21.0601 11.2807 20.5601V15.0301C11.2907 14.0801 10.7607 13.2201 9.9007 12.7901Z" fill="#0E1117"/>
<path d="M22.0309 11.1501V16.6801C22.0309 17.6301 21.5009 18.4901 20.6409 18.9201L14.7909 21.8501C14.5909 21.9501 14.3709 22.0001 14.1509 22.0001C13.8909 22.0001 13.6309 21.9301 13.3909 21.7801C12.9709 21.5201 12.7109 21.0601 12.7109 20.5601V15.0401C12.7109 14.0801 13.2409 13.2201 14.1009 12.7901L16.2509 11.7201L17.7509 10.9701L19.9509 9.87013C20.4009 9.64013 20.9209 9.66013 21.3509 9.93013C21.7709 10.1901 22.0309 10.6501 22.0309 11.1501Z" fill="#0E1117"/>
<path d="M17.6111 9.16L16.1311 9.95L6.62109 4.6L8.19109 3.75L17.3711 8.93C17.4711 8.99 17.5511 9.07 17.6111 9.16Z" fill="#0E1117"/>
<path d="M17.751 10.9702V13.2402C17.751 13.6502 17.411 13.9902 17.001 13.9902C16.591 13.9902 16.251 13.6502 16.251 13.2402V11.7202L17.751 10.9702Z" fill="#0E1117"/>
</svg>
