<svg width="24" height="24" viewBox="0 0 24 24" fill="none" xmlns="http://www.w3.org/2000/svg">
<path opacity="0.4" d="M14 5V10H13C11.35 10 10 11.35 10 13V14H5C3.34 14 2 12.66 2 11V5C2 3.34 3.34 2 5 2H11C12.66 2 14 3.34 14 5Z" fill="#0E1117"/>
<path d="M5.2 6.62965C4.97 6.62965 4.73 6.51965 4.59 6.30965C4.35 5.96965 4.43 5.49966 4.77 5.25966C5.55 4.70966 6.6 4.69964 7.39 5.23964C7.73 5.46964 7.82 5.93968 7.59 6.27968C7.36 6.61968 6.89 6.70963 6.55 6.47963C6.28 6.29963 5.92001 6.29964 5.65001 6.48964C5.50001 6.58964 5.35 6.62965 5.2 6.62965Z" fill="#0E1117"/>
<path d="M9.2 6.62965C8.97 6.62965 8.73 6.51965 8.59 6.30965C8.35 5.96965 8.43 5.49966 8.77 5.25966C9.55 4.70966 10.6 4.69964 11.39 5.23964C11.73 5.46964 11.82 5.93968 11.59 6.27968C11.36 6.61968 10.89 6.70963 10.55 6.47963C10.28 6.29963 9.92001 6.29964 9.65001 6.48964C9.50001 6.58964 9.35 6.62965 9.2 6.62965Z" fill="#0E1117"/>
<path d="M8.16005 12.1697H5.84005C5.13005 12.1697 4.55005 11.5897 4.55005 10.8797C4.55005 8.9797 6.10005 7.42969 8.00005 7.42969C8.78005 7.42969 9.55005 7.6997 10.16 8.1897C10.48 8.4497 10.54 8.91969 10.28 9.23969C10.02 9.55968 9.55005 9.61968 9.23005 9.35968C8.88005 9.07968 8.46005 8.92969 8.01005 8.92969C7.01005 8.92969 6.18005 9.68968 6.07005 10.6697H8.17005C8.58005 10.6697 8.92005 11.0097 8.92005 11.4197C8.92005 11.8297 8.57005 12.1697 8.16005 12.1697Z" fill="#0E1117"/>
<path d="M18.22 16.6796C18.15 16.5996 18.05 16.5596 17.94 16.5596H14.06C13.95 16.5596 13.85 16.5996 13.78 16.6796C13.71 16.7596 13.67 16.8695 13.69 16.9695C13.82 18.1495 14.81 19.0496 16 19.0496C17.19 19.0496 18.18 18.1595 18.31 16.9695C18.32 16.8595 18.29 16.7596 18.22 16.6796Z" fill="#0E1117"/>
<path d="M19 10H13C11.35 10 10 11.35 10 13V19C10 20.65 11.35 22 13 22H19C20.65 22 22 20.65 22 19V13C22 11.35 20.65 10 19 10ZM12.59 13.17C12.83 12.83 13.3 12.75 13.64 12.99C13.91 13.18 14.27 13.18 14.54 13C14.88 12.76 15.35 12.85 15.58 13.2C15.81 13.54 15.73 14.01 15.38 14.24C14.99 14.5 14.54 14.64 14.09 14.64C13.62 14.64 13.16 14.5 12.77 14.22C12.43 13.97 12.35 13.5 12.59 13.17ZM16 20.17C14.1 20.17 12.55 18.62 12.55 16.72C12.55 16.01 13.13 15.43 13.84 15.43H18.16C18.87 15.43 19.45 16.01 19.45 16.72C19.45 18.62 17.9 20.17 16 20.17ZM19.38 14.23C18.99 14.49 18.54 14.63 18.09 14.63C17.62 14.63 17.16 14.49 16.77 14.21C16.43 13.97 16.35 13.5 16.59 13.16C16.83 12.82 17.3 12.74 17.64 12.98C17.91 13.17 18.27 13.17 18.54 12.99C18.88 12.75 19.35 12.84 19.58 13.19C19.81 13.54 19.72 14 19.38 14.23Z" fill="#0E1117"/>
</svg>
