<svg width="24" height="24" viewBox="0 0 24 24" fill="none" xmlns="http://www.w3.org/2000/svg">
<path opacity="0.4" d="M16.24 3.6499H7.76004C5.29004 3.6499 3.29004 5.6599 3.29004 8.1199V17.5299C3.29004 19.9899 5.30004 21.9999 7.76004 21.9999H16.23C18.7 21.9999 20.7 19.9899 20.7 17.5299V8.1199C20.71 5.6499 18.7 3.6499 16.24 3.6499Z" fill="#0E1117"/>
<path d="M14.3498 2H9.64977C8.60977 2 7.75977 2.84 7.75977 3.88V4.82C7.75977 5.86 8.59977 6.7 9.63977 6.7H14.3498C15.3898 6.7 16.2298 5.86 16.2298 4.82V3.88C16.2398 2.84 15.3898 2 14.3498 2Z" fill="#0E1117"/>
<path d="M14.5304 15.6199L13.0804 14.1699L14.4804 12.7699C14.7704 12.4799 14.7704 11.9999 14.4804 11.7099C14.1904 11.4199 13.7104 11.4199 13.4204 11.7099L12.0204 13.1099L10.5704 11.6599C10.2804 11.3699 9.80043 11.3699 9.51043 11.6599C9.22043 11.9499 9.22043 12.4299 9.51043 12.7199L10.9604 14.1699L9.47043 15.6599C9.18043 15.9499 9.18043 16.4299 9.47043 16.7199C9.62043 16.8699 9.81043 16.9399 10.0004 16.9399C10.1904 16.9399 10.3804 16.8699 10.5304 16.7199L12.0204 15.2299L13.4704 16.6799C13.6204 16.8299 13.8104 16.8999 14.0004 16.8999C14.1904 16.8999 14.3804 16.8299 14.5304 16.6799C14.8204 16.3899 14.8204 15.9199 14.5304 15.6199Z" fill="#0E1117"/>
</svg>
