<svg width="24" height="24" viewBox="0 0 24 24" fill="none" xmlns="http://www.w3.org/2000/svg">
<path d="M15.782 2H8.22195C4.44195 2 3.50195 3.01 3.50195 7.04V18.3C3.50195 20.96 4.96195 21.59 6.73195 19.69L6.74195 19.68C7.56195 18.81 8.81195 18.88 9.52195 19.83L10.532 21.18C11.342 22.25 12.652 22.25 13.462 21.18L14.472 19.83C15.192 18.87 16.442 18.8 17.262 19.68C19.042 21.58 20.492 20.95 20.492 18.29V7.04C20.502 3.01 19.562 2 15.782 2ZM15.662 14.53C15.512 14.68 15.322 14.75 15.132 14.75C14.942 14.75 14.752 14.68 14.602 14.53L13.862 13.79C13.282 14.17 12.582 14.4 11.832 14.4C9.79195 14.4 8.13195 12.74 8.13195 10.7C8.13195 8.66 9.78195 7 11.832 7C13.882 7 15.532 8.66 15.532 10.7C15.532 11.45 15.302 12.15 14.922 12.73L15.662 13.47C15.952 13.76 15.952 14.24 15.662 14.53Z" fill="#0E1117"/>
</svg>
