<svg width="24" height="24" viewBox="0 0 24 24" fill="none" xmlns="http://www.w3.org/2000/svg">
<path d="M12.3315 21.3399C11.2415 21.3399 10.1515 20.9299 9.3215 20.0999C7.6615 18.4399 7.6615 15.7499 9.3215 14.0899L11.8015 11.6199C12.0915 11.3299 12.5715 11.3299 12.8615 11.6199C13.1515 11.9099 13.1515 12.3899 12.8615 12.6799L10.3815 15.1499C9.3115 16.2199 9.3115 17.9699 10.3815 19.0399C11.4515 20.1099 13.2015 20.1099 14.2715 19.0399L18.1615 15.1499C19.3415 13.9699 19.9915 12.3999 19.9915 10.7299C19.9915 9.05986 19.3415 7.48986 18.1615 6.30986C15.7215 3.86986 11.7615 3.86986 9.3215 6.30986L5.0815 10.5499C4.0915 11.5399 3.5415 12.8599 3.5415 14.2599C3.5415 15.6599 4.0915 16.9799 5.0815 17.9699C5.3715 18.2599 5.3715 18.7399 5.0815 19.0299C4.7915 19.3199 4.3115 19.3199 4.0215 19.0299C2.7515 17.7499 2.0415 16.0599 2.0415 14.2599C2.0415 12.4599 2.7415 10.7599 4.0215 9.48986L8.2615 5.24986C11.2815 2.22986 16.2015 2.22986 19.2215 5.24986C20.6815 6.70986 21.4915 8.65986 21.4915 10.7299C21.4915 12.7999 20.6815 14.7499 19.2215 16.2099L15.3315 20.0999C14.5015 20.9299 13.4215 21.3399 12.3315 21.3399Z" fill="#0E1117"/>
</svg>
