<svg width="24" height="24" viewBox="0 0 24 24" fill="none" xmlns="http://www.w3.org/2000/svg">
<path d="M21.7202 6.27977V7.44977C21.7202 8.42977 21.3302 9.26977 20.6402 9.75977C20.2102 10.0798 19.6802 10.2298 19.1302 10.2298C18.7902 10.2298 18.4502 10.1798 18.1002 10.0598L12.7202 8.26977V17.9998C12.7202 20.6198 10.5902 22.7498 7.97021 22.7498C5.35021 22.7498 3.22021 20.6198 3.22021 17.9998C3.22021 15.3798 5.35021 13.2498 7.97021 13.2498C9.23022 13.2498 10.3702 13.7498 11.2202 14.5498V3.99977C11.2202 3.02977 11.6202 2.18977 12.3102 1.68977C13.0002 1.19977 13.9202 1.08977 14.8402 1.38977L19.2602 2.86977C20.6202 3.31977 21.7202 4.84977 21.7202 6.27977Z" fill="#0E1117"/>
</svg>
