<svg width="24" height="24" viewBox="0 0 24 24" fill="none" xmlns="http://www.w3.org/2000/svg">
<path d="M18.5398 4.16965L13.0398 2.10965C12.4698 1.89965 11.5398 1.89965 10.9698 2.10965L5.4698 4.16965C4.4098 4.56965 3.5498 5.80965 3.5498 6.93965V15.0396C3.5498 15.8496 4.0798 16.9196 4.7298 17.3996L10.2298 21.5096C11.1998 22.2396 12.7898 22.2396 13.7598 21.5096L19.2598 17.3996C19.9098 16.9096 20.4398 15.8496 20.4398 15.0396V6.93965C20.4498 5.80965 19.5898 4.56965 18.5398 4.16965ZM12.7498 12.8696V15.4996C12.7498 15.9096 12.4098 16.2496 11.9998 16.2496C11.5898 16.2496 11.2498 15.9096 11.2498 15.4996V12.8696C10.2398 12.5496 9.4998 11.6096 9.4998 10.4996C9.4998 9.11965 10.6198 7.99965 11.9998 7.99965C13.3798 7.99965 14.4998 9.11965 14.4998 10.4996C14.4998 11.6196 13.7598 12.5496 12.7498 12.8696Z" fill="#0E1117"/>
</svg>
