<svg width="24" height="24" viewBox="0 0 24 24" fill="none" xmlns="http://www.w3.org/2000/svg">
<path d="M17.9998 16.7501C17.8398 16.7501 17.6898 16.7001 17.5498 16.6001C17.2198 16.3501 17.1498 15.8801 17.3998 15.5501C18.6598 13.8701 18.9298 11.6401 18.1198 9.71007C17.9598 9.33007 18.1398 8.89007 18.5198 8.73007C18.8998 8.57007 19.3398 8.75007 19.4998 9.13007C20.5198 11.5501 20.1698 14.3601 18.5998 16.4601C18.4498 16.6501 18.2298 16.7501 17.9998 16.7501Z" fill="#0E1117"/>
<path d="M19.8299 19.25C19.6699 19.25 19.5199 19.2 19.3799 19.1C19.0499 18.85 18.9799 18.38 19.2299 18.05C21.3699 15.2 21.8399 11.38 20.4599 8.08995C20.2999 7.70995 20.4799 7.26995 20.8599 7.10995C21.2399 6.94996 21.6799 7.12996 21.8399 7.50996C23.4299 11.29 22.8899 15.67 20.4299 18.95C20.2899 19.15 20.0599 19.25 19.8299 19.25Z" fill="#0E1117"/>
<path d="M14.04 12.96C14.67 12.33 15.75 12.78 15.75 13.67V16.6C15.75 18.32 15.13 19.61 14.02 20.23C13.57 20.48 13.07 20.6 12.55 20.6C11.75 20.6 10.89 20.33 10.01 19.78L9.36998 19.38C8.82998 19.04 8.73998 18.28 9.18998 17.83L14.04 12.96Z" fill="#0E1117"/>
<path d="M21.77 2.22988C21.47 1.92988 20.98 1.92988 20.68 2.22988L15.73 7.17988C15.67 5.57988 15.07 4.37988 14.01 3.78988C12.89 3.16988 11.46 3.32988 10 4.23988L7.09 6.05988C6.89 6.17988 6.66 6.24988 6.43 6.24988H5.5H5C2.58 6.24988 1.25 7.57988 1.25 9.99988V13.9999C1.25 16.4199 2.58 17.7499 5 17.7499H5.16L2.22 20.6899C1.92 20.9899 1.92 21.4799 2.22 21.7799C2.38 21.9199 2.57 21.9999 2.77 21.9999C2.97 21.9999 3.16 21.9199 3.31 21.7699L21.77 3.30988C22.08 3.00988 22.08 2.52988 21.77 2.22988Z" fill="#0E1117"/>
</svg>
