<svg width="24" height="24" viewBox="0 0 24 24" fill="none" xmlns="http://www.w3.org/2000/svg">
<path d="M18.6498 4.58979C16.8898 2.98979 14.5598 2.02979 11.9998 2.02979C6.49979 2.02979 2.02979 6.49979 2.02979 11.9998C2.02979 17.4998 6.49979 21.9698 11.9998 21.9698C14.5598 21.9698 16.8898 21.0098 18.6498 19.4098C20.6898 17.5998 21.9698 14.9398 21.9698 11.9998C21.9698 9.05979 20.6898 6.39979 18.6498 4.58979ZM11.9698 16.3898C11.9498 18.0398 10.7198 18.4398 9.56979 17.9798C7.19979 17.0298 5.52979 14.7098 5.52979 11.9998C5.52979 9.28979 7.19979 6.96979 9.56979 6.00979C10.7198 5.54979 11.9498 5.95978 11.9698 7.59978V16.3898Z" fill="#0E1117"/>
</svg>
