<svg width="24" height="24" viewBox="0 0 24 24" fill="none" xmlns="http://www.w3.org/2000/svg">
<path d="M22.002 15C22.002 18.87 18.872 22 15.002 22L16.052 20.25" stroke="#0E1117" stroke-width="1.5" stroke-linecap="round" stroke-linejoin="round"/>
<path d="M2.00195 9C2.00195 5.13 5.13195 2 9.00195 2L7.95195 3.75" stroke="#0E1117" stroke-width="1.5" stroke-linecap="round" stroke-linejoin="round"/>
<path d="M22.002 4.2V4.31C22.002 4.59 21.782 4.81 21.502 4.81H12.502C12.222 4.81 12.002 4.59 12.002 4.31V4.2C12.002 2.44 12.442 2 14.222 2H19.782C21.562 2 22.002 2.44 22.002 4.2Z" fill="#0E1117"/>
<path d="M12.502 5.81006C12.222 5.81006 12.002 6.03006 12.002 6.31006V7.31006V8.30006C12.002 10.0601 12.442 10.5001 14.222 10.5001H19.782C21.562 10.5001 22.002 10.0601 22.002 8.30006V7.31006V6.31006C22.002 6.03006 21.782 5.81006 21.502 5.81006H12.502Z" fill="#0E1117"/>
<path d="M12.002 15.7V15.81C12.002 16.09 11.782 16.31 11.502 16.31H2.50195C2.22195 16.31 2.00195 16.09 2.00195 15.81V15.7C2.00195 13.94 2.44195 13.5 4.22195 13.5H9.78195C11.562 13.5 12.002 13.94 12.002 15.7Z" fill="#0E1117"/>
<path d="M2.50195 17.3101C2.22195 17.3101 2.00195 17.5301 2.00195 17.8101V18.8101V19.8001C2.00195 21.5601 2.44195 22.0001 4.22195 22.0001H9.78195C11.562 22.0001 12.002 21.5601 12.002 19.8001V18.8101V17.8101C12.002 17.5301 11.782 17.3101 11.502 17.3101H2.50195Z" fill="#0E1117"/>
</svg>
