<svg width="24" height="24" viewBox="0 0 24 24" fill="none" xmlns="http://www.w3.org/2000/svg">
<path d="M8.67041 14.3298C8.67041 15.6198 9.66041 16.6598 10.8904 16.6598H13.4004C14.4704 16.6598 15.3404 15.7498 15.3404 14.6298C15.3404 13.4098 14.8104 12.9798 14.0204 12.6998L9.99041 11.2998C9.20041 11.0198 8.67041 10.5898 8.67041 9.36984C8.67041 8.24984 9.54041 7.33984 10.6104 7.33984H13.1204C14.3504 7.33984 15.3404 8.37984 15.3404 9.66984" stroke="#0E1117" stroke-width="1.5" stroke-linecap="round" stroke-linejoin="round"/>
<path d="M12.0005 6V18" stroke="#0E1117" stroke-width="1.5" stroke-linecap="round" stroke-linejoin="round"/>
<path d="M2.00049 9C2.00049 4 4.00049 2 9.00049 2H15.0005C20.0005 2 22.0005 4 22.0005 9V15C22.0005 20 20.0005 22 15.0005 22H9.00049C4.00049 22 2.00049 20 2.00049 15V13.03" stroke="#0E1117" stroke-width="1.5" stroke-linecap="round" stroke-linejoin="round"/>
</svg>
