<svg width="24" height="24" viewBox="0 0 24 24" fill="none" xmlns="http://www.w3.org/2000/svg">
<path d="M19.852 12.9398C19.852 13.7398 20.502 14.3998 21.302 14.3998C21.682 14.3998 22.002 14.7098 22.002 15.0898C22.002 18.9298 20.842 20.0898 17.002 20.0898H11.752V18.4998C11.752 18.1098 11.452 17.7898 11.072 17.7598C11.052 17.7498 11.022 17.7498 11.002 17.7498C10.592 17.7498 10.252 18.0898 10.252 18.4998V20.0898H8.49204C6.61204 20.0898 5.64204 18.6798 4.76204 16.5498L4.59204 16.1298C4.45204 15.7698 4.62204 15.3598 4.98204 15.2198C5.35204 15.0798 5.64204 14.7898 5.79204 14.4098C5.95204 14.0398 5.95204 13.6298 5.80204 13.2598C5.48204 12.4898 4.60204 12.1198 3.82204 12.4298C3.65204 12.5098 3.45204 12.5098 3.28204 12.4298C3.11204 12.3598 2.98204 12.2198 2.90204 12.0398L2.75204 11.6398C1.26204 8.01981 1.91204 6.46981 5.53204 4.96981L7.98204 3.95981C8.34204 3.80981 8.75204 3.97981 8.89204 4.33981L11.072 9.08981C10.662 9.08981 10.252 9.41981 10.252 9.82981V14.1698C10.252 14.5798 10.592 14.9198 11.002 14.9198C11.022 14.9198 11.052 14.9198 11.072 14.9098C11.452 14.8798 11.752 14.5598 11.752 14.1698V9.82981C11.752 9.43981 11.452 9.11981 11.072 9.08981V4.92981H17.002C20.842 4.92981 22.002 6.08981 22.002 9.92981V10.7798C22.002 11.1698 21.682 11.4798 21.302 11.4798C20.502 11.4798 19.852 12.1298 19.852 12.9398Z" fill="#0E1117"/>
</svg>
