<svg width="24" height="24" viewBox="0 0 24 24" fill="none" xmlns="http://www.w3.org/2000/svg">
<path d="M2.00049 8.5H11.5005" stroke="#0E1117" stroke-width="1.5" stroke-miterlimit="10" stroke-linecap="round" stroke-linejoin="round"/>
<path d="M6.00049 16.5H8.00049" stroke="#0E1117" stroke-width="1.5" stroke-miterlimit="10" stroke-linecap="round" stroke-linejoin="round"/>
<path d="M10.5005 16.5H14.5005" stroke="#0E1117" stroke-width="1.5" stroke-miterlimit="10" stroke-linecap="round" stroke-linejoin="round"/>
<path d="M2.00049 11.03V7.89C2.00049 4.38 2.89049 3.5 6.44049 3.5H14.5005" stroke="#0E1117" stroke-width="1.5" stroke-linecap="round" stroke-linejoin="round"/>
<path d="M22.0005 12.0298V16.1098C22.0005 19.6198 21.1105 20.4998 17.5605 20.4998H6.44049C2.89049 20.4998 2.00049 19.6198 2.00049 16.1098V14.9998" stroke="#0E1117" stroke-width="1.5" stroke-linecap="round" stroke-linejoin="round"/>
<path d="M19.0805 4.12982L15.3705 7.83982C15.2305 7.97982 15.0905 8.25982 15.0605 8.45982L14.8605 9.87982C14.7905 10.3898 15.1505 10.7498 15.6605 10.6798L17.0805 10.4798C17.2805 10.4498 17.5605 10.3098 17.7005 10.1698L21.4105 6.45982C22.0505 5.81982 22.3505 5.07982 21.4105 4.13982C20.4605 3.18982 19.7205 3.48982 19.0805 4.12982Z" stroke="#0E1117" stroke-width="1.5" stroke-miterlimit="10" stroke-linecap="round" stroke-linejoin="round"/>
<path d="M18.5505 4.66016C18.8705 5.79016 19.7505 6.67016 20.8705 6.98016" stroke="#0E1117" stroke-width="1.5" stroke-miterlimit="10" stroke-linecap="round" stroke-linejoin="round"/>
</svg>
