<svg width="24" height="24" viewBox="0 0 24 24" fill="none" xmlns="http://www.w3.org/2000/svg">
<path d="M3.24025 15.27C2.86025 15.41 2.44025 15.49 2.01025 15.49C2.10025 19.08 3.17025 20 7.00025 20H17.0003C21.0003 20 22.0003 19 22.0003 15V9C22.0003 5 21.0003 4 17.0003 4H7.00025C3.17025 4 2.10025 4.92 2.01025 8.5C3.94025 8.5 5.50025 10.07 5.50025 12" stroke="#0E1117" stroke-width="1.5" stroke-linecap="round" stroke-linejoin="round"/>
<path d="M9.00049 4V7.5" stroke="#0E1117" stroke-width="1.5" stroke-linecap="round" stroke-linejoin="round"/>
<path d="M9.00049 16.5V20" stroke="#0E1117" stroke-width="1.5" stroke-linecap="round" stroke-linejoin="round"/>
<path d="M14.8604 14.2099C14.7404 14.1499 14.5904 14.1499 14.4704 14.2099L13.2404 14.8599C12.9304 15.0199 12.5804 14.7599 12.6404 14.4199L12.8804 13.0499C12.9004 12.9099 12.8604 12.7799 12.7604 12.6799L11.7704 11.7099C11.5204 11.4699 11.6604 11.0499 12.0004 10.9999L13.3804 10.7999C13.5204 10.7799 13.6304 10.6999 13.6904 10.5699L14.3004 9.3199C14.4504 9.0099 14.8904 9.0099 15.0404 9.3199L15.6604 10.5699C15.7204 10.6899 15.8404 10.7799 15.9704 10.7999L17.3504 10.9999C17.6904 11.0499 17.8304 11.4699 17.5804 11.7099L16.5804 12.6799C16.4804 12.7699 16.4404 12.9099 16.4604 13.0499" stroke="#0E1117" stroke-width="1.5" stroke-linecap="round" stroke-linejoin="round"/>
</svg>
