<svg width="24" height="24" viewBox="0 0 24 24" fill="none" xmlns="http://www.w3.org/2000/svg">
<path d="M16.05 7.66965C15.81 7.48965 15.61 7.25965 15.5 7.02965L13.74 3.50965C12.79 1.59965 11.23 1.59965 10.27 3.50965L8.50003 7.02965C8.38003 7.27965 8.16003 7.50965 7.91003 7.69965" stroke="#0E1117" stroke-width="1.5" stroke-linecap="round" stroke-linejoin="round"/>
<path d="M5.28003 18.6504L5.85003 16.1804C5.98003 15.6004 5.75003 14.7904 5.33003 14.3704L2.85003 11.8904C1.39003 10.4304 1.86003 8.95035 3.90003 8.61035" stroke="#0E1117" stroke-width="1.5" stroke-linecap="round" stroke-linejoin="round"/>
<path d="M20.1 8.61035C22.14 8.95035 22.62 10.4304 21.15 11.8904L18.67 14.3704C18.25 14.7904 18.02 15.6004 18.15 16.1804L18.86 19.2504C19.42 21.6804 18.13 22.6204 15.98 21.3504L12.99 19.5804C12.45 19.2604 11.56 19.2604 11.01 19.5804L8.02002 21.3504" stroke="#0E1117" stroke-width="1.5" stroke-linecap="round" stroke-linejoin="round"/>
<path d="M22 2L2 22" stroke="#0E1117" stroke-width="1.5" stroke-linecap="round" stroke-linejoin="round"/>
</svg>
