<svg width="24" height="24" viewBox="0 0 24 24" fill="none" xmlns="http://www.w3.org/2000/svg">
<path d="M15.0015 22.75H9.00146C3.57147 22.75 1.25146 20.43 1.25146 15V9C1.25146 3.57 3.57147 1.25 9.00146 1.25H15.0015C20.4315 1.25 22.7515 3.57 22.7515 9V15C22.7515 20.43 20.4315 22.75 15.0015 22.75ZM9.00146 2.75C4.39146 2.75 2.75146 4.39 2.75146 9V15C2.75146 19.61 4.39146 21.25 9.00146 21.25H15.0015C19.6115 21.25 21.2515 19.61 21.2515 15V9C21.2515 4.39 19.6115 2.75 15.0015 2.75H9.00146Z" fill="#0E1117"/>
<path d="M17.0013 12.5898H14.3213C13.2313 12.5898 12.3813 11.7398 12.3813 10.6498V9.15973C12.3813 8.06973 13.2313 7.21973 14.3213 7.21973H15.8113C16.8813 7.21973 17.7513 8.08973 17.7513 9.15973V11.8298C17.7513 12.2498 17.4113 12.5898 17.0013 12.5898ZM14.3213 8.71973C14.0013 8.71973 13.8813 8.95973 13.8813 9.15973V10.6498C13.8813 10.8498 13.9913 11.0898 14.3213 11.0898H16.2513V9.16974C16.2513 8.92974 16.0513 8.72974 15.8113 8.72974H14.3213V8.71973Z" fill="#0E1117"/>
<path d="M14.9114 16.7798C14.6514 16.7798 14.4014 16.6498 14.2614 16.4098C14.0514 16.0498 14.1714 15.5898 14.5214 15.3798C15.8814 14.5698 16.2514 14.3598 16.2514 11.8398C16.2514 11.4298 16.5914 11.0898 17.0014 11.0898C17.4114 11.0898 17.7514 11.4298 17.7514 11.8398C17.7514 14.9198 17.0814 15.6098 15.2914 16.6698C15.1714 16.7398 15.0414 16.7798 14.9114 16.7798Z" fill="#0E1117"/>
<path d="M10.8617 12.5898H8.1817C7.0917 12.5898 6.2417 11.7398 6.2417 10.6498V9.15973C6.2417 8.06973 7.0917 7.21973 8.1817 7.21973H9.6717C10.7417 7.21973 11.6117 8.08973 11.6117 9.15973V11.8298C11.6117 12.2498 11.2817 12.5898 10.8617 12.5898ZM8.1917 8.71973C7.8717 8.71973 7.7517 8.95973 7.7517 9.15973V10.6498C7.7517 10.8498 7.8617 11.0898 8.1917 11.0898H10.1217V9.16974C10.1217 8.92974 9.9217 8.72974 9.6817 8.72974H8.1917V8.71973Z" fill="#0E1117"/>
<path d="M8.77129 16.7798C8.51129 16.7798 8.26128 16.6498 8.12128 16.4098C7.91128 16.0498 8.03129 15.5898 8.38129 15.3798C9.74129 14.5698 10.1113 14.3598 10.1113 11.8398C10.1113 11.4298 10.4513 11.0898 10.8613 11.0898C11.2713 11.0898 11.6113 11.4298 11.6113 11.8398C11.6113 14.9198 10.9413 15.6098 9.15129 16.6698C9.03129 16.7398 8.90129 16.7798 8.77129 16.7798Z" fill="#0E1117"/>
</svg>
