<svg width="24" height="24" viewBox="0 0 24 24" fill="none" xmlns="http://www.w3.org/2000/svg">
<path d="M8.67041 14.3298C8.67041 15.6198 9.66041 16.6598 10.8904 16.6598H13.4004C14.4704 16.6598 15.3404 15.7498 15.3404 14.6298C15.3404 13.4098 14.8104 12.9798 14.0204 12.6998L9.99041 11.2998C9.20041 11.0198 8.67041 10.5898 8.67041 9.36984C8.67041 8.24984 9.54041 7.33984 10.6104 7.33984H13.1204C14.3504 7.33984 15.3404 8.37984 15.3404 9.66984" stroke="#0E1117" stroke-width="1.5" stroke-linecap="round" stroke-linejoin="round"/>
<path d="M12.0005 6V18" stroke="#0E1117" stroke-width="1.5" stroke-linecap="round" stroke-linejoin="round"/>
<path d="M4.00049 6C2.75049 7.67 2.00049 9.75 2.00049 12C2.00049 17.52 6.48049 22 12.0005 22C17.5205 22 22.0005 17.52 22.0005 12C22.0005 6.48 17.5205 2 12.0005 2C10.5705 2 9.20049 2.3 7.97049 2.85" stroke="#0E1117" stroke-width="1.5" stroke-linecap="round" stroke-linejoin="round"/>
</svg>
