<svg width="24" height="24" viewBox="0 0 24 24" fill="none" xmlns="http://www.w3.org/2000/svg">
<path d="M22.0022 12.6201V14.6801C22.0022 15.2401 21.5422 15.7001 20.9722 15.7001H19.0422C17.9622 15.7001 16.9722 14.9101 16.8822 13.8301C16.8222 13.2001 17.0622 12.6101 17.4822 12.2001C17.8522 11.8201 18.3622 11.6001 18.9222 11.6001H20.9722C21.5422 11.6001 22.0022 12.0601 22.0022 12.6201Z" fill="#0E1117"/>
<path d="M15.382 13.9599C15.292 12.9099 15.672 11.8799 16.432 11.1299C17.072 10.4799 17.962 10.0999 18.922 10.0999H19.492C19.772 10.0999 20.002 9.8699 19.962 9.5899C19.692 7.6499 18.012 6.1499 16.002 6.1499H6.00195C3.79195 6.1499 2.00195 7.9399 2.00195 10.1499V17.1499C2.00195 19.3599 3.79195 21.1499 6.00195 21.1499H16.002C18.022 21.1499 19.692 19.6499 19.962 17.7099C20.002 17.4299 19.772 17.1999 19.492 17.1999H19.042C17.142 17.1999 15.542 15.7799 15.382 13.9599ZM13.002 11.8999H7.00195C6.59195 11.8999 6.25195 11.5699 6.25195 11.1499C6.25195 10.7299 6.59195 10.3999 7.00195 10.3999H13.002C13.412 10.3999 13.752 10.7399 13.752 11.1499C13.752 11.5599 13.412 11.8999 13.002 11.8999Z" fill="#0E1117"/>
<path d="M14.2121 3.9801C14.4721 4.2501 14.2421 4.6501 13.8621 4.6501H6.0321C4.9421 4.6501 3.9221 4.9701 3.0721 5.5201C2.6821 5.7701 2.1521 5.5001 2.3421 5.0701C2.9021 3.7601 4.2121 2.8501 5.7221 2.8501H11.3421C12.5021 2.8501 13.5321 3.2601 14.2121 3.9801Z" fill="#0E1117"/>
</svg>
