<svg width="24" height="24" viewBox="0 0 24 24" fill="none" xmlns="http://www.w3.org/2000/svg">
<path d="M23.0001 15.3699V17.5599C23.0001 19.9999 21.2201 22.2999 18.8001 22.9699C18.6301 23.0099 18.4501 23.0099 18.2901 22.9699C17.1101 22.6499 16.0701 21.9299 15.3401 20.9999C14.5501 20.0199 14.0901 18.8099 14.0901 17.5599V15.3699C14.0901 14.9499 14.4001 14.4899 14.7801 14.3299L17.5601 13.1899C18.1901 12.9399 18.8901 12.9399 19.5201 13.1899L20.5201 13.5999L22.3101 14.3299C22.6901 14.4899 23.0001 14.9499 23.0001 15.3699Z" fill="#0E1117"/>
<path d="M20.95 11.0098L20.77 12.0798L20.07 11.7998C19.08 11.3998 18 11.3998 16.99 11.7998L14.2 12.9498C13.25 13.3498 12.59 14.3398 12.59 15.3698V17.5598C12.59 18.7498 12.92 19.9398 13.53 20.9998H6.18004C4.81004 20.9998 3.52004 19.9098 3.29004 18.5598L2.03004 11.0098C1.87004 10.0798 2.34004 8.82979 3.08004 8.23979L9.66004 2.97979C10.67 2.16979 12.31 2.16979 13.32 2.98979L19.9 8.23979C20.63 8.82979 21.11 10.0798 20.95 11.0098Z" fill="#0E1117"/>
</svg>
