<svg width="24" height="24" viewBox="0 0 24 24" fill="none" xmlns="http://www.w3.org/2000/svg">
<path opacity="0.4" d="M9.4205 2.15994L3.9205 4.21994C2.8705 4.60994 2.0105 5.85993 2.0105 6.97993V15.0799C2.0105 15.8899 2.54051 16.9599 3.19051 17.4399L8.69051 21.5499C9.66051 22.2799 11.2505 22.2799 12.2205 21.5499L17.7205 17.4399C18.3705 16.9499 18.9005 15.8899 18.9005 15.0799V6.97993C18.9005 5.85993 18.0405 4.60994 16.9905 4.21994L11.4905 2.15994C10.9205 1.94994 9.9905 1.94994 9.4205 2.15994Z" fill="#0E1117"/>
<path d="M19.2604 6.75977H12.4104C12.2104 6.75977 12.0204 6.76978 11.8404 6.76978C10.1204 6.86978 9.6604 7.49978 9.6604 9.45978V9.84978C9.6604 10.264 9.99619 10.5998 10.4104 10.5998H21.2504C21.6646 10.5998 22.0004 10.264 22.0004 9.84978V9.45978C22.0004 7.29978 21.4504 6.75977 19.2604 6.75977Z" fill="#0E1117"/>
<path d="M10.4204 11.7002C10.0062 11.7002 9.67041 12.036 9.67041 12.4502V14.5402C9.67041 16.7002 10.2204 17.2502 12.4104 17.2502H19.2604C21.4104 17.2502 21.9804 16.7302 22.0004 14.6602V12.4502C22.0004 12.036 21.6646 11.7002 21.2504 11.7002H10.4204ZM13.2704 15.4702H12.0204C11.7204 15.4702 11.4804 15.2302 11.4804 14.9302C11.4804 14.6302 11.7204 14.3902 12.0204 14.3902H13.2704C13.5704 14.3902 13.8104 14.6302 13.8104 14.9302C13.8104 15.2302 13.5704 15.4702 13.2704 15.4702ZM17.3204 15.4702H14.8304C14.5304 15.4702 14.2904 15.2302 14.2904 14.9302C14.2904 14.6302 14.5304 14.3902 14.8304 14.3902H17.3204C17.6204 14.3902 17.8604 14.6302 17.8604 14.9302C17.8704 15.2302 17.6204 15.4702 17.3204 15.4702Z" fill="#0E1117"/>
</svg>
