<svg width="24" height="24" viewBox="0 0 24 24" fill="none" xmlns="http://www.w3.org/2000/svg">
<path d="M2.00024 7C2.00024 3 3.00024 2 7.00024 2H8.50024C10.0002 2 10.3303 2.44001 10.9003 3.20001L12.4003 5.20001C12.7803 5.70001 13.0002 6 14.0002 6H17.0002C21.0002 6 22.0002 7 22.0002 11V13" stroke="#0E1117" stroke-width="1.5" stroke-miterlimit="10" stroke-linecap="round" stroke-linejoin="round"/>
<path d="M9.00024 21.9998H7.00024C3.00024 21.9998 2.00024 20.9998 2.00024 16.9998V12.0298" stroke="#0E1117" stroke-width="1.5" stroke-miterlimit="10" stroke-linecap="round" stroke-linejoin="round"/>
<path d="M13.7603 18.3199C11.4103 18.4899 11.4103 21.8899 13.7603 22.0599H19.3203C19.9903 22.0599 20.6503 21.8099 21.1403 21.3599C22.7903 19.9199 21.9103 17.0399 19.7403 16.7699C18.9603 12.0799 12.1803 13.8599 13.7803 18.3299" stroke="#0E1117" stroke-width="1.5" stroke-miterlimit="10" stroke-linecap="round" stroke-linejoin="round"/>
</svg>
