<svg width="24" height="24" viewBox="0 0 24 24" fill="none" xmlns="http://www.w3.org/2000/svg">
<path d="M7.9412 15.2602C7.8512 15.2602 7.77119 15.2502 7.68119 15.2102C6.87119 14.9102 6.1912 14.3202 5.7612 13.5502C4.7612 11.7502 5.38121 9.40017 7.13121 8.31017L9.4712 6.86015C10.3312 6.33015 11.3412 6.17018 12.3012 6.42018C13.2612 6.67018 14.0712 7.30016 14.5612 8.18016C15.5612 9.98016 14.9412 12.3302 13.1912 13.4202L12.9312 13.6102C12.5912 13.8502 12.1212 13.7702 11.8812 13.4402C11.6412 13.1002 11.7212 12.6302 12.0512 12.3902L12.3612 12.1702C13.4812 11.4702 13.8612 10.0202 13.2512 8.91017C12.9612 8.39017 12.4912 8.02016 11.9312 7.87016C11.3712 7.72016 10.7812 7.82017 10.2712 8.13017L7.93119 9.58016C6.85119 10.2502 6.4712 11.7002 7.0812 12.8202C7.3312 13.2702 7.73121 13.6202 8.21121 13.8002C8.60121 13.9402 8.8012 14.3702 8.6512 14.7602C8.5412 15.0702 8.2512 15.2602 7.9412 15.2602Z" fill="#0E1117"/>
<path d="M12.6614 17.6501C12.3614 17.6501 12.0514 17.6101 11.7514 17.5301C10.7914 17.2801 9.98143 16.6501 9.50143 15.7701C8.50143 13.9701 9.12143 11.6201 10.8714 10.5301L11.1314 10.3401C11.4714 10.1001 11.9414 10.1801 12.1814 10.5101C12.4214 10.8501 12.3414 11.3201 12.0114 11.5601L11.7014 11.7801C10.5814 12.4801 10.2014 13.9301 10.8114 15.0401C11.1014 15.5601 11.5714 15.9301 12.1314 16.0801C12.6914 16.2301 13.2814 16.1301 13.7914 15.8201L16.1314 14.3701C17.2114 13.7001 17.5914 12.2501 16.9814 11.1301C16.7314 10.6801 16.3314 10.3301 15.8514 10.1501C15.4614 10.0101 15.2614 9.58011 15.4114 9.19011C15.5514 8.80011 15.9814 8.60011 16.3714 8.75011C17.1814 9.05011 17.8614 9.64012 18.2914 10.4101C19.2914 12.2101 18.6714 14.5601 16.9214 15.6501L14.5814 17.1001C13.9914 17.4601 13.3314 17.6501 12.6614 17.6501Z" fill="#0E1117"/>
<path d="M12.0015 22.75C6.07147 22.75 1.25146 17.93 1.25146 12C1.25146 6.07 6.07147 1.25 12.0015 1.25C17.9315 1.25 22.7515 6.07 22.7515 12C22.7515 17.93 17.9315 22.75 12.0015 22.75ZM12.0015 2.75C6.90146 2.75 2.75146 6.9 2.75146 12C2.75146 17.1 6.90146 21.25 12.0015 21.25C17.1015 21.25 21.2515 17.1 21.2515 12C21.2515 6.9 17.1015 2.75 12.0015 2.75Z" fill="#0E1117"/>
</svg>
