<svg width="24" height="24" viewBox="0 0 24 24" fill="none" xmlns="http://www.w3.org/2000/svg">
<path opacity="0.4" d="M16.19 2H7.81C4.17 2 2 4.17 2 7.81V16.18C2 19.83 4.17 22 7.81 22H16.18C19.82 22 21.99 19.83 21.99 16.19V7.81C22 4.17 19.83 2 16.19 2Z" fill="#0E1117"/>
<path d="M12.0004 10.6904C11.2804 10.6904 10.6904 11.2804 10.6904 12.0004C10.6904 12.7204 11.2804 13.3104 12.0004 13.3104C12.7204 13.3104 13.3104 12.7204 13.3104 12.0004C13.3104 11.2804 12.7204 10.6904 12.0004 10.6904Z" fill="#0E1117"/>
<path d="M7.00043 10.6904C6.28043 10.6904 5.69043 11.2804 5.69043 12.0004C5.69043 12.7204 6.28043 13.3104 7.00043 13.3104C7.72043 13.3104 8.31043 12.7204 8.31043 12.0004C8.31043 11.2804 7.72043 10.6904 7.00043 10.6904Z" fill="#0E1117"/>
<path d="M17.0004 10.6904C16.2804 10.6904 15.6904 11.2804 15.6904 12.0004C15.6904 12.7204 16.2804 13.3104 17.0004 13.3104C17.7204 13.3104 18.3104 12.7204 18.3104 12.0004C18.3104 11.2804 17.7204 10.6904 17.0004 10.6904Z" fill="#0E1117"/>
</svg>
