<svg width="24" height="24" viewBox="0 0 24 24" fill="none" xmlns="http://www.w3.org/2000/svg">
<path d="M13.3898 18.11C13.1998 18.11 13.0098 18.04 12.8598 17.89L10.0998 15.13C9.80982 14.84 9.80982 14.36 10.0998 14.07C10.3898 13.78 10.8698 13.78 11.1598 14.07L13.9198 16.83C14.2098 17.12 14.2098 17.6 13.9198 17.89C13.7798 18.04 13.5898 18.11 13.3898 18.11Z" fill="#0E1117"/>
<path d="M10.6098 18.1398C10.4198 18.1398 10.2298 18.0698 10.0798 17.9198C9.7898 17.6298 9.7898 17.1498 10.0798 16.8598L12.8398 14.0998C13.1298 13.8098 13.6098 13.8098 13.8998 14.0998C14.1898 14.3898 14.1898 14.8698 13.8998 15.1598L11.1398 17.9198C10.9898 18.0698 10.7998 18.1398 10.6098 18.1398Z" fill="#0E1117"/>
<path d="M5.18988 6.37994C4.99988 6.37994 4.79988 6.29994 4.65988 6.15994C4.36988 5.86994 4.36988 5.38994 4.65988 5.09994L8.28988 1.46994C8.57988 1.17994 9.05988 1.17994 9.34988 1.46994C9.63988 1.75994 9.63988 2.23994 9.34988 2.52994L5.71988 6.15994C5.56988 6.29994 5.37988 6.37994 5.18988 6.37994Z" fill="#0E1117"/>
<path d="M18.8101 6.37994C18.6201 6.37994 18.4301 6.30994 18.2801 6.15994L14.6501 2.52994C14.3601 2.23994 14.3601 1.75994 14.6501 1.46994C14.9401 1.17994 15.4201 1.17994 15.7101 1.46994L19.3401 5.09994C19.6301 5.38994 19.6301 5.86994 19.3401 6.15994C19.2001 6.29994 19.0001 6.37994 18.8101 6.37994Z" fill="#0E1117"/>
<path d="M20.21 10.6001C20.14 10.6001 20.07 10.6001 20 10.6001H19.77H4C3.3 10.6101 2.5 10.6101 1.92 10.0301C1.46 9.5801 1.25 8.8801 1.25 7.8501C1.25 5.1001 3.26 5.1001 4.22 5.1001H19.78C20.74 5.1001 22.75 5.1001 22.75 7.8501C22.75 8.8901 22.54 9.5801 22.08 10.0301C21.56 10.5501 20.86 10.6001 20.21 10.6001ZM4.22 9.1001H20.01C20.46 9.1101 20.88 9.1101 21.02 8.9701C21.09 8.9001 21.24 8.6601 21.24 7.8501C21.24 6.7201 20.96 6.6001 19.77 6.6001H4.22C3.03 6.6001 2.75 6.7201 2.75 7.8501C2.75 8.6601 2.91 8.9001 2.97 8.9701C3.11 9.1001 3.54 9.1001 3.98 9.1001H4.22Z" fill="#0E1117"/>
<path d="M14.8902 22.7502H8.86024C5.28024 22.7502 4.48024 20.6202 4.17024 18.7702L2.76024 10.1202C2.69024 9.71024 2.97024 9.33024 3.38024 9.26024C3.79024 9.19024 4.17024 9.47024 4.24024 9.88024L5.65024 18.5202C5.94024 20.2902 6.54024 21.2502 8.86024 21.2502H14.8902C17.4602 21.2502 17.7502 20.3502 18.0802 18.6102L19.7602 9.86024C19.8402 9.45024 20.2302 9.18024 20.6402 9.27024C21.0502 9.35024 21.3102 9.74024 21.2302 10.1502L19.5502 18.9002C19.1602 20.9302 18.5102 22.7502 14.8902 22.7502Z" fill="#0E1117"/>
</svg>
