<svg width="24" height="24" viewBox="0 0 24 24" fill="none" xmlns="http://www.w3.org/2000/svg">
<path d="M5.33008 2H18.67C19.78 2 20.6901 2.90999 20.6901 4.01999V6.23999C20.6901 7.04999 20.1801 8.06 19.6801 8.56" stroke="#0E1117" stroke-width="1.5" stroke-miterlimit="10" stroke-linecap="round" stroke-linejoin="round"/>
<path d="M14.3201 19.0702C14.3201 19.6802 13.92 20.4802 13.41 20.7902L12.0001 21.7002C10.6901 22.5102 8.87006 21.6002 8.87006 19.9802V14.6302C8.87006 13.9202 8.47006 13.0102 8.06006 12.5102L4.22003 8.47018C3.71003 7.96018 3.31006 7.0602 3.31006 6.4502" stroke="#0E1117" stroke-width="1.5" stroke-miterlimit="10" stroke-linecap="round" stroke-linejoin="round"/>
<path d="M16.0701 16.5201C17.8374 16.5201 19.2701 15.0874 19.2701 13.3201C19.2701 11.5528 17.8374 10.1201 16.0701 10.1201C14.3028 10.1201 12.8701 11.5528 12.8701 13.3201C12.8701 15.0874 14.3028 16.5201 16.0701 16.5201Z" stroke="#0E1117" stroke-width="1.5" stroke-linecap="round" stroke-linejoin="round"/>
<path d="M19.8701 17.1201L18.8701 16.1201" stroke="#0E1117" stroke-width="1.5" stroke-linecap="round" stroke-linejoin="round"/>
</svg>
