<svg width="24" height="24" viewBox="0 0 24 24" fill="none" xmlns="http://www.w3.org/2000/svg">
<path d="M21.0015 5.25H3.00146C2.59146 5.25 2.25146 4.91 2.25146 4.5C2.25146 4.09 2.59146 3.75 3.00146 3.75H21.0015C21.4115 3.75 21.7515 4.09 21.7515 4.5C21.7515 4.91 21.4115 5.25 21.0015 5.25Z" fill="#0E1117"/>
<path opacity="0.4" d="M16.7412 10.25H7.26123C6.85123 10.25 6.51123 9.91 6.51123 9.5C6.51123 9.09 6.85123 8.75 7.26123 8.75H16.7312C17.1412 8.75 17.4812 9.09 17.4812 9.5C17.4812 9.91 17.1512 10.25 16.7412 10.25Z" fill="#0E1117"/>
<path d="M21.0015 15.25H3.00146C2.59146 15.25 2.25146 14.91 2.25146 14.5C2.25146 14.09 2.59146 13.75 3.00146 13.75H21.0015C21.4115 13.75 21.7515 14.09 21.7515 14.5C21.7515 14.91 21.4115 15.25 21.0015 15.25Z" fill="#0E1117"/>
<path opacity="0.4" d="M16.7412 20.25H7.26123C6.85123 20.25 6.51123 19.91 6.51123 19.5C6.51123 19.09 6.85123 18.75 7.26123 18.75H16.7312C17.1412 18.75 17.4812 19.09 17.4812 19.5C17.4812 19.91 17.1512 20.25 16.7412 20.25Z" fill="#0E1117"/>
</svg>
