<svg width="24" height="24" viewBox="0 0 24 24" fill="none" xmlns="http://www.w3.org/2000/svg">
<path d="M8.99164 21.5001C7.33164 21.5001 5.66164 20.8701 4.39164 19.6001C1.86164 17.0601 1.86164 12.9401 4.39164 10.4101C4.68164 10.1201 5.16164 10.1201 5.45164 10.4101C5.74164 10.7001 5.74164 11.1801 5.45164 11.4701C3.50164 13.4201 3.50164 16.5901 5.45164 18.5401C7.40164 20.4901 10.5716 20.4901 12.5216 18.5401C13.4616 17.6001 13.9816 16.3401 13.9816 15.0001C13.9816 13.6701 13.4616 12.4101 12.5216 11.4601C12.2316 11.1701 12.2316 10.6901 12.5216 10.4001C12.8116 10.1101 13.2916 10.1101 13.5816 10.4001C14.8116 11.6301 15.4816 13.2601 15.4816 15.0001C15.4816 16.7401 14.8016 18.3701 13.5816 19.6001C12.3216 20.8701 10.6616 21.5001 8.99164 21.5001Z" fill="#0E1117"/>
<path d="M19.0715 14.1602C18.8815 14.1602 18.6915 14.0902 18.5415 13.9402C18.2515 13.6502 18.2515 13.1702 18.5415 12.8802C20.5915 10.8302 20.5915 7.50023 18.5415 5.46023C16.4915 3.41023 13.1615 3.41023 11.1215 5.46023C10.1315 6.45023 9.58154 7.77023 9.58154 9.17023C9.58154 10.5702 10.1315 11.8902 11.1215 12.8802C11.4115 13.1702 11.4115 13.6502 11.1215 13.9402C10.8315 14.2302 10.3515 14.2302 10.0615 13.9402C8.79154 12.6702 8.08154 10.9702 8.08154 9.17023C8.08154 7.37023 8.78154 5.67023 10.0615 4.40023C12.6915 1.77023 16.9715 1.77023 19.6115 4.40023C22.2415 7.03023 22.2415 11.3202 19.6115 13.9502C19.4615 14.0902 19.2615 14.1602 19.0715 14.1602Z" fill="#0E1117"/>
</svg>
