<svg width="24" height="24" viewBox="0 0 24 24" fill="none" xmlns="http://www.w3.org/2000/svg">
<path d="M17.0399 10.6401L9.68986 3.29014L8.81986 2.42014C8.52986 2.13014 8.04986 2.13014 7.75986 2.42014C7.46986 2.71014 7.46986 3.19014 7.75986 3.48014L8.62986 4.35014L2.99986 9.98014C2.35986 10.6201 2.01986 11.2701 1.99986 11.9201C1.97986 12.6101 2.31986 13.3001 2.99986 13.9901L7.00986 18.0001C8.34986 19.3301 9.68986 19.3301 11.0199 18.0001L17.0399 11.9801C17.2399 11.7801 17.3299 11.5101 17.3099 11.2501C17.2999 11.0301 17.1999 10.8001 17.0399 10.6401Z" fill="#0E1117"/>
<path d="M16 22.75H3C2.59 22.75 2.25 22.41 2.25 22C2.25 21.59 2.59 21.25 3 21.25H16C16.41 21.25 16.75 21.59 16.75 22C16.75 22.41 16.41 22.75 16 22.75Z" fill="#0E1117"/>
<path d="M19.35 14.7798C19.09 14.4998 18.61 14.4998 18.35 14.7798C18.04 15.1198 16.5 16.8498 16.5 18.1698C16.5 19.4698 17.55 20.5198 18.85 20.5198C20.15 20.5198 21.2 19.4698 21.2 18.1698C21.2 16.8598 19.66 15.1198 19.35 14.7798Z" fill="#0E1117"/>
</svg>
