<svg width="24" height="24" viewBox="0 0 24 24" fill="none" xmlns="http://www.w3.org/2000/svg">
<path opacity="0.4" d="M7.81 2H16.18C19.83 2 22 4.17 22 7.81V16.18C22 19.82 19.83 21.99 16.19 21.99H7.81C4.17 22 2 19.83 2 16.19V7.81C2 4.17 4.17 2 7.81 2Z" fill="#0E1117"/>
<path d="M13.9204 8.98006H8.77043L9.10043 8.65006C9.39043 8.36006 9.39043 7.88006 9.10043 7.59006C8.81043 7.30006 8.33043 7.30006 8.04043 7.59006L6.47043 9.16006C6.18043 9.45006 6.18043 9.93006 6.47043 10.2201L8.04043 11.7901C8.19043 11.9401 8.38043 12.0101 8.57043 12.0101C8.76043 12.0101 8.95043 11.9401 9.10043 11.7901C9.39043 11.5001 9.39043 11.0201 9.10043 10.7301L8.84043 10.4701H13.9204C15.2004 10.4701 16.2504 11.5101 16.2504 12.8001C16.2504 14.0901 15.2104 15.1301 13.9204 15.1301H9.00043C8.59043 15.1301 8.25043 15.4701 8.25043 15.8801C8.25043 16.2901 8.59043 16.6301 9.00043 16.6301H13.9204C16.0304 16.6301 17.7504 14.9101 17.7504 12.8001C17.7504 10.6901 16.0304 8.98006 13.9204 8.98006Z" fill="#0E1117"/>
</svg>
