<svg width="24" height="24" viewBox="0 0 24 24" fill="none" xmlns="http://www.w3.org/2000/svg">
<path opacity="0.4" d="M8.5 18.9697H8C4 18.9697 2 17.9697 2 12.9697V7.96973C2 3.96973 4 1.96973 8 1.96973H16C20 1.96973 22 3.96973 22 7.96973V12.9697C22 16.9697 20 18.9697 16 18.9697H15.5C15.19 18.9697 14.89 19.1198 14.7 19.3698L13.2 21.3698C12.54 22.2498 11.46 22.2498 10.8 21.3698L9.29999 19.3698C9.13999 19.1498 8.78 18.9697 8.5 18.9697Z" fill="#0E1117"/>
<path d="M8.00043 13.4502C7.81043 13.4502 7.62043 13.3801 7.47043 13.2301L5.47043 11.2301C5.18043 10.9401 5.18043 10.4601 5.47043 10.1701L7.47043 8.17014C7.76043 7.88014 8.24043 7.88014 8.53043 8.17014C8.82043 8.46014 8.82043 8.94013 8.53043 9.23013L7.06043 10.7002L8.53043 12.1701C8.82043 12.4601 8.82043 12.9401 8.53043 13.2301C8.38043 13.3801 8.19043 13.4502 8.00043 13.4502Z" fill="#0E1117"/>
<path d="M16.0004 13.4502C15.8104 13.4502 15.6204 13.3801 15.4704 13.2301C15.1804 12.9401 15.1804 12.4601 15.4704 12.1701L16.9404 10.7002L15.4704 9.23013C15.1804 8.94013 15.1804 8.46014 15.4704 8.17014C15.7604 7.88014 16.2404 7.88014 16.5304 8.17014L18.5304 10.1701C18.8204 10.4601 18.8204 10.9401 18.5304 11.2301L16.5304 13.2301C16.3804 13.3801 16.1904 13.4502 16.0004 13.4502Z" fill="#0E1117"/>
<path d="M11.0004 13.7798C10.9004 13.7798 10.8004 13.7597 10.7004 13.7197C10.3204 13.5597 10.1404 13.1197 10.3104 12.7297L12.3104 8.05975C12.4704 7.67975 12.9103 7.49973 13.3003 7.66973C13.6803 7.82973 13.8604 8.26972 13.6904 8.65972L11.6904 13.3298C11.5704 13.6098 11.2904 13.7798 11.0004 13.7798Z" fill="#0E1117"/>
</svg>
