<svg width="24" height="24" viewBox="0 0 24 24" fill="none" xmlns="http://www.w3.org/2000/svg">
<path opacity="0.4" d="M10.9598 2.11037L5.4598 4.17037C4.4098 4.57037 3.5498 5.81037 3.5498 6.94037V15.0404C3.5498 15.8504 4.0798 16.9204 4.7298 17.4004L10.2298 21.5104C11.1998 22.2404 12.7898 22.2404 13.7598 21.5104L19.2598 17.4004C19.9098 16.9104 20.4398 15.8504 20.4398 15.0404V6.94037C20.4398 5.82037 19.5798 4.57037 18.5298 4.18037L13.0298 2.12037C12.4698 1.90037 11.5298 1.90037 10.9598 2.11037Z" fill="#0E1117"/>
<path d="M14.5 10.5C14.5 9.12 13.38 8 12 8C10.62 8 9.5 9.12 9.5 10.5C9.5 11.62 10.24 12.55 11.25 12.87V15.5C11.25 15.91 11.59 16.25 12 16.25C12.41 16.25 12.75 15.91 12.75 15.5V12.87C13.76 12.55 14.5 11.62 14.5 10.5Z" fill="#0E1117"/>
</svg>
