<svg width="24" height="24" viewBox="0 0 24 24" fill="none" xmlns="http://www.w3.org/2000/svg">
<path opacity="0.4" d="M12 22C17.5228 22 22 17.5228 22 12C22 6.47715 17.5228 2 12 2C6.47715 2 2 6.47715 2 12C2 17.5228 6.47715 22 12 22Z" fill="#0E1117"/>
<path d="M16.7606 11.9296C16.3406 11.8596 15.9706 12.1596 15.9106 12.5696C15.7906 13.4396 15.4005 14.2196 14.8005 14.8196C13.4205 16.1996 11.2806 16.3396 9.73056 15.2696H10.4806C10.8906 15.2696 11.2306 14.9296 11.2306 14.5196C11.2306 14.1096 10.8906 13.7696 10.4806 13.7696H7.81055C7.40055 13.7696 7.06055 14.1096 7.06055 14.5196V17.1896C7.06055 17.5996 7.40055 17.9396 7.81055 17.9396C8.22055 17.9396 8.56055 17.5996 8.56055 17.1896V16.2496C9.56055 17.0596 10.7705 17.4896 11.9905 17.4896C13.3905 17.4896 14.7905 16.9596 15.8605 15.8896C16.6905 15.0596 17.2206 13.9896 17.3906 12.7896C17.4606 12.3596 17.1706 11.9796 16.7606 11.9296Z" fill="#0E1117"/>
<path d="M7.34042 12.0798C7.71042 12.0798 8.03041 11.8098 8.08041 11.4398C8.20041 10.5698 8.59042 9.78982 9.19042 9.18982C10.5704 7.80982 12.7104 7.66981 14.2604 8.73981H13.5104C13.1004 8.73981 12.7604 9.07981 12.7604 9.48981C12.7604 9.89981 13.1004 10.2398 13.5104 10.2398H16.1804C16.5904 10.2398 16.9304 9.89981 16.9304 9.48981V6.81982C16.9304 6.40982 16.5904 6.06982 16.1804 6.06982C15.7704 6.06982 15.4304 6.40982 15.4304 6.81982V7.75983C13.2804 6.01983 10.1304 6.12981 8.14043 8.11981C7.31043 8.94981 6.7804 10.0198 6.6104 11.2198C6.5504 11.6298 6.84042 12.0098 7.25042 12.0698C7.27042 12.0798 7.31042 12.0798 7.34042 12.0798Z" fill="#0E1117"/>
</svg>
