<svg width="24" height="24" viewBox="0 0 24 24" fill="none" xmlns="http://www.w3.org/2000/svg">
<path d="M20.1002 5.68986C21.6602 4.56986 22.4102 5.13986 21.7702 6.94986L17.7302 18.2599C17.5902 18.6599 17.1202 18.9899 16.7002 18.9899H7.3002C6.8802 18.9899 6.4102 18.6599 6.2702 18.2599L2.1302 6.66986C1.5402 5.00986 2.2302 4.49986 3.6502 5.51986L7.5502 8.30986C8.2002 8.75986 8.9402 8.52986 9.2202 7.79986L10.9802 3.10986C11.5402 1.60986 12.4702 1.60986 13.0302 3.10986L14.7902 7.79986C15.0702 8.52986 15.8102 8.75986 16.4502 8.30986L17.0802 7.85986" stroke="#0E1117" stroke-width="1.5" stroke-linecap="round" stroke-linejoin="round"/>
<path d="M6.5 22H17.5" stroke="#0E1117" stroke-width="1.5" stroke-linecap="round" stroke-linejoin="round"/>
<path d="M9.5 14H14.5" stroke="#0E1117" stroke-width="1.5" stroke-linecap="round" stroke-linejoin="round"/>
</svg>
