<svg width="24" height="24" viewBox="0 0 24 24" fill="none" xmlns="http://www.w3.org/2000/svg">
<path d="M19.0306 14.97C19.0306 16.26 20.0906 17.31 21.3806 17.31C21.3806 21.06 20.4406 22 16.6906 22H7.31061C3.56061 22 2.62061 21.06 2.62061 17.31V16.85C3.91061 16.85 4.97061 15.79 4.97061 14.5C4.97061 13.21 3.91061 12.15 2.62061 12.15V11.69C2.63061 7.94 3.56061 7 7.31061 7H16.6806C20.4306 7 21.3706 7.94 21.3706 11.69V12.63" stroke="#0E1117" stroke-width="1.5" stroke-linecap="round" stroke-linejoin="round"/>
<path d="M16.3307 6.99984H7.24072L10.1707 4.06984C12.5607 1.67984 13.7607 1.67984 16.1507 4.06984L16.7507 4.66984C16.1207 5.29984 15.9707 6.22984 16.3307 6.99984Z" stroke="#0E1117" stroke-width="1.5" stroke-linecap="round" stroke-linejoin="round"/>
<path d="M10.0005 7L10.0005 22" stroke="#0E1117" stroke-width="1.5" stroke-linecap="round" stroke-linejoin="round" stroke-dasharray="5 5"/>
</svg>
