<svg width="24" height="24" viewBox="0 0 24 24" fill="none" xmlns="http://www.w3.org/2000/svg">
<path d="M2.00146 12.83V15C2.00146 20 4.00146 22 9.00146 22H15.0015C20.0015 22 22.0015 20 22.0015 15V9C22.0015 4 20.0015 2 15.0015 2H9.00146C4.00146 2 2.00146 4 2.00146 9" stroke="#0E1117" stroke-width="1.5" stroke-linecap="round" stroke-linejoin="round"/>
<path d="M17.0018 11.8398H14.3218C13.6118 11.8398 13.1318 11.2998 13.1318 10.6498V9.15973C13.1318 8.50973 13.6118 7.96973 14.3218 7.96973H15.8118C16.4618 7.96973 17.0018 8.50973 17.0018 9.15973V11.8398Z" stroke="#0E1117" stroke-width="1.5" stroke-linecap="round" stroke-linejoin="round"/>
<path d="M17.0016 11.8398C17.0016 14.6298 16.4816 15.0998 14.9116 16.0298" stroke="#0E1117" stroke-width="1.5" stroke-linecap="round" stroke-linejoin="round"/>
<path d="M10.8617 11.8398H8.1817C7.4717 11.8398 6.9917 11.2998 6.9917 10.6498V9.15973C6.9917 8.50973 7.4717 7.96973 8.1817 7.96973H9.6717C10.3217 7.96973 10.8617 8.50973 10.8617 9.15973V11.8398Z" stroke="#0E1117" stroke-width="1.5" stroke-linecap="round" stroke-linejoin="round"/>
<path d="M10.8615 11.8398C10.8615 14.6298 10.3415 15.0998 8.77148 16.0298" stroke="#0E1117" stroke-width="1.5" stroke-linecap="round" stroke-linejoin="round"/>
</svg>
