<svg width="24" height="24" viewBox="0 0 24 24" fill="none" xmlns="http://www.w3.org/2000/svg">
<path d="M22.002 21.25C22.002 21.66 21.662 22 21.252 22H2.75195C2.34195 22 2.00195 21.66 2.00195 21.25C2.00195 20.84 2.34195 20.5 2.75195 20.5H21.252C21.662 20.5 22.002 20.84 22.002 21.25Z" fill="#0E1117"/>
<path d="M15.3919 4.51977L4.65189 15.2598C4.24189 15.6698 3.58189 15.6698 3.18189 15.2598H3.17189C1.78189 13.8598 1.78189 11.5998 3.17189 10.2098L10.3219 3.05977C11.7219 1.65977 13.9819 1.65977 15.3819 3.05977C15.7919 3.44977 15.7919 4.11977 15.3919 4.51977Z" fill="#0E1117"/>
<path d="M20.8219 8.48982L17.7719 5.43982C17.3619 5.02982 16.7019 5.02982 16.3019 5.43982L5.56189 16.1798C5.15189 16.5798 5.15189 17.2398 5.56189 17.6498L8.61189 20.7098C10.0119 22.0998 12.2719 22.0998 13.6719 20.7098L20.8119 13.5598C22.2319 12.1598 22.2319 9.88982 20.8219 8.48982ZM12.7619 17.5198L11.5519 18.7398C11.3019 18.9898 10.8919 18.9898 10.6319 18.7398C10.3819 18.4898 10.3819 18.0798 10.6319 17.8198L11.8519 16.5998C12.0919 16.3598 12.5119 16.3598 12.7619 16.5998C13.0119 16.8498 13.0119 17.2798 12.7619 17.5198ZM16.7319 13.5498L14.2919 15.9998C14.0419 16.2398 13.6319 16.2398 13.3719 15.9998C13.1219 15.7498 13.1219 15.3398 13.3719 15.0798L15.8219 12.6298C16.0619 12.3898 16.4819 12.3898 16.7319 12.6298C16.9819 12.8898 16.9819 13.2998 16.7319 13.5498Z" fill="#0E1117"/>
</svg>
