<svg width="24" height="24" viewBox="0 0 24 24" fill="none" xmlns="http://www.w3.org/2000/svg">
<path d="M20.98 10.7C20.76 6.8 17.87 3.55 14.01 2.89C13.95 2.12 13.31 1.5 12.52 1.5H11.52C10.73 1.5 10.1 2.11 10.03 2.88C6.15002 3.52 3.24002 6.78 3.02002 10.7C2.31002 10.82 1.77002 11.43 1.77002 12.17V13.17C1.77002 14 2.44002 14.67 3.27002 14.67H4.27002C5.10002 14.67 5.77002 14 5.77002 13.17V12.17C5.77002 11.43 5.23002 10.82 4.52002 10.7C4.73002 7.58 7.02002 4.99 10.08 4.39C10.25 5.03 10.83 5.5 11.52 5.5H12.52C13.21 5.5 13.78 5.03 13.96 4.4C17 5.01 19.27 7.6 19.48 10.7C18.77 10.82 18.23 11.43 18.23 12.17V13.17C18.23 14 18.9 14.67 19.73 14.67H20.73C21.56 14.67 22.23 14 22.23 13.17V12.17C22.23 11.43 21.69 10.81 20.98 10.7Z" fill="#0E1117"/>
<path d="M15.7698 16.5502L14.1298 18.0002H9.87983L8.23983 16.5502C7.28983 15.7702 7.28983 15.1702 8.00983 14.2502L10.8998 10.5902C11.0998 10.3402 11.3298 10.1702 11.5898 10.0802C11.8598 9.9902 12.1498 9.9902 12.4298 10.0802C12.6798 10.1702 12.9098 10.3402 13.1198 10.5902L15.9998 14.2402C16.7298 15.1602 16.6898 15.7302 15.7698 16.5502Z" fill="#0E1117"/>
<path d="M13.3197 22.0003H10.7297C9.80968 22.0003 9.11968 21.2503 9.29968 20.4503L9.60968 19.0603C9.66968 18.7803 9.91968 18.5903 10.1997 18.5903H13.8497C14.1297 18.5903 14.3697 18.7803 14.4397 19.0603L14.7497 20.4503C14.9397 21.3003 14.2997 22.0003 13.3197 22.0003Z" fill="#0E1117"/>
</svg>
