<svg width="24" height="24" viewBox="0 0 24 24" fill="none" xmlns="http://www.w3.org/2000/svg">
<path d="M13.001 14.75H2.00098C1.59098 14.75 1.25098 14.41 1.25098 14V7.62C1.25098 7.29999 1.45097 7.01997 1.74097 6.90997C2.04097 6.79997 2.37098 6.89001 2.57098 7.13C3.18098 7.86 4.13098 8.26999 5.07098 8.23999C5.87098 8.21999 6.61096 7.92001 7.17096 7.39001C7.43096 7.17001 7.64096 6.91 7.80096 6.62C8.11096 6.09 8.26098 5.50998 8.25098 4.91998C8.23098 3.99998 7.831 3.15999 7.151 2.54999C6.911 2.33999 6.83098 2.00997 6.94098 1.71997C7.05098 1.42997 7.33099 1.22998 7.64099 1.22998H15.001C15.411 1.22998 15.751 1.56998 15.751 1.97998V11.98C15.751 13.52 14.521 14.75 13.001 14.75ZM2.75098 13.25H13.001C13.691 13.25 14.251 12.69 14.251 12V2.75H9.19098C9.54098 3.4 9.73098 4.13001 9.75098 4.89001C9.77098 5.76001 9.55096 6.62 9.11096 7.37C8.87096 7.79999 8.54097 8.21001 8.18097 8.51001C7.38097 9.27001 6.28096 9.72 5.11096 9.75C4.27096 9.78 3.46099 9.57 2.76099 9.19V13.25H2.75098Z" fill="#0E1117"/>
<path d="M19.001 20.75H18.001C17.591 20.75 17.251 20.41 17.251 20C17.251 19.31 16.691 18.75 16.001 18.75C15.311 18.75 14.751 19.31 14.751 20C14.751 20.41 14.411 20.75 14.001 20.75H10.001C9.59098 20.75 9.25098 20.41 9.25098 20C9.25098 19.31 8.69098 18.75 8.00098 18.75C7.31098 18.75 6.75098 19.31 6.75098 20C6.75098 20.41 6.41098 20.75 6.00098 20.75H5.00098C2.93098 20.75 1.25098 19.07 1.25098 17V14C1.25098 13.59 1.59098 13.25 2.00098 13.25H13.001C13.691 13.25 14.251 12.69 14.251 12V5C14.251 4.59 14.591 4.25 15.001 4.25H16.841C17.831 4.25 18.741 4.78001 19.231 5.64001L20.941 8.63C21.071 8.86 21.071 9.15 20.941 9.38C20.811 9.61 20.561 9.75 20.291 9.75H19.001C18.861 9.75 18.751 9.86 18.751 10V13C18.751 13.14 18.861 13.25 19.001 13.25H22.001C22.411 13.25 22.751 13.59 22.751 14V17C22.751 19.07 21.071 20.75 19.001 20.75ZM18.651 19.25H19.001C20.241 19.25 21.251 18.24 21.251 17V14.75H19.001C18.041 14.75 17.251 13.96 17.251 13V10C17.251 9.04 18.031 8.25 19.001 8.25L17.931 6.38C17.711 5.99 17.291 5.75 16.841 5.75H15.751V12C15.751 13.52 14.521 14.75 13.001 14.75H2.75098V17C2.75098 18.24 3.76098 19.25 5.00098 19.25H5.35095C5.68095 18.1 6.74098 17.25 8.00098 17.25C9.26098 17.25 10.321 18.1 10.651 19.25H13.361C13.691 18.1 14.751 17.25 16.011 17.25C17.271 17.25 18.321 18.1 18.651 19.25Z" fill="#0E1117"/>
<path d="M8.00098 22.75C6.48098 22.75 5.25098 21.52 5.25098 20C5.25098 18.48 6.48098 17.25 8.00098 17.25C9.52098 17.25 10.751 18.48 10.751 20C10.751 21.52 9.52098 22.75 8.00098 22.75ZM8.00098 18.75C7.31098 18.75 6.75098 19.31 6.75098 20C6.75098 20.69 7.31098 21.25 8.00098 21.25C8.69098 21.25 9.25098 20.69 9.25098 20C9.25098 19.31 8.69098 18.75 8.00098 18.75Z" fill="#0E1117"/>
<path d="M16.001 22.75C14.481 22.75 13.251 21.52 13.251 20C13.251 18.48 14.481 17.25 16.001 17.25C17.521 17.25 18.751 18.48 18.751 20C18.751 21.52 17.521 22.75 16.001 22.75ZM16.001 18.75C15.311 18.75 14.751 19.31 14.751 20C14.751 20.69 15.311 21.25 16.001 21.25C16.691 21.25 17.251 20.69 17.251 20C17.251 19.31 16.691 18.75 16.001 18.75Z" fill="#0E1117"/>
<path d="M22.001 14.75H19.001C18.041 14.75 17.251 13.96 17.251 13V10C17.251 9.04 18.041 8.25 19.001 8.25H20.291C20.561 8.25 20.811 8.39 20.941 8.63L22.651 11.63C22.711 11.74 22.751 11.87 22.751 12V14C22.751 14.41 22.411 14.75 22.001 14.75ZM19.001 9.75C18.861 9.75 18.751 9.86 18.751 10V13C18.751 13.14 18.861 13.25 19.001 13.25H21.251V12.2L19.851 9.75H19.001Z" fill="#0E1117"/>
<path d="M4.99157 9.75C3.61157 9.75 2.31157 9.14998 1.43157 8.09998C1.29157 7.94998 1.14159 7.73998 1.01159 7.53998C0.541588 6.82998 0.281588 5.98999 0.261588 5.10999C0.221588 3.64999 0.8416 2.27998 1.9616 1.34998C2.8116 0.649976 3.83155 0.27 4.91155 0.25C6.09155 0.26 7.2716 0.650002 8.1516 1.44C9.1516 2.32 9.73159 3.55001 9.76159 4.89001C9.78159 5.76001 9.56157 6.62 9.12157 7.37C8.88157 7.79999 8.55158 8.21001 8.19158 8.51001C7.39158 9.27001 6.29157 9.72 5.12157 9.75C5.07157 9.75 5.03157 9.75 4.99157 9.75ZM4.99157 1.75C4.97157 1.75 4.95157 1.75 4.93157 1.75C4.20157 1.76 3.50155 2.03001 2.91155 2.51001C2.15155 3.14001 1.73158 4.08001 1.75158 5.07001C1.77158 5.67001 1.94159 6.24002 2.26159 6.71002C2.35159 6.85002 2.44157 6.97998 2.55157 7.09998C3.19157 7.85998 4.14159 8.25999 5.07159 8.23999C5.87159 8.21999 6.61156 7.92001 7.17156 7.39001C7.43156 7.17001 7.64157 6.91 7.80157 6.62C8.11157 6.09 8.26158 5.50998 8.25158 4.91998C8.23158 3.99998 7.8316 3.15999 7.1516 2.54999C6.5516 2.03999 5.79157 1.75 4.99157 1.75Z" fill="#0E1117"/>
<path d="M4.45085 6.74968C4.26085 6.74968 4.08083 6.67966 3.93083 6.53966L2.92082 5.5797C2.62082 5.2897 2.61087 4.8197 2.90087 4.5197C3.19087 4.2197 3.66086 4.20968 3.96086 4.49968L4.45085 4.96965L6.02086 3.44969C6.32086 3.15969 6.79086 3.16965 7.08086 3.46965C7.37086 3.76965 7.36084 4.23971 7.06084 4.52971L4.97081 6.54967C4.82081 6.67967 4.63085 6.74968 4.45085 6.74968Z" fill="#0E1117"/>
</svg>
