<svg width="24" height="24" viewBox="0 0 24 24" fill="none" xmlns="http://www.w3.org/2000/svg">
<path d="M16.6906 22.75H7.31061C3.14061 22.75 1.87061 21.48 1.87061 17.31V16.85C1.87061 16.44 2.21061 16.1 2.62061 16.1C3.50061 16.1 4.22061 15.38 4.22061 14.5C4.22061 13.62 3.50061 12.9 2.62061 12.9C2.21061 12.9 1.87061 12.56 1.87061 12.15V11.69C1.87061 7.52 3.14061 6.25 7.31061 6.25H16.6906C20.8606 6.25 22.1306 7.52 22.1306 11.69V12.63C22.1306 13.04 21.7906 13.38 21.3806 13.38C20.5006 13.38 19.7806 14.1 19.7806 14.98C19.7806 15.86 20.5006 16.57 21.3806 16.57C21.7906 16.57 22.1306 16.91 22.1306 17.32C22.1206 21.48 20.8506 22.75 16.6906 22.75ZM3.38061 17.51C3.40061 20.69 4.03061 21.25 7.32061 21.25H16.7006C19.8206 21.25 20.5406 20.74 20.6306 17.97C19.2906 17.63 18.2906 16.42 18.2906 14.97C18.2906 13.52 19.2906 12.3 20.6406 11.96V11.68C20.6406 8.33 20.0506 7.74 16.7006 7.74H7.31061C4.03061 7.74 3.40061 8.31 3.37061 11.48C4.72061 11.82 5.72061 13.04 5.72061 14.49C5.72061 15.94 4.72061 17.17 3.38061 17.51Z" fill="#0E1117"/>
<path d="M10.0005 10.25C9.59049 10.25 9.25049 9.91 9.25049 9.5V7C9.25049 6.59 9.59049 6.25 10.0005 6.25C10.4105 6.25 10.7505 6.59 10.7505 7V9.5C10.7505 9.91 10.4105 10.25 10.0005 10.25Z" fill="#0E1117"/>
<path d="M10.0005 16.9198C9.59049 16.9198 9.25049 16.5798 9.25049 16.1698V12.8398C9.25049 12.4298 9.59049 12.0898 10.0005 12.0898C10.4105 12.0898 10.7505 12.4298 10.7505 12.8398V16.1698C10.7505 16.5798 10.4105 16.9198 10.0005 16.9198Z" fill="#0E1117"/>
<path d="M10.0005 22.75C9.59049 22.75 9.25049 22.41 9.25049 22V19.5C9.25049 19.09 9.59049 18.75 10.0005 18.75C10.4105 18.75 10.7505 19.09 10.7505 19.5V22C10.7505 22.41 10.4105 22.75 10.0005 22.75Z" fill="#0E1117"/>
<path d="M16.3307 7.75014H7.24066C6.94066 7.75014 6.66066 7.57014 6.55066 7.29014C6.44066 7.01014 6.50066 6.68014 6.71066 6.47014L9.64066 3.54014C12.3407 0.840137 13.9907 0.840137 16.6807 3.54014L17.2807 4.14014C17.4207 4.28014 17.5007 4.47014 17.5007 4.67014C17.5007 4.87014 17.4207 5.06014 17.2807 5.20014C16.8807 5.60014 16.7707 6.19014 17.0007 6.70014C17.1107 6.93014 17.0907 7.20014 16.9507 7.42014C16.8207 7.62014 16.5807 7.75014 16.3307 7.75014ZM9.05066 6.25014H15.3807C15.3607 5.72014 15.4907 5.19014 15.7607 4.73014L15.6307 4.60014C13.5407 2.51014 12.8007 2.51014 10.7107 4.60014L9.05066 6.25014Z" fill="#0E1117"/>
</svg>
