<svg width="24" height="24" viewBox="0 0 24 24" fill="none" xmlns="http://www.w3.org/2000/svg">
<path d="M19.272 3.6499L14.172 8.7499H3.20195C2.54195 8.7499 2.00195 8.2099 2.00195 7.5499V7.5399C2.00195 5.2499 3.85195 3.3999 6.14195 3.3999H17.852C18.352 3.3999 18.832 3.4899 19.272 3.6499Z" fill="#0E1117"/>
<path d="M12.672 10.25L7.17195 15.75H6.00195C5.59195 15.75 5.25195 16.09 5.25195 16.5C5.25195 16.81 5.45195 17.09 5.73195 17.19L3.38195 19.54C2.53195 18.79 2.00195 17.69 2.00195 16.46V11.45C2.00195 10.79 2.54195 10.25 3.20195 10.25H12.672Z" fill="#0E1117"/>
<path d="M22.0019 11V16.46C22.0019 18.75 20.1519 20.6 17.8619 20.6H8.81187C7.92187 20.6 7.47187 19.52 8.10187 18.89L9.45187 17.54C9.64187 17.35 9.89187 17.25 10.1619 17.25H14.5019C14.9119 17.25 15.2519 16.91 15.2519 16.5C15.2519 16.09 14.9119 15.75 14.5019 15.75H13.6619C12.7719 15.75 12.3219 14.67 12.9519 14.04L16.4119 10.58C16.7919 10.21 17.3019 10 17.8319 10H21.0019C21.5519 10 22.0019 10.45 22.0019 11Z" fill="#0E1117"/>
<path d="M21.7718 2.22988C21.4718 1.92988 20.9818 1.92988 20.6818 2.22988L2.23184 20.6899C1.93184 20.9899 1.93184 21.4799 2.23184 21.7799C2.38184 21.9199 2.57184 21.9999 2.77184 21.9999C2.97184 21.9999 3.16184 21.9199 3.31184 21.7699L21.7718 3.30988C22.0818 3.00988 22.0818 2.52988 21.7718 2.22988Z" fill="#0E1117"/>
<path d="M21.772 3.31006L20.612 4.47006L16.332 8.75006L3.31201 21.7701C3.16201 21.9201 2.97201 22.0001 2.77201 22.0001C2.57201 22.0001 2.38201 21.9201 2.23201 21.7701C1.92201 21.4701 1.92201 20.9901 2.23201 20.6901L3.38201 19.5401L5.73201 17.1901L19.272 3.65006L20.692 2.23006C20.992 1.92006 21.472 1.92006 21.772 2.23006C22.082 2.53006 22.082 3.01006 21.772 3.31006Z" fill="#0E1117"/>
<path d="M22.002 7.40977C22.002 6.51977 20.922 6.06977 20.292 6.69977L20.002 6.99977L19.712 7.28977C19.082 7.91977 19.522 8.99977 20.412 8.99977H21.002C21.552 8.99977 22.002 8.54977 22.002 7.99977V7.40977Z" fill="#0E1117"/>
</svg>
