<svg width="24" height="24" viewBox="0 0 24 24" fill="none" xmlns="http://www.w3.org/2000/svg">
<path d="M17.002 4H7.00195C4.00195 4 2.00195 5.5 2.00195 9V12.56C2.00195 12.93 2.38195 13.16 2.71195 13.01C3.69195 12.56 4.82195 12.39 6.01195 12.6C8.64195 13.07 10.572 15.51 10.502 18.18C10.492 18.6 10.432 19.01 10.322 19.41C10.242 19.72 10.492 20.01 10.812 20.01H17.002C20.002 20.01 22.002 18.51 22.002 15.01V9C22.002 5.5 20.002 4 17.002 4ZM12.002 14.5C10.622 14.5 9.50195 13.38 9.50195 12C9.50195 10.62 10.622 9.5 12.002 9.5C13.382 9.5 14.502 10.62 14.502 12C14.502 13.38 13.382 14.5 12.002 14.5ZM19.252 14C19.252 14.41 18.912 14.75 18.502 14.75C18.092 14.75 17.752 14.41 17.752 14V10C17.752 9.59 18.092 9.25 18.502 9.25C18.912 9.25 19.252 9.59 19.252 10V14Z" fill="#0E1117"/>
<path d="M5.00195 14C2.79195 14 1.00195 15.79 1.00195 18C1.00195 18.75 1.21195 19.46 1.58195 20.06C2.27195 21.22 3.54195 22 5.00195 22C6.46195 22 7.73195 21.22 8.42195 20.06C8.79195 19.46 9.00195 18.75 9.00195 18C9.00195 15.79 7.21195 14 5.00195 14ZM6.49195 18.73H5.75195V19.51C5.75195 19.92 5.41195 20.26 5.00195 20.26C4.59195 20.26 4.25195 19.92 4.25195 19.51V18.73H3.51195C3.10195 18.73 2.76195 18.39 2.76195 17.98C2.76195 17.57 3.10195 17.23 3.51195 17.23H4.25195V16.52C4.25195 16.11 4.59195 15.77 5.00195 15.77C5.41195 15.77 5.75195 16.11 5.75195 16.52V17.23H6.49195C6.90195 17.23 7.24195 17.57 7.24195 17.98C7.24195 18.39 6.91195 18.73 6.49195 18.73Z" fill="#0E1117"/>
</svg>
