<svg width="24" height="24" viewBox="0 0 24 24" fill="none" xmlns="http://www.w3.org/2000/svg">
<path opacity="0.4" d="M16.19 2H7.82C4.17 2 2 4.17 2 7.81V16.18C2 19.82 4.17 21.99 7.81 21.99H16.18C19.82 21.99 21.99 19.82 21.99 16.18V7.81C22 4.17 19.83 2 16.19 2Z" fill="#0E1117"/>
<path d="M11.4695 15.0398C11.5395 15.1098 11.6195 15.1598 11.7095 15.1998C11.7995 15.2398 11.8995 15.2598 11.9995 15.2598C12.0995 15.2598 12.1895 15.2398 12.2895 15.1998C12.3795 15.1598 12.4595 15.1098 12.5295 15.0398L15.5295 12.0398C15.8195 11.7498 15.8195 11.2698 15.5295 10.9798C15.2395 10.6898 14.7595 10.6898 14.4695 10.9798L12.7495 12.6998V6.50977C12.7495 6.09977 12.4095 5.75977 11.9995 5.75977C11.5895 5.75977 11.2495 6.09977 11.2495 6.50977V12.6998L9.52945 10.9798C9.23945 10.6898 8.75945 10.6898 8.46945 10.9798C8.17945 11.2698 8.17945 11.7498 8.46945 12.0398L11.4695 15.0398Z" fill="#0E1117"/>
<path d="M18.7097 16.28C18.5797 15.89 18.1597 15.68 17.7597 15.81C14.0397 17.05 9.9497 17.05 6.2297 15.81C5.8397 15.68 5.40969 15.89 5.27969 16.28C5.14969 16.67 5.35969 17.1 5.74969 17.23C7.75969 17.9 9.86969 18.24 11.9897 18.24C14.1097 18.24 16.2197 17.9 18.2297 17.23C18.6297 17.09 18.8397 16.67 18.7097 16.28Z" fill="#0E1117"/>
</svg>
