<svg width="24" height="24" viewBox="0 0 24 24" fill="none" xmlns="http://www.w3.org/2000/svg">
<path opacity="0.4" d="M22.0004 9.20986V14.7899C22.0004 18.8899 20.7504 20.1399 16.6504 20.1399H9.91045V17.1199C9.91045 16.7399 9.59045 16.4199 9.21045 16.4199V7.57986C9.59045 7.57986 9.91045 7.25986 9.91045 6.87986V3.85986H16.6504C20.7504 3.85986 22.0004 5.10986 22.0004 9.20986Z" fill="#0E1117"/>
<path d="M18.4707 11.9001C18.6407 11.7401 18.7007 11.4901 18.6307 11.2701C18.5607 11.0401 18.3707 10.8801 18.1307 10.8501L16.8507 10.6601C16.8007 10.6501 16.7607 10.6201 16.7407 10.5801L16.1707 9.42008C16.0707 9.21008 15.8507 9.08008 15.6207 9.08008C15.3807 9.08008 15.1707 9.21008 15.0607 9.42008L14.4907 10.5801C14.4707 10.6301 14.4207 10.6601 14.3707 10.6601L13.0907 10.8501C12.8607 10.8801 12.6607 11.0501 12.5907 11.2701C12.5207 11.5001 12.5807 11.7401 12.7507 11.9001L13.6807 12.8001C13.7207 12.8301 13.7307 12.8901 13.7207 12.9401L13.5007 14.2101C13.4607 14.4401 13.5507 14.6801 13.7507 14.8101C13.8607 14.8901 13.9807 14.9301 14.1107 14.9301C14.2107 14.9301 14.3107 14.9101 14.4007 14.8601L15.5507 14.2601C15.5907 14.2401 15.6507 14.2401 15.6907 14.2601L16.8407 14.8601C17.0507 14.9701 17.3007 14.9501 17.4907 14.8101C17.6807 14.6701 17.7807 14.4401 17.7407 14.2001L17.5207 12.9301C17.5107 12.8801 17.5307 12.8301 17.5607 12.7901L18.4707 11.9001Z" fill="#0E1117"/>
<path d="M9.21061 7.57986V16.4199C8.83061 16.4199 8.51061 16.7399 8.51061 17.1199V20.1399H7.35061C3.40061 20.1399 2.10061 18.9599 2.01061 15.2799C2.00061 15.0899 2.08061 14.9099 2.21061 14.7799C2.34061 14.6399 2.53061 14.5699 2.71061 14.5699C4.11061 14.5699 5.26061 13.4199 5.26061 12.0099C5.26061 10.5999 4.11061 9.43986 2.71061 9.43986C2.51061 9.43986 2.34061 9.36986 2.21061 9.22986C2.08061 9.09986 2.00061 8.90986 2.01061 8.72986C2.10061 5.03986 3.40061 3.85986 7.35061 3.85986H8.51061V6.87986C8.51061 7.26986 8.83061 7.57986 9.21061 7.57986Z" fill="#0E1117"/>
</svg>
