<svg width="24" height="24" viewBox="0 0 24 24" fill="none" xmlns="http://www.w3.org/2000/svg">
<path d="M21.3314 7.91979C20.9214 7.91979 20.5814 7.57979 20.5814 7.16979V5.34979C20.5814 4.61979 19.9914 4.02979 19.2614 4.02979H4.74139C4.01139 4.02979 3.42139 4.61979 3.42139 5.34979V7.17978C3.42139 7.58978 3.08139 7.92978 2.67139 7.92978C2.26139 7.92978 1.92139 7.58979 1.92139 7.16979V5.34979C1.92139 3.78979 3.19139 2.52979 4.74139 2.52979H19.2614C20.8214 2.52979 22.0814 3.79979 22.0814 5.34979V7.17978C22.0814 7.58978 21.7514 7.91979 21.3314 7.91979Z" fill="#0E1117"/>
<path d="M12.0015 21.4699C11.5915 21.4699 11.2515 21.1299 11.2515 20.7199V4.10986C11.2515 3.69986 11.5915 3.35986 12.0015 3.35986C12.4115 3.35986 12.7515 3.69986 12.7515 4.10986V20.7199C12.7515 21.1399 12.4115 21.4699 12.0015 21.4699Z" fill="#0E1117"/>
<path d="M15.9415 21.4702H8.06152C7.65152 21.4702 7.31152 21.1302 7.31152 20.7202C7.31152 20.3102 7.65152 19.9702 8.06152 19.9702H15.9415C16.3515 19.9702 16.6915 20.3102 16.6915 20.7202C16.6915 21.1302 16.3515 21.4702 15.9415 21.4702Z" fill="#0E1117"/>
</svg>
