<svg width="24" height="24" viewBox="0 0 24 24" fill="none" xmlns="http://www.w3.org/2000/svg">
<path d="M11.75 7H11H7C4.24 7 2 9.24 2 12V17C2 19.76 4.24 22 7 22H12C14.76 22 17 19.76 17 17V13V12.25C17 9.35 14.65 7 11.75 7Z" fill="#0E1117"/>
<path d="M21.8801 6.32984C22.4047 8.88943 21.1624 11.2118 19.1593 12.3055C18.8517 12.4735 18.5001 12.2338 18.5001 11.8834V11.7498C18.5001 8.30984 15.6901 5.49984 12.2501 5.49984H12.1166C11.7661 5.49984 11.5265 5.1483 11.6945 4.8407C12.7882 2.83762 15.1105 1.59526 17.6701 2.11984C19.7601 2.54984 21.4501 4.23984 21.8801 6.32984Z" fill="#0E1117"/>
</svg>
