<svg width="24" height="24" viewBox="0 0 24 24" fill="none" xmlns="http://www.w3.org/2000/svg">
<path opacity="0.4" d="M22.0015 7.81V16.19C22.0015 19.83 19.8315 22 16.1915 22H7.81146C7.61146 22 7.41146 21.99 7.22146 21.98C5.99146 21.9 4.95146 21.55 4.13146 20.95C3.71147 20.66 3.34146 20.29 3.05146 19.87C2.36146 18.92 2.00146 17.68 2.00146 16.19V7.81C2.00146 4.37 3.94146 2.24 7.22146 2.03C7.41146 2.01 7.61146 2 7.81146 2H16.1915C17.6815 2 18.9215 2.36 19.8715 3.05C20.2915 3.34 20.6615 3.71 20.9515 4.13C21.6415 5.08 22.0015 6.32 22.0015 7.81Z" fill="#0E1117"/>
<path d="M11.3915 14.3799H11.0215V7.9099H13.5915C13.7015 7.9099 13.7915 7.9999 13.7915 8.1099V8.8899C13.7915 9.2999 14.1315 9.6399 14.5415 9.6399C14.9515 9.6399 15.2915 9.2999 15.2915 8.8899V8.0999C15.2915 7.1599 14.5315 6.3999 13.5915 6.3999H6.95146C6.01146 6.3999 5.25146 7.1599 5.25146 8.0999V8.8799C5.25146 9.2999 5.59146 9.6299 6.00146 9.6299C6.41146 9.6299 6.75146 9.2999 6.75146 8.8799V8.0999C6.75146 7.9899 6.84146 7.8999 6.95146 7.8999H9.52147V14.3799H8.52147C8.11147 14.3799 7.77146 14.7199 7.77146 15.1299C7.77146 15.5399 8.11147 15.8799 8.52147 15.8799H11.3815C11.7915 15.8799 12.1315 15.5399 12.1315 15.1299C12.1315 14.7199 11.8015 14.3799 11.3915 14.3799Z" fill="#0E1117"/>
<path d="M17.3217 10.3999H13.7217C13.3117 10.3999 12.9717 10.7399 12.9717 11.1499C12.9717 11.5599 13.3117 11.8999 13.7217 11.8999H14.2017V16.0999H13.8517C13.4417 16.0999 13.1017 16.4399 13.1017 16.8499C13.1017 17.2599 13.4417 17.5999 13.8517 17.5999H16.0517C16.4617 17.5999 16.8017 17.2599 16.8017 16.8499C16.8017 16.4399 16.4617 16.0999 16.0517 16.0999H15.7017V11.8999H17.2517V12.2399C17.2517 12.6499 17.5917 12.9899 18.0017 12.9899C18.4117 12.9899 18.7517 12.6499 18.7517 12.2399V11.8299C18.7517 11.0399 18.1117 10.3999 17.3217 10.3999Z" fill="#0E1117"/>
</svg>
