<svg width="24" height="24" viewBox="0 0 24 24" fill="none" xmlns="http://www.w3.org/2000/svg">
<path d="M11.9419 2.20983L9.5319 7.81983H7.1219C6.7219 7.81983 6.3319 7.84983 5.9519 7.92983L6.9519 5.52983L6.9919 5.43983L7.0519 5.27983C7.0819 5.20983 7.1019 5.14983 7.1319 5.09983C8.2919 2.40983 9.5919 1.56983 11.9419 2.20983Z" fill="#0E1117"/>
<path d="M18.7321 8.09002L18.7121 8.08002C18.1121 7.91002 17.5021 7.82002 16.8821 7.82002H10.6221L12.8721 2.59002L12.9021 2.52002C13.0421 2.57002 13.1921 2.64002 13.3421 2.69002L15.5521 3.62002C16.7821 4.13002 17.6421 4.66002 18.1721 5.30002C18.2621 5.42002 18.3421 5.53002 18.4221 5.66002C18.5121 5.80002 18.5821 5.94002 18.6221 6.09002C18.6621 6.18002 18.6921 6.26002 18.7121 6.35002C18.8621 6.86002 18.8721 7.44002 18.7321 8.09002Z" fill="#0E1117"/>
<path d="M18.2919 9.51982C17.8419 9.38982 17.3719 9.31982 16.8819 9.31982H7.12194C6.44194 9.31982 5.80194 9.44982 5.20194 9.70982C3.46194 10.4598 2.24194 12.1898 2.24194 14.1998V16.1498C2.24194 16.3898 2.26194 16.6198 2.29194 16.8598C2.51194 20.0398 4.21194 21.7398 7.39194 21.9498C7.62194 21.9798 7.85194 21.9998 8.10194 21.9998H15.9019C19.6019 21.9998 21.5519 20.2398 21.7419 16.7398C21.7519 16.5498 21.7619 16.3498 21.7619 16.1498V14.1998C21.7619 11.9898 20.2919 10.1298 18.2919 9.51982ZM14.5019 16.7498H9.50194C9.09194 16.7498 8.75194 16.4098 8.75194 15.9998C8.75194 15.5898 9.09194 15.2498 9.50194 15.2498H14.5019C14.9119 15.2498 15.2519 15.5898 15.2519 15.9998C15.2519 16.4098 14.9119 16.7498 14.5019 16.7498Z" fill="#0E1117"/>
</svg>
