<svg width="24" height="24" viewBox="0 0 24 24" fill="none" xmlns="http://www.w3.org/2000/svg">
<path d="M17.0013 12.5898H14.3214C13.2314 12.5898 12.3813 11.7398 12.3813 10.6498V9.15973C12.3813 8.06973 13.2314 7.21973 14.3214 7.21973H15.8113C16.8813 7.21973 17.7513 8.08973 17.7513 9.15973V11.8298C17.7513 12.2498 17.4113 12.5898 17.0013 12.5898ZM14.3214 8.71973C14.0014 8.71973 13.8813 8.95973 13.8813 9.15973V10.6498C13.8813 10.8498 13.9914 11.0898 14.3214 11.0898H16.2513V9.16974C16.2513 8.92974 16.0513 8.72974 15.8113 8.72974H14.3214V8.71973Z" fill="#0E1117"/>
<path d="M14.9114 16.7798C14.6514 16.7798 14.4014 16.6498 14.2614 16.4098C14.0514 16.0498 14.1714 15.5898 14.5214 15.3798C15.8814 14.5698 16.2514 14.3598 16.2514 11.8398C16.2514 11.4298 16.5914 11.0898 17.0014 11.0898C17.4114 11.0898 17.7514 11.4298 17.7514 11.8398C17.7514 14.9198 17.0814 15.6098 15.2914 16.6698C15.1714 16.7398 15.0414 16.7798 14.9114 16.7798Z" fill="#0E1117"/>
<path d="M10.8617 12.5898H8.18169C7.09169 12.5898 6.2417 11.7398 6.2417 10.6498V9.15973C6.2417 8.06973 7.09169 7.21973 8.18169 7.21973H9.67169C10.7417 7.21973 11.6117 8.08973 11.6117 9.15973V11.8298C11.6117 12.2498 11.2817 12.5898 10.8617 12.5898ZM8.1917 8.71973C7.8717 8.71973 7.75169 8.95973 7.75169 9.15973V10.6498C7.75169 10.8498 7.8617 11.0898 8.1917 11.0898H10.1217V9.16974C10.1217 8.92974 9.92169 8.72974 9.68169 8.72974H8.1917V8.71973Z" fill="#0E1117"/>
<path d="M8.77129 16.7798C8.51129 16.7798 8.26128 16.6498 8.12128 16.4098C7.91128 16.0498 8.03129 15.5898 8.38129 15.3798C9.74129 14.5698 10.1113 14.3598 10.1113 11.8398C10.1113 11.4298 10.4513 11.0898 10.8613 11.0898C11.2713 11.0898 11.6113 11.4298 11.6113 11.8398C11.6113 14.9198 10.9413 15.6098 9.15128 16.6698C9.03128 16.7398 8.90129 16.7798 8.77129 16.7798Z" fill="#0E1117"/>
<path d="M12.0015 22.75C6.07147 22.75 1.25146 17.93 1.25146 12C1.25146 6.07 6.07147 1.25 12.0015 1.25C17.9315 1.25 22.7515 6.07 22.7515 12C22.7515 17.93 17.9315 22.75 12.0015 22.75ZM12.0015 2.75C6.90146 2.75 2.75146 6.9 2.75146 12C2.75146 17.1 6.90146 21.25 12.0015 21.25C17.1015 21.25 21.2515 17.1 21.2515 12C21.2515 6.9 17.1015 2.75 12.0015 2.75Z" fill="#0E1117"/>
</svg>
