<svg width="24" height="24" viewBox="0 0 24 24" fill="none" xmlns="http://www.w3.org/2000/svg">
<path d="M20.8899 5.18007V16.4801C20.8899 18.4601 19.2799 20.0701 17.2999 20.0701C15.3299 20.0701 13.7099 18.4601 13.7099 16.4801C13.7099 14.5101 15.3299 12.9001 17.2999 12.9001C18.1399 12.9001 18.8899 13.1901 19.4999 13.6701V7.72007L10.2899 10.3401V18.4101C10.2899 20.3901 8.66986 22.0001 6.69986 22.0001C4.71986 22.0001 3.10986 20.3901 3.10986 18.4101C3.10986 16.4401 4.71986 14.8301 6.69986 14.8301C7.52986 14.8301 8.27986 15.1201 8.88986 15.5901V6.75007C8.88986 5.28007 9.77986 4.14007 11.1899 3.76007L16.9699 2.18007C18.1399 1.86007 19.1299 1.97007 19.8299 2.51007C20.5399 3.04007 20.8899 3.94007 20.8899 5.18007Z" fill="#0E1117"/>
</svg>
