<svg width="24" height="24" viewBox="0 0 24 24" fill="none" xmlns="http://www.w3.org/2000/svg">
<path opacity="0.4" d="M16.1915 2H7.81146C4.17146 2 2.00146 4.17 2.00146 7.81V16.18C2.00146 19.83 4.17146 22 7.81146 22H16.1815C19.8215 22 21.9915 19.83 21.9915 16.19V7.81C22.0015 4.17 19.8315 2 16.1915 2Z" fill="#0E1117"/>
<path d="M11.4315 18.1798C9.13147 18.1798 7.25146 16.2998 7.25146 13.9998V10.5698C7.25146 7.94982 9.38146 5.81982 12.0015 5.81982C14.6215 5.81982 16.7515 7.94982 16.7515 10.5698V13.7098C16.7515 15.2298 15.5215 16.4598 14.0015 16.4598C12.4815 16.4598 11.2515 15.2298 11.2515 13.7098V11.7098C11.2515 11.2998 11.5915 10.9598 12.0015 10.9598C12.4115 10.9598 12.7515 11.2998 12.7515 11.7098V13.7098C12.7515 14.3998 13.3115 14.9598 14.0015 14.9598C14.6915 14.9598 15.2515 14.3998 15.2515 13.7098V10.5698C15.2515 8.77982 13.7915 7.31982 12.0015 7.31982C10.2115 7.31982 8.75146 8.77982 8.75146 10.5698V13.9998C8.75146 15.4798 9.95147 16.6798 11.4315 16.6798C11.8415 16.6798 12.1815 17.0198 12.1815 17.4298C12.1815 17.8398 11.8415 18.1798 11.4315 18.1798Z" fill="#0E1117"/>
</svg>
