<svg width="24" height="24" viewBox="0 0 24 24" fill="none" xmlns="http://www.w3.org/2000/svg">
<path d="M15.4115 18.5899C15.0115 18.5899 14.6815 18.2599 14.6815 17.8599C14.6815 17.4599 15.0115 17.1299 15.4115 17.1299C18.2315 17.1299 20.5315 14.8299 20.5315 12.0099C20.5315 9.18992 18.2315 6.88992 15.4115 6.88992C12.5915 6.88992 10.2915 9.18992 10.2915 12.0099C10.2915 12.4099 9.96154 12.7399 9.56154 12.7399C9.16154 12.7399 8.83154 12.4099 8.83154 12.0099C8.83154 8.37992 11.7815 5.41992 15.4215 5.41992C19.0615 5.41992 22.0015 8.36992 22.0015 11.9999C22.0015 15.6299 19.0515 18.5899 15.4115 18.5899Z" fill="#0E1117"/>
<path opacity="0.4" d="M22.0015 12.0002C22.0015 15.6402 19.0515 18.5902 15.4115 18.5902C14.1615 18.5902 12.9915 18.2402 12.0015 17.6302C13.9015 16.4802 15.1715 14.3902 15.1715 12.0002C15.1715 9.61016 13.9015 7.52016 12.0015 6.37016C13.0015 5.77016 14.1715 5.41016 15.4115 5.41016C19.0515 5.41016 22.0015 8.36016 22.0015 12.0002Z" fill="#0E1117"/>
<path d="M8.59146 5.41016C8.99147 5.41016 9.32146 5.74016 9.32146 6.14016C9.32146 6.54016 8.99147 6.87016 8.59146 6.87016C5.77147 6.87016 3.47146 9.17016 3.47146 11.9902C3.47146 14.8102 5.77147 17.1102 8.59146 17.1102C11.4115 17.1102 13.7115 14.8102 13.7115 11.9902C13.7115 11.5902 14.0415 11.2602 14.4415 11.2602C14.8415 11.2602 15.1715 11.5902 15.1715 11.9902C15.1715 15.6202 12.2215 18.5802 8.58146 18.5802C4.94146 18.5802 2.00146 15.6302 2.00146 12.0002C2.00146 8.37016 4.95146 5.41016 8.59146 5.41016Z" fill="#0E1117"/>
<path opacity="0.5" d="M15.1715 12.0002C15.1715 14.3902 13.9015 16.4802 12.0015 17.6302C11.0015 18.2302 9.83146 18.5902 8.59146 18.5902C4.95146 18.5902 2.00146 15.6402 2.00146 12.0002C2.00146 8.36016 4.95146 5.41016 8.59146 5.41016C9.83146 5.41016 11.0015 5.77016 12.0015 6.37016C13.9015 7.52016 15.1715 9.61016 15.1715 12.0002Z" fill="#0E1117"/>
</svg>
