<svg width="24" height="24" viewBox="0 0 24 24" fill="none" xmlns="http://www.w3.org/2000/svg">
<path opacity="0.4" d="M16.1912 2H7.82123C4.18123 2 2.01123 4.17 2.01123 7.81V16.18C2.01123 19.82 4.18123 21.99 7.82123 21.99H16.1912C19.8312 21.99 22.0012 19.82 22.0012 16.18V7.81C22.0012 4.17 19.8312 2 16.1912 2Z" fill="#0E1117"/>
<path d="M8.19147 16.7798H9.68147C10.7715 16.7798 11.6215 15.9298 11.6215 14.8398V13.3497C11.6215 12.2597 10.7715 11.4097 9.68147 11.4097H7.77146C7.85146 9.59973 8.27147 9.32975 9.48147 8.61975C9.84147 8.40975 9.95146 7.94978 9.74146 7.58978C9.60146 7.34978 9.35146 7.21973 9.09146 7.21973C8.96146 7.21973 8.83146 7.24976 8.71146 7.31976C6.92146 8.37976 6.25146 9.06978 6.25146 12.1498V14.8198C6.25146 15.9098 7.12147 16.7798 8.19147 16.7798Z" fill="#0E1117"/>
<path d="M14.3214 16.7798H15.8113C16.9013 16.7798 17.7514 15.9298 17.7514 14.8398V13.3497C17.7514 12.2597 16.9013 11.4097 15.8113 11.4097H13.9014C13.9814 9.59973 14.4014 9.32975 15.6114 8.61975C15.9714 8.40975 16.0814 7.94978 15.8714 7.58978C15.7314 7.34978 15.4814 7.21973 15.2214 7.21973C15.0914 7.21973 14.9613 7.24976 14.8413 7.31976C13.0513 8.37976 12.3813 9.06978 12.3813 12.1498V14.8198C12.3913 15.9098 13.2614 16.7798 14.3214 16.7798Z" fill="#0E1117"/>
</svg>
