<svg width="24" height="24" viewBox="0 0 24 24" fill="none" xmlns="http://www.w3.org/2000/svg">
<path d="M23.5302 12.0502C23.2402 11.7602 22.7602 11.7602 22.4702 12.0502L22.0102 12.5102V12.0002C22.0102 6.48023 17.5202 1.99023 12.0002 1.99023C8.95024 1.99023 6.10024 3.36023 4.19025 5.74023C3.93025 6.06023 3.98024 6.54023 4.31025 6.80023C4.63024 7.05023 5.10025 7.00023 5.36025 6.68023C6.99025 4.65023 9.41024 3.49023 12.0002 3.49023C16.6902 3.49023 20.5102 7.31023 20.5102 12.0002V12.5002L20.0502 12.0402C19.7602 11.7502 19.2802 11.7502 18.9902 12.0402C18.7002 12.3302 18.7002 12.8102 18.9902 13.1002L20.7302 14.8402C20.8002 14.9102 20.8802 14.9602 20.9702 15.0002C21.0602 15.0402 21.1602 15.0602 21.2602 15.0602C21.3602 15.0602 21.4502 15.0402 21.5502 15.0002C21.6402 14.9602 21.7202 14.9102 21.7902 14.8402L23.5302 13.1002C23.8202 12.8202 23.8202 12.3402 23.5302 12.0502Z" fill="#0E1117"/>
<path d="M19.6904 17.2002C19.3704 16.9402 18.8904 16.9902 18.6404 17.3202C17.0104 19.3502 14.5904 20.5102 12.0004 20.5102C7.31043 20.5102 3.49043 16.6902 3.49043 12.0002V11.5002L3.95043 11.9602C4.10043 12.1102 4.29043 12.1802 4.48043 12.1802C4.67043 12.1802 4.86043 12.1002 5.00043 11.9502C5.29043 11.6602 5.29043 11.1802 5.00043 10.8902L3.27043 9.15018C3.20043 9.09018 3.11043 9.03018 3.02043 8.99018C2.84043 8.91018 2.63043 8.91018 2.45043 8.99018C2.36043 9.03018 2.28043 9.09018 2.21043 9.15018L0.47043 10.8902C0.18043 11.1802 0.18043 11.6602 0.47043 11.9502C0.76043 12.2402 1.24043 12.2402 1.53043 11.9502L1.99043 11.4902V12.0002C1.99043 17.5202 6.48043 22.0102 12.0004 22.0102C15.0504 22.0102 17.9004 20.6402 19.8104 18.2602C20.0704 17.9402 20.0204 17.4602 19.6904 17.2002Z" fill="#0E1117"/>
<path d="M15.45 11.64C15.72 11.24 15.87 10.77 15.87 10.25C15.87 8.92 14.7 7.75 13.37 7.75H12.55V6.75C12.55 6.34 12.21 6 11.8 6C11.39 6 11.05 6.34 11.05 6.75V7.75H9C8.59 7.75 8.25 8.09 8.25 8.5V12V15.5C8.25 15.91 8.59 16.25 9 16.25H11.05V17.25C11.05 17.66 11.39 18 11.8 18C12.21 18 12.55 17.66 12.55 17.25V16.25H14C15.52 16.25 16.75 15.13 16.75 13.75C16.75 12.86 16.23 12.08 15.45 11.64ZM9.75 9.25H13.37C13.92 9.25 14.37 9.8 14.37 10.25C14.37 10.8 13.92 11.25 13.37 11.25H9.75V9.25ZM14 14.75H9.75V12.75H13.37H14C14.69 12.75 15.25 13.2 15.25 13.75C15.25 14.3 14.69 14.75 14 14.75Z" fill="#0E1117"/>
</svg>
