<svg width="24" height="24" viewBox="0 0 24 24" fill="none" xmlns="http://www.w3.org/2000/svg">
<path d="M19.1714 6.64002C18.7414 4.47002 17.1314 3.52002 14.8914 3.52002H6.11143C3.47143 3.52002 1.71143 4.84002 1.71143 7.92002V13.07C1.71143 15.29 2.62143 16.59 4.12143 17.15C4.34143 17.23 4.58143 17.3 4.83143 17.34C5.23143 17.43 5.66143 17.47 6.11143 17.47H14.9014C17.5414 17.47 19.3014 16.15 19.3014 13.07V7.92002C19.3014 7.45002 19.2614 7.03002 19.1714 6.64002ZM5.53143 12C5.53143 12.41 5.19143 12.75 4.78143 12.75C4.37143 12.75 4.03143 12.41 4.03143 12V9.00002C4.03143 8.59002 4.37143 8.25002 4.78143 8.25002C5.19143 8.25002 5.53143 8.59002 5.53143 9.00002V12ZM10.5014 13.14C9.04143 13.14 7.86143 11.96 7.86143 10.5C7.86143 9.04002 9.04143 7.86002 10.5014 7.86002C11.9614 7.86002 13.1414 9.04002 13.1414 10.5C13.1414 11.96 11.9614 13.14 10.5014 13.14ZM16.9614 12C16.9614 12.41 16.6214 12.75 16.2114 12.75C15.8014 12.75 15.4614 12.41 15.4614 12V9.00002C15.4614 8.59002 15.8014 8.25002 16.2114 8.25002C16.6214 8.25002 16.9614 8.59002 16.9614 9.00002V12Z" fill="#0E1117"/>
<path d="M22.3015 10.9198V16.0698C22.3015 19.1498 20.5415 20.4798 17.8915 20.4798H9.11148C8.36148 20.4798 7.69148 20.3698 7.11148 20.1498C6.64148 19.9798 6.23148 19.7298 5.90148 19.4098C5.72148 19.2398 5.86148 18.9698 6.11148 18.9698H14.8915C18.5915 18.9698 20.7915 16.7698 20.7915 13.0798V7.91979C20.7915 7.67979 21.0615 7.52979 21.2315 7.70979C21.9115 8.42979 22.3015 9.47979 22.3015 10.9198Z" fill="#0E1117"/>
</svg>
