<svg width="24" height="24" viewBox="0 0 24 24" fill="none" xmlns="http://www.w3.org/2000/svg">
<path d="M16.6521 3.85986H9.91207V6.87986C9.91207 7.26986 9.59207 7.57986 9.21207 7.57986C8.83207 7.57986 8.51207 7.26986 8.51207 6.87986V3.85986H7.35207C3.40207 3.85986 2.10207 5.03986 2.01207 8.72986C2.00207 8.90986 2.08207 9.09986 2.21207 9.22986C2.34207 9.36986 2.51207 9.43986 2.71207 9.43986C4.11207 9.43986 5.26207 10.5999 5.26207 11.9999C5.26207 13.3999 4.11207 14.5599 2.71207 14.5599C2.52207 14.5599 2.34207 14.6299 2.21207 14.7699C2.08207 14.8999 2.00207 15.0899 2.01207 15.2699C2.10207 18.9599 3.40207 20.1399 7.35207 20.1399H8.51207V17.1199C8.51207 16.7299 8.83207 16.4199 9.21207 16.4199C9.59207 16.4199 9.91207 16.7299 9.91207 17.1199V20.1399H16.6521C20.7521 20.1399 22.0021 18.8899 22.0021 14.7899V9.20986C22.0021 5.10986 20.7521 3.85986 16.6521 3.85986ZM18.4721 11.8999L17.5421 12.7999C17.5021 12.8299 17.4921 12.8899 17.5021 12.9399L17.7221 14.2099C17.7621 14.4399 17.6721 14.6799 17.4721 14.8199C17.2821 14.9599 17.0321 14.9799 16.8221 14.8699L15.6721 14.2699C15.6321 14.2499 15.5721 14.2499 15.5321 14.2699L14.3821 14.8699C14.2921 14.9199 14.1921 14.9399 14.0921 14.9399C13.9621 14.9399 13.8421 14.8999 13.7321 14.8199C13.5421 14.6799 13.4421 14.4499 13.4821 14.2099L13.7021 12.9399C13.7121 12.8899 13.6921 12.8399 13.6621 12.7999L12.7321 11.8999C12.5621 11.7399 12.5021 11.4899 12.5721 11.2699C12.6421 11.0399 12.8321 10.8799 13.0721 10.8499L14.3521 10.6599C14.4021 10.6499 14.4421 10.6199 14.4721 10.5799L15.0421 9.41986C15.1521 9.20986 15.3621 9.07986 15.6021 9.07986C15.8421 9.07986 16.0521 9.20986 16.1521 9.41986L16.7221 10.5799C16.7421 10.6299 16.7821 10.6599 16.8321 10.6599L18.1121 10.8499C18.3521 10.8799 18.5421 11.0499 18.6121 11.2699C18.7021 11.4899 18.6421 11.7299 18.4721 11.8999Z" fill="#0E1117"/>
</svg>
