<svg width="24" height="24" viewBox="0 0 24 24" fill="none" xmlns="http://www.w3.org/2000/svg">
<path opacity="0.4" d="M13.1499 15.3699C12.9299 15.0499 12.5399 14.8699 12.0899 14.8699H9.75991C9.60991 14.8699 9.45991 14.8099 9.36991 14.6899C9.26991 14.5699 9.22991 14.4199 9.24991 14.2499L9.53991 12.3899C9.65991 11.8399 9.28991 11.2099 8.73991 11.0199C8.21991 10.8299 7.61991 11.0899 7.36991 11.4599L4.97991 15.0099L4.90991 15.1299V20.1499L4.99991 20.2398L6.79991 21.6299C7.03991 21.8699 7.57991 21.9999 7.95991 21.9999H10.1699C10.9299 21.9999 11.6899 21.4298 11.8699 20.7298L13.2699 16.4798C13.4099 16.0698 13.3699 15.6799 13.1499 15.3699Z" fill="#0E1117"/>
<path d="M3.82 13.2998H3.24C2.36 13.2998 2 13.6398 2 14.4798V20.1898C2 21.0298 2.36 21.3698 3.24 21.3698H3.82C4.7 21.3698 5.06 21.0298 5.06 20.1898V14.4798C5.06 13.6398 4.7 13.2998 3.82 13.2998Z" fill="#0E1117"/>
<path opacity="0.4" d="M11.2 8.59973C11.42 8.91973 11.81 9.09973 12.26 9.09973H14.59C14.74 9.09973 14.89 9.15979 14.98 9.27979C15.08 9.39979 15.12 9.54973 15.1 9.71973L14.81 11.5798C14.69 12.1298 15.06 12.7598 15.61 12.9498C16.13 13.1398 16.73 12.8798 16.98 12.5098L19.37 8.95978L19.44 8.83978V3.81976L19.35 3.72974L17.55 2.33978C17.31 2.09978 16.77 1.96973 16.39 1.96973H14.18C13.42 1.96973 12.66 2.53975 12.48 3.23975L11.08 7.48975C10.94 7.88975 10.98 8.28973 11.2 8.59973Z" fill="#0E1117"/>
<path d="M20.53 10.6696H21.11C21.99 10.6696 22.35 10.3296 22.35 9.48962V3.77966C22.35 2.93966 21.99 2.59961 21.11 2.59961H20.53C19.65 2.59961 19.29 2.93966 19.29 3.77966V9.48962C19.29 10.3296 19.65 10.6696 20.53 10.6696Z" fill="#0E1117"/>
</svg>
