<svg width="24" height="24" viewBox="0 0 24 24" fill="none" xmlns="http://www.w3.org/2000/svg">
<path d="M21.7007 6.39014H14.4307C14.0207 6.39014 13.6807 6.05014 13.6807 5.64014C13.6807 5.23014 14.0207 4.89014 14.4307 4.89014H21.7007C22.1107 4.89014 22.4507 5.23014 22.4507 5.64014C22.4507 6.05014 22.1107 6.39014 21.7007 6.39014Z" fill="#0E1117"/>
<path d="M9.58029 6.39014H2.30029C1.89029 6.39014 1.55029 6.05014 1.55029 5.64014C1.55029 5.23014 1.89029 4.89014 2.30029 4.89014H9.57029C9.98029 4.89014 10.3203 5.23014 10.3203 5.64014C10.3203 6.05014 9.99029 6.39014 9.58029 6.39014Z" fill="#0E1117"/>
<path d="M21.7007 16.0801H14.4307C14.0207 16.0801 13.6807 15.7401 13.6807 15.3301C13.6807 14.9201 14.0207 14.5801 14.4307 14.5801H21.7007C22.1107 14.5801 22.4507 14.9201 22.4507 15.3301C22.4507 15.7401 22.1107 16.0801 21.7007 16.0801Z" fill="#0E1117"/>
<path d="M21.7007 22.1401H14.4307C14.0207 22.1401 13.6807 21.8001 13.6807 21.3901C13.6807 20.9801 14.0207 20.6401 14.4307 20.6401H21.7007C22.1107 20.6401 22.4507 20.9801 22.4507 21.3901C22.4507 21.8001 22.1107 22.1401 21.7007 22.1401Z" fill="#0E1117"/>
<path d="M18.0903 10.02C17.6803 10.02 17.3403 9.68 17.3403 9.27V2C17.3403 1.59 17.6803 1.25 18.0903 1.25C18.5003 1.25 18.8403 1.59 18.8403 2V9.27C18.8403 9.69 18.5103 10.02 18.0903 10.02Z" fill="#0E1117"/>
<path d="M2.30072 22.7499C2.11072 22.7499 1.92072 22.6799 1.77072 22.5299C1.48072 22.2399 1.48072 21.7599 1.77072 21.4699L9.04072 14.1999C9.33072 13.9099 9.81072 13.9099 10.1007 14.1999C10.3907 14.4899 10.3907 14.9699 10.1007 15.2599L2.83072 22.5299C2.69072 22.6799 2.50072 22.7499 2.30072 22.7499Z" fill="#0E1117"/>
<path d="M9.58049 22.7499C9.39049 22.7499 9.20049 22.6799 9.05049 22.5299L1.78049 15.2599C1.49049 14.9699 1.49049 14.4899 1.78049 14.1999C2.07049 13.9099 2.55049 13.9099 2.84049 14.1999L10.1105 21.4699C10.4005 21.7599 10.4005 22.2399 10.1105 22.5299C9.96049 22.6799 9.77049 22.7499 9.58049 22.7499Z" fill="#0E1117"/>
</svg>
